<svg xmlns="http://www.w3.org/2000/svg" xmlns:xlink="http://www.w3.org/1999/xlink"><defs><symbol viewBox="0 0 42 42" fill="none" id="arrow-heading">
<path d="M1.95163 1.95163L40 40M0 39.0326H39.0326V0" stroke="white" stroke-width="5" />
</symbol><symbol viewBox="0 0 21 21" fill="none" id="arrow-hero-scroll">
<path d="M10.582 0.966007V19.799M0.921958 9.66007L10.582 19.3201L20.2421 9.66007" stroke="white" stroke-opacity="0.5" />
</symbol><symbol viewBox="0 0 15 14" id="controls-arrow">
<path d="M8.53125 12.9375C8.84375 12.625 8.8125 12.1562 8.53125 11.8438L4.75 8.25H13.75C14.1562 8.25 14.5 7.9375 14.5 7.5V6.5C14.5 6.09375 14.1562 5.75 13.75 5.75H4.75L8.53125 2.1875C8.8125 1.875 8.84375 1.40625 8.53125 1.09375L7.84375 0.40625C7.5625 0.125 7.0625 0.125 6.78125 0.40625L0.71875 6.5C0.40625 6.78125 0.40625 7.25 0.71875 7.53125L6.78125 13.625C7.0625 13.9062 7.53125 13.9062 7.84375 13.625L8.53125 12.9375Z" />
</symbol><symbol viewBox="0 0 141 41" fill="none" id="cybronet-logo">
<path d="M6.8408 20.5276L22.335 5.03536L17.299 0L0 17.2968V23.7032L17.299 41L22.3035 35.9962L6.8408 20.5276Z" fill="white" />
<path d="M34.8132 17.4656L28.8027 11.4524L24.3776 7.02539L10.9053 20.5038L15.3303 24.9308L24.3776 33.9742L28.7869 29.5709L19.7396 20.5195L24.3934 15.8637L33.4407 24.9071L34.8132 23.534V17.4656Z" fill="white" />
<path d="M137.075 17.89H140.345V15.39H137.075V11H134.425V15.39H132.655V17.89H134.425V23.28C134.421 23.8756 134.599 24.4581 134.935 24.95C135.301 25.4239 135.724 25.8505 136.195 26.22C136.763 26.5889 137.428 26.7804 138.105 26.77H140.315V24.27H138.125C137.755 24.27 137.255 23.68 137.125 23.39C137.118 23.3402 137.118 23.2898 137.125 23.24L137.075 17.89ZM127.985 20.01H123.465V18.77C123.454 18.7172 123.454 18.6628 123.465 18.61C123.705 18.21 124.235 17.76 124.465 17.76H126.865C126.917 17.745 126.973 17.745 127.025 17.76C127.374 17.9635 127.671 18.244 127.895 18.58V18.74L127.985 20.01ZM130.625 22.36V18.71C130.647 18.1365 130.482 17.5713 130.155 17.1C129.781 16.6303 129.355 16.2043 128.885 15.83C128.315 15.4426 127.644 15.2306 126.955 15.22H124.525C123.839 15.2217 123.168 15.4232 122.595 15.8C122.133 16.1796 121.711 16.6051 121.335 17.07C120.996 17.5377 120.817 18.1024 120.825 18.68V23.44C120.815 24.024 120.994 24.5955 121.335 25.07C121.708 25.5372 122.131 25.963 122.595 26.34C123.17 26.7108 123.841 26.9054 124.525 26.9H127.005C127.685 26.8733 128.345 26.6625 128.915 26.29C129.607 25.7435 130.181 25.0633 130.605 24.29L128.145 23.56L128.065 23.66C127.905 23.85 127.355 24.35 127.065 24.35H124.505C124.245 24.35 123.715 23.9 123.505 23.5C123.494 23.4573 123.494 23.4127 123.505 23.37V22.36H130.625ZM117.755 26.79V18.71C117.773 18.1356 117.605 17.5707 117.275 17.1C116.903 16.628 116.477 16.2017 116.005 15.83C115.436 15.4519 114.768 15.2501 114.085 15.25H112.085C111.469 15.3229 110.891 15.5809 110.425 15.99L110.295 15.39H107.755L108.015 17.74V26.74H110.655V18.85C111.005 18.48 111.715 17.76 112.215 17.76H114.065C114.145 17.76 114.255 17.76 114.275 17.76C114.605 17.97 114.885 18.2499 115.095 18.58C115.108 18.6326 115.108 18.6874 115.095 18.74V26.74L117.755 26.79Z" fill="white" />
<path d="M97.6654 18.79C97.6556 18.7371 97.6556 18.6829 97.6654 18.63C97.885 18.2853 98.1832 17.9974 98.5354 17.79C98.5776 17.7763 98.6231 17.7763 98.6654 17.79H101.095C101.137 17.7747 101.183 17.7747 101.225 17.79C101.573 18.007 101.873 18.2928 102.105 18.63C102.112 18.6831 102.112 18.7369 102.105 18.79V23.6C102.105 23.81 101.475 24.23 101.235 24.36C101.189 24.3946 101.133 24.4154 101.075 24.42H98.6454C98.5926 24.4311 98.5381 24.4311 98.4854 24.42C98.1754 24.24 97.6154 23.84 97.6154 23.63L97.6654 18.79ZM104.755 23.47V18.71C104.785 18.1386 104.627 17.5731 104.305 17.1C103.935 16.6304 103.512 16.2044 103.045 15.83C102.487 15.45 101.831 15.2383 101.155 15.22H98.6754C97.9956 15.2215 97.3312 15.4232 96.7654 15.8C96.2898 16.1744 95.8571 16.6003 95.4754 17.07C95.1536 17.5431 94.9956 18.1086 95.0254 18.68V23.44C94.9956 24.0114 95.1536 24.5769 95.4754 25.05C95.8489 25.5386 96.2785 25.9817 96.7554 26.37C97.3232 26.7403 97.9875 26.935 98.6654 26.93H101.145C101.83 26.9354 102.5 26.7408 103.075 26.37C103.545 25.9915 103.968 25.5585 104.335 25.08C104.657 24.6069 104.815 24.0414 104.785 23.47H104.755ZM93.5254 17.82C93.1287 17.0774 92.5801 16.4267 91.9154 15.91C91.3377 15.4794 90.6359 15.2478 89.9154 15.25H88.3354C87.7083 15.334 87.1202 15.6019 86.6454 16.02L86.5054 15.39H83.9454L84.1554 17.74V26.74H86.8054V18.9C87.1154 18.5 87.8054 17.76 88.4154 17.76H89.8354C90.3354 17.76 90.8354 18.34 91.0254 18.55L93.5254 17.82ZM78.4454 23.36C78.4585 23.4125 78.4585 23.4675 78.4454 23.52C78.2315 23.8591 77.9445 24.1461 77.6054 24.36C77.557 24.3913 77.5024 24.4118 77.4454 24.42H75.5954C74.9563 24.1493 74.3857 23.7394 73.9254 23.22V18.92C74.3755 18.4123 74.9368 18.0154 75.5654 17.76H77.3854C77.4654 17.76 77.5454 17.76 77.5754 17.76C77.9154 17.9854 78.2021 18.2823 78.4154 18.63C78.426 18.6727 78.426 18.7173 78.4154 18.76L78.4454 23.36ZM81.0854 23.36V18.74C81.1043 18.1561 80.9361 17.5815 80.6054 17.1C80.2409 16.619 79.8176 16.1857 79.3454 15.81C78.7776 15.4397 78.1132 15.245 77.4354 15.25H75.4354C74.8657 15.2913 74.3219 15.5039 73.8754 15.86V11H71.2354V24.44L71.0254 26.79H73.6354L73.7554 26.22C74.2377 26.6366 74.8401 26.8888 75.4754 26.94H77.4754C78.1557 26.9415 78.8208 26.7395 79.3854 26.36C79.8578 25.9807 80.281 25.544 80.6454 25.06C80.9748 24.5779 81.1429 24.0037 81.1254 23.42L81.0854 23.36ZM69.5554 15.42H66.7554L64.0654 23.15L61.3954 15.42H58.3954L62.5954 26.82H62.8354L61.2454 31.1H63.9154L69.5554 15.42ZM50.0354 23.42V18.72C50.0389 18.6619 50.0598 18.6061 50.0954 18.56C50.3067 18.2397 50.5956 17.9783 50.9354 17.8C50.9851 17.7715 51.0392 17.7512 51.0954 17.74H53.6554C53.9254 17.74 54.4754 18.24 54.6554 18.43L54.7354 18.53L57.1954 17.8C56.7939 17.0089 56.2115 16.3237 55.4954 15.8C54.9301 15.426 54.2727 15.215 53.5954 15.19H51.0854C50.4041 15.183 49.7361 15.3779 49.1654 15.75C48.6903 16.1258 48.2637 16.5591 47.8954 17.04C47.5657 17.5107 47.3973 18.0756 47.4154 18.65V23.41C47.3973 23.9844 47.5657 24.5493 47.8954 25.02C48.2637 25.5009 48.6903 25.9342 49.1654 26.31C49.7361 26.6821 50.4041 26.877 51.0854 26.87H53.6254C54.3024 26.8435 54.9594 26.6326 55.5254 26.26C56.2197 25.7161 56.795 25.0354 57.2154 24.26L54.7554 23.63L54.6754 23.73C54.5154 23.92 53.9554 24.42 53.6754 24.42H51.0554C50.9992 24.4088 50.9451 24.3885 50.8954 24.36C50.5557 24.1817 50.2667 23.9202 50.0554 23.6C50.0198 23.5539 49.9989 23.4982 49.9954 23.44" fill="white" />
</symbol><symbol viewBox="0 0 20 20" id="facebook-logo">
<path d="M10 0C4.5 0 0 4.50803 0 10.0602C0 15.0803 3.66 19.247 8.44 20V12.9719H5.9V10.0602H8.44V7.84137C8.44 5.32129 9.93 3.93574 12.22 3.93574C13.31 3.93574 14.45 4.12651 14.45 4.12651V6.60643H13.19C11.95 6.60643 11.56 7.37952 11.56 8.17269V10.0602H14.34L13.89 12.9719H11.56V20C13.9164 19.6264 16.0622 18.4192 17.6099 16.5964C19.1576 14.7737 20.0053 12.4555 20 10.0602C20 4.50803 15.5 0 10 0Z" />
</symbol><symbol viewBox="0 0 6 10" fill="none" id="feature-action-arrow">
<path d="M0 8.81667L3.7085 5L0 1.175L1.1417 0L6 5L1.1417 10L0 8.81667Z" fill="#007DFF" />
</symbol><symbol viewBox="0 0 18 16" fill="none" id="feature-icon">
<path d="M16 0C17.11 0 18 0.9 18 2V14C18 14.5304 17.7893 15.0391 17.4142 15.4142C17.0391 15.7893 16.5304 16 16 16H2C0.89 16 0 15.1 0 14V2C0 1.46957 0.210714 0.960859 0.585786 0.585786C0.960859 0.210714 1.46957 0 2 0H16ZM16 14V4H2V14H16Z" fill="#007DFF" />
</symbol><symbol viewBox="0 0 1152 271" fill="none" id="hero-other-background">
<path d="M1152 0H0L0.000118017 230.817C224 241.217 224.778 256.542 439 266.636C795 283.41 935.5 247.591 1152 230.817V0Z" fill="url(#hero-other-background_paint0_radial_241_334)" />
<defs>

</defs>
</symbol><radialGradient id="hero-other-background_paint0_radial_241_334" cx="0" cy="0" r="1" gradientUnits="userSpaceOnUse" gradientTransform="translate(451 194.539) rotate(13.0839) scale(634.471 521.739)">
<stop offset="0.15625" stop-color="#0F1C61" />
<stop offset="0.505208" stop-color="#431E92" />
<stop offset="0.697917" stop-color="#3143AE" />
<stop offset="1" stop-color="#2794F9" />
</radialGradient><symbol viewBox="0 0 20 20" id="instagram-logo">
<path d="M5.8 0H14.2C17.4 0 20 2.6 20 5.8V14.2C20 15.7383 19.3889 17.2135 18.3012 18.3012C17.2135 19.3889 15.7383 20 14.2 20H5.8C2.6 20 0 17.4 0 14.2V5.8C0 4.26174 0.61107 2.78649 1.69878 1.69878C2.78649 0.61107 4.26174 0 5.8 0ZM5.6 2C4.64522 2 3.72955 2.37928 3.05442 3.05442C2.37928 3.72955 2 4.64522 2 5.6V14.4C2 16.39 3.61 18 5.6 18H14.4C15.3548 18 16.2705 17.6207 16.9456 16.9456C17.6207 16.2705 18 15.3548 18 14.4V5.6C18 3.61 16.39 2 14.4 2H5.6ZM15.25 3.5C15.5815 3.5 15.8995 3.6317 16.1339 3.86612C16.3683 4.10054 16.5 4.41848 16.5 4.75C16.5 5.08152 16.3683 5.39946 16.1339 5.63388C15.8995 5.8683 15.5815 6 15.25 6C14.9185 6 14.6005 5.8683 14.3661 5.63388C14.1317 5.39946 14 5.08152 14 4.75C14 4.41848 14.1317 4.10054 14.3661 3.86612C14.6005 3.6317 14.9185 3.5 15.25 3.5ZM10 5C11.3261 5 12.5979 5.52678 13.5355 6.46447C14.4732 7.40215 15 8.67392 15 10C15 11.3261 14.4732 12.5979 13.5355 13.5355C12.5979 14.4732 11.3261 15 10 15C8.67392 15 7.40215 14.4732 6.46447 13.5355C5.52678 12.5979 5 11.3261 5 10C5 8.67392 5.52678 7.40215 6.46447 6.46447C7.40215 5.52678 8.67392 5 10 5ZM10 7C9.20435 7 8.44129 7.31607 7.87868 7.87868C7.31607 8.44129 7 9.20435 7 10C7 10.7956 7.31607 11.5587 7.87868 12.1213C8.44129 12.6839 9.20435 13 10 13C10.7956 13 11.5587 12.6839 12.1213 12.1213C12.6839 11.5587 13 10.7956 13 10C13 9.20435 12.6839 8.44129 12.1213 7.87868C11.5587 7.31607 10.7956 7 10 7Z" />
</symbol><symbol viewBox="0 0 20 20" id="linkedin-logo">
<path d="M17.7778 0C18.3671 0 18.9324 0.234126 19.3491 0.650874C19.7659 1.06762 20 1.63285 20 2.22222V17.7778C20 18.3671 19.7659 18.9324 19.3491 19.3491C18.9324 19.7659 18.3671 20 17.7778 20H2.22222C1.63285 20 1.06762 19.7659 0.650874 19.3491C0.234126 18.9324 0 18.3671 0 17.7778V2.22222C0 1.63285 0.234126 1.06762 0.650874 0.650874C1.06762 0.234126 1.63285 0 2.22222 0H17.7778ZM17.2222 17.2222V11.3333C17.2222 10.3727 16.8406 9.45133 16.1613 8.77204C15.482 8.09274 14.5607 7.71111 13.6 7.71111C12.6556 7.71111 11.5556 8.28889 11.0222 9.15556V7.92222H7.92222V17.2222H11.0222V11.7444C11.0222 10.8889 11.7111 10.1889 12.5667 10.1889C12.9792 10.1889 13.3749 10.3528 13.6666 10.6445C13.9583 10.9362 14.1222 11.3319 14.1222 11.7444V17.2222H17.2222ZM4.31111 6.17778C4.80618 6.17778 5.28098 5.98111 5.63104 5.63104C5.98111 5.28098 6.17778 4.80618 6.17778 4.31111C6.17778 3.27778 5.34444 2.43333 4.31111 2.43333C3.81309 2.43333 3.33547 2.63117 2.98332 2.98332C2.63117 3.33547 2.43333 3.81309 2.43333 4.31111C2.43333 5.34444 3.27778 6.17778 4.31111 6.17778ZM5.85556 17.2222V7.92222H2.77778V17.2222H5.85556Z" />
</symbol><symbol viewBox="0 0 138 40" fill="none" id="logo-sportongo">
<path d="M45.5413 14.4411C45.2061 14.1499 44.8294 13.9144 44.4246 13.7432C44.0812 13.5973 43.7144 13.5195 43.3433 13.5139C42.9017 13.5139 42.541 13.6227 42.2613 13.8403C42.1297 13.9356 42.0227 14.063 41.9498 14.2114C41.8769 14.3598 41.8403 14.5245 41.8432 14.6911C41.8353 14.9112 41.9103 15.1259 42.0522 15.2896C42.2095 15.4598 42.396 15.5979 42.6021 15.697C42.849 15.8199 43.1059 15.92 43.3698 15.9959C43.6549 16.0805 43.9369 16.1712 44.2156 16.268C45.3325 16.6543 46.1495 17.1705 46.6667 17.8167C47.1839 18.4628 47.4428 19.3054 47.4433 20.3445C47.4523 20.9955 47.3367 21.642 47.1032 22.2463C46.8828 22.8046 46.5427 23.3034 46.1088 23.7047C45.6407 24.1286 45.0945 24.4493 44.5034 24.6472C43.8077 24.8803 43.0798 24.9934 42.3489 24.982C40.6854 24.982 39.1443 24.4689 37.7256 23.4426L39.1911 20.5799C39.6419 21.0092 40.1539 21.3634 40.7089 21.6302C41.1744 21.8523 41.6798 21.9697 42.1921 21.9749C42.7501 21.9749 43.1657 21.8419 43.439 21.5759C43.7124 21.3099 43.849 21.008 43.849 20.6701C43.8534 20.4859 43.8177 20.303 43.7445 20.1351C43.662 19.9691 43.5424 19.8263 43.3956 19.7185C43.1991 19.5725 42.985 19.4538 42.7589 19.3653C42.4968 19.256 42.1803 19.136 41.8079 19.003C41.3662 18.8578 40.9329 18.6975 40.508 18.5222C40.0961 18.3554 39.7132 18.1199 39.3744 17.8251C39.0341 17.5237 38.7602 17.1499 38.5713 16.7289C38.3682 16.2881 38.2664 15.7294 38.2659 15.0526C38.2578 14.4251 38.3676 13.802 38.589 13.2181C38.7927 12.6861 39.1019 12.2046 39.4966 11.8048C39.9062 11.3983 40.3934 11.0858 40.9268 10.8875C41.534 10.6622 42.1752 10.5517 42.82 10.5611C43.509 10.5663 44.1947 10.6608 44.8611 10.8424C45.5713 11.0298 46.2567 11.3065 46.9023 11.6664L45.5413 14.4411Z" fill="white" />
<path d="M52.1247 29.1898H48.916V15.0615H52.1247V16.1087C52.8098 15.2147 53.7435 14.7677 54.9258 14.7677C55.552 14.7625 56.172 14.8974 56.7433 15.163C57.2938 15.4188 57.7905 15.7837 58.2056 16.2374C58.6249 16.7002 58.9532 17.2434 59.1719 17.8365C59.4049 18.4638 59.5221 19.1308 59.5175 19.803C59.5232 20.4689 59.4059 21.1299 59.1719 21.7501C58.9512 22.3342 58.6264 22.8701 58.2145 23.3298C57.7993 23.7927 57.2955 24.1608 56.7353 24.4106C56.1751 24.6604 55.5708 24.7866 54.961 24.7809C53.8261 24.7809 52.8804 24.3768 52.124 23.5686L52.1247 29.1898ZM56.1637 19.8022C56.1654 19.5161 56.1146 19.2323 56.0141 18.9658C55.9167 18.7075 55.7687 18.4729 55.5795 18.2767C55.3875 18.0804 55.1621 17.9227 54.9146 17.8117C54.6585 17.6982 54.3832 17.6389 54.1047 17.6373C53.8262 17.6357 53.5503 17.6918 53.293 17.8024C53.0496 17.909 52.8293 18.0653 52.6453 18.262C52.4594 18.4624 52.3095 18.6955 52.2025 18.9503C52.0904 19.2138 52.033 19.4988 52.0342 19.7867C52.0322 20.0705 52.0865 20.3518 52.1935 20.613C52.2964 20.8653 52.4473 21.0936 52.6371 21.2843C52.8302 21.4772 53.0551 21.6327 53.3013 21.7431C53.5554 21.8597 53.8304 21.9192 54.1083 21.9175C54.3824 21.9195 54.654 21.8633 54.9064 21.7524C55.1495 21.6456 55.3695 21.4893 55.5533 21.2928C55.7378 21.0945 55.8877 20.8645 55.9961 20.613C56.1088 20.3587 56.167 20.0821 56.1667 19.8022H56.1637Z" fill="white" />
<path d="M60.9906 19.7933C60.9858 19.1119 61.121 18.4377 61.3864 17.8191C61.6476 17.2116 62.0227 16.6688 62.4882 16.2251C62.9808 15.7598 63.55 15.3981 64.1665 15.159C64.8476 14.8926 65.5676 14.7602 66.2922 14.7679C67.0095 14.7611 67.7223 14.8898 68.3983 15.148C69.0172 15.3831 69.5895 15.7416 70.0853 16.2047C70.5578 16.6511 70.9364 17.201 71.1958 17.8176C71.4646 18.4678 71.5996 19.1731 71.5916 19.8848C71.5996 20.5976 71.4615 21.3035 71.187 21.9521C70.9239 22.5663 70.5459 23.1154 70.0766 23.5649C69.5813 24.0315 69.0049 24.3875 68.3809 24.6123C67.6909 24.8647 66.9664 24.99 66.2377 24.983C65.5233 24.9907 64.8129 24.8653 64.1382 24.6123C63.524 24.3838 62.9589 24.0244 62.4765 23.5556C62.0113 23.0955 61.6403 22.5361 61.3872 21.913C61.1169 21.2447 60.9817 20.5222 60.9906 19.7933ZM64.2783 19.8309C64.2748 20.1335 64.3305 20.4336 64.4417 20.7116C64.5457 20.9689 64.6915 21.2041 64.8724 21.4062C65.0529 21.6062 65.2697 21.764 65.5093 21.87C66.0111 22.0921 66.574 22.0921 67.0758 21.87C67.3153 21.7639 67.5321 21.606 67.7127 21.4062C67.8934 21.2041 68.039 20.9689 68.1427 20.7116C68.2527 20.4404 68.3087 20.1472 68.3068 19.8512C68.3077 19.5608 68.2518 19.2735 68.1427 19.008C68.039 18.7505 67.8934 18.515 67.7127 18.3127C67.5318 18.1133 67.3151 17.9558 67.0758 17.8496C66.5742 17.6265 66.0109 17.6265 65.5093 17.8496C65.2699 17.9556 65.0532 18.1132 64.8724 18.3127C64.6929 18.5127 64.5472 18.7448 64.4417 18.9986C64.3314 19.26 64.2744 19.5438 64.2747 19.8309H64.2783Z" fill="white" />
<path d="M73.0645 15.2677H76.1107V16.809C76.4067 16.2786 76.8165 15.8346 77.3048 15.5154C77.7781 15.2161 78.3278 15.0664 78.954 15.0664H79.2152C79.3253 15.0681 79.4351 15.0803 79.5432 15.1028V18.2768C79.1355 18.0559 78.6858 17.9429 78.2306 17.947C77.524 17.947 76.9939 18.1764 76.6403 18.6352C76.2868 19.094 76.1103 19.7636 76.1107 20.6441V24.6812H73.0645V15.2677Z" fill="white" />
<path d="M85.3484 18.1602V24.6826H82.0943V18.1602H81.0156V15.4387H82.0943V12.6641H85.3484V15.4387H87.1999V18.1602H85.3484Z" fill="white" />
<path d="M88.3783 19.7933C88.3735 19.1119 88.5086 18.4377 88.774 17.8191C89.0352 17.2112 89.4108 16.6684 89.877 16.2251C90.3696 15.7598 90.9388 15.3981 91.5552 15.159C92.2362 14.8926 92.9561 14.7601 93.6806 14.7679C94.3978 14.761 95.1105 14.8897 95.7864 15.148C96.4054 15.3829 96.9776 15.7414 97.4732 16.2047C97.9459 16.6509 98.3244 17.2008 98.5835 17.8176C98.8523 18.4679 98.9873 19.1731 98.9792 19.8848C98.9873 20.5976 98.8492 21.3035 98.5748 21.9521C98.3119 22.5665 97.9339 23.1156 97.4645 23.5649C96.9695 24.0314 96.3934 24.3874 95.7697 24.6123C95.0798 24.8646 94.3554 24.99 93.6268 24.983C92.9122 24.9907 92.2018 24.8652 91.5268 24.6123C90.9131 24.3836 90.3483 24.0242 89.8661 23.5556C89.401 23.0955 89.0301 22.5361 88.7769 21.913C88.5059 21.2449 88.37 20.5224 88.3783 19.7933ZM91.6655 19.8309C91.6617 20.1336 91.7174 20.4337 91.8289 20.7116C91.9326 20.9689 92.0782 21.2041 92.2588 21.4062C92.4393 21.6062 92.6561 21.7641 92.8956 21.87C93.3973 22.0921 93.9602 22.0921 94.4619 21.87C94.7015 21.7641 94.9182 21.6062 95.0987 21.4062C95.2796 21.2042 95.4254 20.9689 95.5293 20.7116C95.6392 20.4403 95.6948 20.1472 95.6927 19.8512C95.6939 19.5609 95.6382 19.2736 95.5293 19.008C95.4254 18.7505 95.2796 18.515 95.0987 18.3127C94.918 18.1132 94.7013 17.9556 94.4619 17.8496C93.9604 17.6265 93.3972 17.6265 92.8956 17.8496C92.6562 17.9556 92.4395 18.1132 92.2588 18.3127C92.0796 18.5127 91.9341 18.7448 91.8289 18.9986C91.7195 19.2602 91.6637 19.544 91.6655 19.8309Z" fill="white" />
<path d="M100.747 15.2687H103.998V16.4615C104.442 15.9109 104.891 15.5409 105.346 15.3515C105.855 15.1519 106.398 15.0554 106.944 15.0674C107.591 15.0674 108.145 15.1742 108.606 15.3879C109.06 15.5969 109.462 15.9074 109.783 16.2966C110.04 16.6039 110.225 16.9679 110.322 17.3602C110.422 17.7992 110.47 18.2492 110.465 18.7001V24.6812H107.214V19.9293C107.222 19.5505 107.188 19.1721 107.115 18.8007C107.064 18.5423 106.943 18.3038 106.765 18.1126C106.629 17.9723 106.463 17.8663 106.28 17.8029C106.094 17.741 105.9 17.7102 105.705 17.7116C105.154 17.7116 104.732 17.8798 104.438 18.2163C104.145 18.5527 103.999 19.0327 103.998 19.656V24.6812H100.747V15.2687Z" fill="white" />
<path d="M122.243 15.3171V23.9154C122.247 24.3786 122.218 24.8415 122.157 25.3004C122.108 25.6678 122.027 26.0298 121.914 26.3818C121.768 26.7905 121.547 27.1662 121.263 27.4883C120.955 27.8411 120.594 28.1415 120.196 28.3785C119.753 28.6418 119.277 28.8415 118.782 28.9719C117.592 29.2775 116.346 29.259 115.165 28.918C114.623 28.7564 114.11 28.5044 113.646 28.172C113.228 27.8706 112.866 27.4926 112.579 27.0565C112.304 26.6362 112.115 26.1617 112.024 25.6624H115.564C115.783 26.274 116.28 26.5799 117.055 26.5799C117.715 26.5799 118.221 26.3881 118.574 26.0046C118.926 25.6211 119.102 25.0874 119.103 24.4033V23.52C118.896 23.7274 118.672 23.9167 118.435 24.0861C118.231 24.2309 118.013 24.3545 117.785 24.4549C117.562 24.5514 117.329 24.621 117.091 24.6621C116.826 24.7057 116.559 24.7267 116.292 24.7251C115.692 24.732 115.096 24.6156 114.539 24.3829C114.018 24.1658 113.546 23.8386 113.153 23.422C112.76 23.0055 112.455 22.5088 112.258 21.9635C112.037 21.3573 111.929 20.7139 111.937 20.0662C111.931 19.3916 112.048 18.722 112.284 18.0931C112.503 17.5116 112.824 16.977 113.23 16.5161C113.629 16.0653 114.114 15.7038 114.653 15.4537C115.218 15.1922 115.83 15.0602 116.449 15.0666C117.501 15.0666 118.386 15.4744 119.103 16.29V15.3171H122.243ZM115.199 19.8864C115.194 20.4495 115.403 20.9921 115.78 21.3974C115.962 21.5911 116.181 21.7441 116.422 21.8466C116.677 21.9562 116.951 22.0114 117.227 22.009C117.499 22.0105 117.767 21.9552 118.017 21.8466C118.259 21.7439 118.477 21.591 118.659 21.3974C118.841 21.2008 118.988 20.9724 119.093 20.7227C119.201 20.4629 119.257 20.1828 119.257 19.8997C119.257 19.6165 119.201 19.3364 119.093 19.0766C118.986 18.829 118.838 18.6034 118.653 18.4111C118.467 18.2186 118.246 18.066 118.003 17.9618C117.758 17.8544 117.496 17.7991 117.23 17.7994C116.961 17.7979 116.695 17.8562 116.45 17.9702C116.212 18.0805 115.995 18.2328 115.808 18.4202C115.623 18.6081 115.474 18.8309 115.369 19.0766C115.257 19.3308 115.199 19.607 115.199 19.8864Z" fill="white" />
<path d="M123.717 19.7933C123.713 19.1119 123.852 18.4378 124.124 17.8191C124.393 17.2117 124.778 16.669 125.256 16.2251C125.763 15.7598 126.348 15.3981 126.981 15.159C127.681 14.8926 128.422 14.7602 129.166 14.7679C129.904 14.7611 130.636 14.8897 131.331 15.148C131.967 15.3829 132.555 15.7414 133.065 16.2047C133.55 16.6511 133.939 17.201 134.206 17.8176C134.482 18.4678 134.621 19.1731 134.613 19.8848C134.621 20.5976 134.479 21.3035 134.197 21.9521C133.926 22.5663 133.538 23.1154 133.056 23.5649C132.547 24.0316 131.954 24.3875 131.313 24.6123C130.604 24.8647 129.859 24.9901 129.11 24.983C128.376 24.9907 127.646 24.8652 126.953 24.6123C126.322 24.3836 125.741 24.0242 125.245 23.5556C124.766 23.0957 124.383 22.5363 124.122 21.913C123.845 21.2444 123.708 20.5219 123.717 19.7933ZM127.096 19.8309C127.092 20.1336 127.15 20.4338 127.265 20.7116C127.371 20.969 127.521 21.2043 127.707 21.4062C127.892 21.6062 128.115 21.7641 128.361 21.87C128.877 22.0921 129.455 22.0921 129.971 21.87C130.217 21.7641 130.44 21.6062 130.626 21.4062C130.811 21.2039 130.961 20.9688 131.068 20.7116C131.181 20.4402 131.238 20.1471 131.236 19.8512C131.237 19.5609 131.18 19.2737 131.068 19.008C130.961 18.7506 130.811 18.5152 130.626 18.3127C130.44 18.1132 130.217 17.9556 129.971 17.8496C129.456 17.6265 128.877 17.6265 128.361 17.8496C128.115 17.9554 127.891 18.113 127.705 18.3127C127.521 18.5125 127.371 18.7447 127.263 18.9986C127.151 19.2602 127.094 19.5441 127.096 19.8309Z" fill="white" />
<path fill-rule="evenodd" clip-rule="evenodd" d="M17.0711 2.57653C18.7122 2.3461 20.5409 2.82356 22.3276 4.30476C23.9513 5.65086 24.5019 7.39725 24.5199 8.95209C24.5372 10.4471 24.071 11.7982 23.6143 12.634L23.5458 12.7593L22.5446 14.0165C23.4173 14.2371 24.3225 14.6506 25.1711 15.354C26.6829 16.6073 27.418 18.2231 27.6441 19.6872C27.7564 20.414 27.7467 21.1226 27.6344 21.7556C27.527 22.3612 27.3037 23.017 26.8885 23.5383L17.1199 35.8045L17.0763 35.8513C16.421 36.5539 15.2735 37.3061 13.8069 37.5081C12.2736 37.7193 10.5309 37.3091 8.81763 35.8888C7.03498 34.4109 6.39501 32.62 6.46468 30.9454C6.53017 29.3714 7.21214 28.0393 7.83781 27.2537L8.73787 26.1235C7.78131 25.9785 6.84535 25.5617 5.97414 24.8395C4.00419 23.2064 3.20434 21.3344 3.21694 19.5477C3.22874 17.875 3.95149 16.4945 4.65331 15.6817L13.4793 4.59907C14.2251 3.66259 15.4858 2.79911 17.0711 2.57653ZM15.1803 23.2637C15.7619 22.6478 16.2437 22.0207 16.6017 21.4789L20.0321 17.1713C20.7681 17.0233 22.0678 17.0308 23.1327 17.9136C23.9585 18.5983 24.3351 19.4494 24.4511 20.2005C24.5099 20.5812 24.4982 20.9172 24.4536 21.1683C24.4152 21.3848 24.365 21.4739 24.3655 21.4766L14.6995 33.6139C14.474 33.8369 13.9963 34.1541 13.3745 34.2398C12.785 34.321 11.9251 34.2155 10.856 33.3292C9.8563 32.5004 9.66838 31.7057 9.69419 31.0852C9.72419 30.3641 10.0611 29.6918 10.3465 29.3334L15.1803 23.2637ZM12.7637 21.0683C12.2609 21.5872 11.6818 22.0724 11.0744 22.413C10.4966 22.7371 9.96682 22.8892 9.49705 22.8841C9.05702 22.8793 8.56434 22.7374 8.01253 22.2799C6.69837 21.1904 6.44467 20.2253 6.44928 19.5715C6.45453 18.827 6.79978 18.1789 7.08797 17.8513L7.1145 17.8211L15.988 6.67881C16.2614 6.3355 16.8057 5.94285 17.5118 5.84372C18.162 5.75242 19.1111 5.88765 20.2892 6.86432C21.0373 7.48452 21.2789 8.22988 21.2877 8.99093C21.2964 9.74448 21.0674 10.471 20.8492 10.9155L12.7637 21.0683Z" fill="white" />
</symbol><symbol viewBox="0 0 63 20" fill="none" id="marq-google">
<path d="M15.4193 7.63442H8.08456V9.63115H13.3004C13.0396 12.4447 10.4969 13.6851 8.11715 13.6851C5.05285 13.6851 2.37973 11.4464 2.37973 8.33025C2.37973 5.27466 4.92245 2.91489 8.11715 2.91489C10.5947 2.91489 12.029 4.36705 12.029 4.36705L13.5286 2.91489C13.5286 2.91489 11.5726 0.918161 8.01936 0.918161C3.48809 0.887908 0 4.42756 0 8.26975C0 12.0212 3.2925 15.6818 8.14975 15.6818C12.4202 15.6818 15.5497 12.9893 15.5497 8.96558C15.5497 8.11848 15.4193 7.63442 15.4193 7.63442Z" fill="white" fill-opacity="0.6" />
<path fill-rule="evenodd" clip-rule="evenodd" d="M16.2344 10.8719C16.2344 8.33059 18.3859 6.15234 21.385 6.15234C23.8625 6.15234 26.5357 7.78603 26.5683 10.9324C26.5683 13.7157 24.2863 15.6822 21.4502 15.6822C18.3207 15.6822 16.2344 13.4737 16.2344 10.8719ZM24.2864 10.9328C24.2864 9.17809 22.8846 8.05871 21.4177 8.05871C19.7551 8.05871 18.4838 9.26885 18.5164 10.9025C18.5164 12.5967 19.7877 13.8069 21.4177 13.8069C22.9172 13.8069 24.2864 12.6875 24.2864 10.9328Z" fill="white" fill-opacity="0.6" />
<path fill-rule="evenodd" clip-rule="evenodd" d="M27.4492 10.8719C27.4492 8.33059 29.6008 6.15234 32.5999 6.15234C35.0774 6.15234 37.7505 7.78603 37.7831 10.9324C37.7831 13.7157 35.5012 15.6822 32.6651 15.6822C29.5356 15.6822 27.4492 13.4737 27.4492 10.8719ZM35.5011 10.9328C35.5011 9.17809 34.0993 8.05871 32.6324 8.05871C30.9698 8.05871 29.6985 9.26885 29.7311 10.9025C29.7311 12.5967 31.0024 13.8069 32.6324 13.8069C34.1319 13.8069 35.5011 12.6875 35.5011 10.9328Z" fill="white" fill-opacity="0.6" />
<path fill-rule="evenodd" clip-rule="evenodd" d="M38.6621 10.9314C38.6621 8.4204 40.8136 6.18164 43.5846 6.18164C44.7907 6.18164 45.7035 6.60519 46.2903 7.27076V6.45392H48.4418V15.0156C48.4418 18.3738 46.3555 19.9772 43.6172 19.9772C41.107 19.9772 39.7053 18.5553 39.0207 17.1939L41.0092 16.4376C41.3026 17.0426 42.085 18.1317 43.6498 18.1317C45.2797 18.1317 46.3555 17.1334 46.3555 15.4997V14.5618C45.7361 15.1972 44.9863 15.7115 43.5194 15.7115C41.1722 15.7115 38.6621 13.7753 38.6621 10.9314ZM46.5185 10.9611C46.5185 9.14591 45.1167 8.05679 43.7802 8.05679C42.3458 8.05679 40.9441 9.11566 40.9115 10.9914C40.9115 12.7158 42.2806 13.8352 43.7476 13.8352C45.1493 13.8352 46.5185 12.8368 46.5185 10.9611Z" fill="white" fill-opacity="0.6" />
<path fill-rule="evenodd" clip-rule="evenodd" d="M53.3008 10.9021C53.3008 8.05831 55.4849 6.15234 58.0928 6.15234C60.114 6.15234 61.6461 7.42299 62.3307 8.87515L62.6893 9.66174L55.8109 12.324C56.2347 13.0501 56.8867 13.7762 58.321 13.7762C59.5924 13.7762 60.3748 13.1409 60.8312 12.4753L62.6241 13.5947C61.8417 14.5628 60.4726 15.6822 58.321 15.6822C55.7457 15.6822 53.3008 13.8972 53.3008 10.9021ZM60.0815 9.0266C59.7555 8.45178 59.1035 7.99798 58.1582 7.99798C56.6912 7.99798 55.2569 9.41989 55.5177 10.8115L60.0815 9.0266Z" fill="white" fill-opacity="0.6" />
<path d="M50.0391 15.4087H52.2884V1.37109H50.0391V15.4087Z" fill="white" fill-opacity="0.6" />
</symbol><symbol viewBox="0 0 64 16" fill="none" id="marq-netflix">
<path fill-rule="evenodd" clip-rule="evenodd" d="M14.3485 5.97594C14.8799 5.97594 15.5515 5.96095 16.207 5.94632L16.2071 5.94632C16.8321 5.93236 17.4426 5.91874 17.9032 5.91874V8.32141C16.7393 8.32141 15.3551 8.32141 14.3485 8.37862V11.954C14.8387 11.9267 15.3321 11.8965 15.8277 11.8662H15.8277C16.8904 11.8012 17.9631 11.7356 19.0357 11.6966V14.0135L11.706 14.5283V0.3125H19.0357V2.71517H14.3485V5.97594ZM7.3384 14.9317H7.33839L7.33832 14.9317C6.97622 14.966 6.60861 15.0007 6.2322 15.0435L3.21223 6.9774V15.3868C2.26849 15.4726 1.41912 15.587 0.506836 15.73V0.312845H3.02348L6.45241 9.06544V0.312845H9.12634V14.7289C8.53551 14.8184 7.94468 14.8743 7.3384 14.9317ZM26.1145 2.74378H28.8514C28.8514 2.74378 28.8514 0.3125 28.8828 0.3125H20.7352V2.74378H23.472V13.8418C24.3214 13.8132 25.2337 13.8132 26.1145 13.8132V2.74378ZM33.1605 5.80432H36.7782V8.207H33.1605V13.6702H30.5495V0.3125H37.9422V2.71517H33.1605V5.80432ZM44.9953 11.6686C44.0855 11.6199 43.1688 11.5709 42.252 11.5536V0.3125H39.6095V13.8132C42.0318 13.8704 44.3912 13.9849 46.7505 14.1279V11.7538C46.1697 11.7313 45.584 11.7 44.9954 11.6686L44.9953 11.6686L44.9953 11.6686ZM48.984 14.2995C49.2783 14.3193 49.5764 14.3357 49.877 14.3522C50.4438 14.3834 51.0194 14.415 51.595 14.4711V0.3125H48.984V14.2995ZM59.8062 7.63493L63.1722 0.3125H60.2466L58.3906 4.34556L56.6604 0.3125H53.8292L56.9121 7.54912L53.5146 14.5855C53.8921 14.6313 54.2696 14.6679 54.6471 14.7045C55.2133 14.7594 55.7796 14.8143 56.3458 14.9002L58.2962 10.8099L60.1837 15.272C60.5362 15.3221 60.8849 15.3757 61.2324 15.4291C61.8773 15.5282 62.5181 15.6267 63.1722 15.701L59.8062 7.63493Z" fill="white" fill-opacity="0.6" />
</symbol><symbol viewBox="0 0 72 20" fill="none" id="marq-slack">
<path d="M12.9051 1.67449C12.6182 0.806527 11.6139 0.339163 10.6814 0.606228C9.74888 0.873293 9.24675 1.80802 9.53368 2.67598L14.1246 15.8289C14.4474 16.6301 15.3799 17.0975 16.2766 16.8638C17.2091 16.5967 17.7829 15.6954 17.496 14.8274C17.496 14.794 12.9051 1.67449 12.9051 1.67449Z" fill="white" fill-opacity="0.6" />
<path d="M5.80355 3.84441C5.51662 2.97645 4.51237 2.50909 3.57984 2.77615C2.64732 3.04321 2.14519 3.97794 2.43212 4.8459L7.02301 17.9988C7.34581 18.8 8.27833 19.2674 9.17499 19.0337C10.1075 18.7667 10.6814 17.8653 10.3944 16.9974C10.3944 16.964 5.80355 3.84441 5.80355 3.84441Z" fill="white" fill-opacity="0.6" />
<path d="M18.7157 12.5919C19.6482 12.3248 20.1503 11.3901 19.8634 10.5221C19.5765 9.65418 18.5722 9.18682 17.6397 9.45388L3.47248 13.6935C2.61169 13.994 2.10956 14.8619 2.36062 15.6965C2.64755 16.5645 3.61594 17.0986 4.54847 16.8316C4.6202 16.8316 18.7157 12.5919 18.7157 12.5919Z" fill="white" fill-opacity="0.6" />
<path d="M6.41264 16.2979C7.34516 16.0308 8.52875 15.6636 9.78407 15.263C9.49714 14.3951 9.10261 13.2934 8.67222 12.125L5.30078 13.1599L6.41264 16.2979Z" fill="white" fill-opacity="0.6" />
<path d="M13.5503 14.126C14.8415 13.7254 16.0251 13.3916 16.9218 13.0911C16.6348 12.2232 16.2403 11.1215 15.8099 9.95312L12.4385 10.988L13.5503 14.126Z" fill="white" fill-opacity="0.6" />
<path d="M16.3839 5.94736C17.3164 5.6803 17.8186 4.74557 17.5316 3.87761C17.2447 3.00965 16.2404 2.54229 15.3079 2.80935L1.17658 7.08239C0.315788 7.38284 -0.186341 8.2508 0.0647239 9.08538C0.351655 9.98672 1.32005 10.5208 2.25257 10.2204C2.28844 10.2204 16.3839 5.94736 16.3839 5.94736Z" fill="white" fill-opacity="0.6" />
<path d="M4.11772 9.65336C5.05024 9.38629 6.23383 9.01908 7.48915 8.61848C7.05876 7.41669 6.70009 6.31505 6.3773 5.48047L3.00586 6.51534L4.11772 9.65336Z" fill="white" fill-opacity="0.6" />
<path d="M11.2193 7.51664C12.5105 7.11604 13.6941 6.78221 14.5907 6.48176C14.1603 5.27997 13.8017 4.17833 13.4789 3.34375L10.1074 4.37863L11.2193 7.51664Z" fill="white" fill-opacity="0.6" />
<path d="M33.0258 5.14726C33.6356 5.41432 33.7073 5.58124 33.2052 6.4492C32.703 7.35054 32.5954 7.38393 31.9498 7.15024C31.1608 6.8498 30.1924 6.61611 29.5468 6.61611C28.5067 6.61611 27.8252 6.94995 27.8252 7.48408C27.8252 9.22 33.8149 8.28527 33.8149 12.0242C33.8149 13.8936 32.0933 15.1288 29.5109 15.1288C28.148 15.1288 26.4623 14.6948 25.3146 14.1607C24.7407 13.8936 24.7048 13.7267 25.207 12.8254C25.6374 12.0576 25.7808 11.9574 26.3905 12.1911C27.3948 12.5917 28.6143 12.8921 29.4751 12.8921C30.4434 12.8921 31.0532 12.5249 31.0532 11.9908C31.0532 10.2883 24.9559 11.0895 24.9559 7.48408C24.9559 5.58124 26.6775 4.2793 29.224 4.2793C30.4434 4.37945 31.9857 4.71328 33.0258 5.14726Z" fill="white" fill-opacity="0.6" />
<path d="M37.8674 0.740026V14.6274C37.8674 14.8277 37.6164 15.0614 37.2936 15.0614H35.7155C35.3568 15.0614 35.1416 14.8277 35.1416 14.6274V0.740026C35.1416 0.0389811 35.3568 0.005598 36.5045 0.005598C37.7957 -0.0277851 37.8674 0.0723642 37.8674 0.740026Z" fill="white" fill-opacity="0.6" />
<path fill-rule="evenodd" clip-rule="evenodd" d="M48.9866 14.494V8.51841C48.9866 5.91453 47.0856 4.37891 44.0729 4.37891C42.7099 4.37891 41.2036 4.7795 40.1276 5.44717C39.5537 5.781 39.5537 5.94791 40.1276 6.78249C40.7373 7.61707 40.8449 7.65045 41.4188 7.35C42.1361 6.94941 43.0327 6.68234 43.7859 6.68234C45.3641 6.68234 46.2966 7.35 46.2966 8.45164V9.15269C45.5434 8.85224 44.6109 8.68533 43.6066 8.68533C40.9166 8.68533 39.1592 10.0207 39.1592 12.0236C39.1592 13.8931 40.7373 15.1616 43.0686 15.1616C44.2881 15.1616 45.5075 14.6943 46.3324 13.8263L46.2966 14.4606C46.2607 14.7944 46.5118 15.0281 46.8704 15.0281H48.4127C48.7355 15.0281 48.9866 14.8278 48.9866 14.494ZM43.3915 13.1584C42.4231 13.1584 41.7776 12.691 41.7776 11.99C41.7776 11.122 42.7459 10.4543 44.1806 10.4543C44.8621 10.4543 45.6511 10.5545 46.2608 10.7882V11.7229C45.6511 12.6242 44.5751 13.1584 43.3915 13.1584Z" fill="white" fill-opacity="0.6" />
<path d="M59.6385 5.18027C60.2123 5.48071 60.2123 5.64763 59.6026 6.54897C59.0287 7.38355 58.9211 7.45032 58.2755 7.14987C57.8093 6.91619 57.0202 6.71589 56.4105 6.71589C54.4378 6.71589 53.1467 7.91768 53.1467 9.75375C53.1467 11.6566 54.4378 12.9251 56.4105 12.9251C57.092 12.9251 57.9527 12.6915 58.4907 12.391C59.0646 12.0906 59.1722 12.0906 59.7819 12.9251C60.3199 13.693 60.3199 13.8599 59.8178 14.1937C58.957 14.7612 57.5582 15.1952 56.3388 15.1952C52.7163 15.1952 50.2773 13.0253 50.2773 9.78713C50.2773 6.54897 52.7163 4.41245 56.3746 4.41245C57.5223 4.37907 58.8135 4.7129 59.6385 5.18027Z" fill="white" fill-opacity="0.6" />
<path d="M71.5104 13.7263C71.9766 14.2604 71.7973 14.4607 70.6496 14.828C69.5018 15.2286 69.3225 15.1952 68.928 14.6944L65.6641 10.6551L64.1936 11.957V14.5943C64.1936 14.7946 63.9426 15.0283 63.6198 15.0283H62.0416C61.683 15.0283 61.4678 14.7946 61.4678 14.5943V0.740288C61.4678 0.0392425 61.683 0.00585938 62.8307 0.00585938C64.1577 0.00585938 64.1936 0.106009 64.1936 0.740288V8.6187L68.641 4.64611C69.1432 4.21213 69.3942 4.24551 70.2909 4.77964C71.2593 5.34716 71.331 5.51407 70.8648 5.94805L67.5651 8.95253L71.5104 13.7263Z" fill="white" fill-opacity="0.6" />
</symbol><symbol viewBox="0 0 14 14" id="plus"><path d="M14 8H8v6H6V8H0V6h6V0h2v6h6v2Z" /></symbol><symbol viewBox="0 0 79 63" fill="none" id="quotes">
<path d="M25.7809 29.4618C28.85 30.8206 31.244 32.8588 32.9627 35.5765C34.6814 38.2941 35.5408 41.5059 35.5408 45.2118C35.5408 50.5235 33.8834 54.8471 30.5688 58.1823C27.2541 61.3941 23.0186 63 17.8625 63C12.7063 63 8.40948 61.3323 4.97203 57.9971C1.65734 54.6618 0 50.4 0 45.2118C0 42.7412 0.306915 40.2706 0.920746 37.8C1.53458 35.3294 2.885 31.6235 4.97203 26.6823L15.6527 0H33.8834L25.7809 29.4618ZM69.2401 29.4618C72.3092 30.8206 74.7032 32.8588 76.4219 35.5765C78.1406 38.2941 79 41.5059 79 45.2118C79 50.5235 77.3427 54.8471 74.028 58.1823C70.7133 61.3941 66.4779 63 61.3217 63C56.1655 63 51.8687 61.3323 48.4312 57.9971C45.1166 54.6618 43.4592 50.4 43.4592 45.2118C43.4592 42.7412 43.7661 40.2706 44.38 37.8C44.9938 35.3294 46.3442 31.6235 48.4312 26.6823L59.1119 0H77.3427L69.2401 29.4618Z" fill="#007DFF" />
</symbol></defs></svg>