<svg width="141" height="41" viewBox="0 0 141 41" fill="none" xmlns="http://www.w3.org/2000/svg">
<path d="M6.8408 20.5276L22.335 5.03536L17.299 0L0 17.2968V23.7032L17.299 41L22.3035 35.9962L6.8408 20.5276Z" fill="white"/>
<path d="M34.8132 17.4656L28.8027 11.4524L24.3776 7.02539L10.9053 20.5038L15.3303 24.9308L24.3776 33.9742L28.7869 29.5709L19.7396 20.5195L24.3934 15.8637L33.4407 24.9071L34.8132 23.534V17.4656Z" fill="white"/>
<path d="M137.075 17.89H140.345V15.39H137.075V11H134.425V15.39H132.655V17.89H134.425V23.28C134.421 23.8756 134.599 24.4581 134.935 24.95C135.301 25.4239 135.724 25.8505 136.195 26.22C136.763 26.5889 137.428 26.7804 138.105 26.77H140.315V24.27H138.125C137.755 24.27 137.255 23.68 137.125 23.39C137.118 23.3402 137.118 23.2898 137.125 23.24L137.075 17.89ZM127.985 20.01H123.465V18.77C123.454 18.7172 123.454 18.6628 123.465 18.61C123.705 18.21 124.235 17.76 124.465 17.76H126.865C126.917 17.745 126.973 17.745 127.025 17.76C127.374 17.9635 127.671 18.244 127.895 18.58V18.74L127.985 20.01ZM130.625 22.36V18.71C130.647 18.1365 130.482 17.5713 130.155 17.1C129.781 16.6303 129.355 16.2043 128.885 15.83C128.315 15.4426 127.644 15.2306 126.955 15.22H124.525C123.839 15.2217 123.168 15.4232 122.595 15.8C122.133 16.1796 121.711 16.6051 121.335 17.07C120.996 17.5377 120.817 18.1024 120.825 18.68V23.44C120.815 24.024 120.994 24.5955 121.335 25.07C121.708 25.5372 122.131 25.963 122.595 26.34C123.17 26.7108 123.841 26.9054 124.525 26.9H127.005C127.685 26.8733 128.345 26.6625 128.915 26.29C129.607 25.7435 130.181 25.0633 130.605 24.29L128.145 23.56L128.065 23.66C127.905 23.85 127.355 24.35 127.065 24.35H124.505C124.245 24.35 123.715 23.9 123.505 23.5C123.494 23.4573 123.494 23.4127 123.505 23.37V22.36H130.625ZM117.755 26.79V18.71C117.773 18.1356 117.605 17.5707 117.275 17.1C116.903 16.628 116.477 16.2017 116.005 15.83C115.436 15.4519 114.768 15.2501 114.085 15.25H112.085C111.469 15.3229 110.891 15.5809 110.425 15.99L110.295 15.39H107.755L108.015 17.74V26.74H110.655V18.85C111.005 18.48 111.715 17.76 112.215 17.76H114.065C114.145 17.76 114.255 17.76 114.275 17.76C114.605 17.97 114.885 18.2499 115.095 18.58C115.108 18.6326 115.108 18.6874 115.095 18.74V26.74L117.755 26.79Z" fill="white"/>
<path d="M97.6654 18.79C97.6556 18.7371 97.6556 18.6829 97.6654 18.63C97.885 18.2853 98.1832 17.9974 98.5354 17.79C98.5776 17.7763 98.6231 17.7763 98.6654 17.79H101.095C101.137 17.7747 101.183 17.7747 101.225 17.79C101.573 18.007 101.873 18.2928 102.105 18.63C102.112 18.6831 102.112 18.7369 102.105 18.79V23.6C102.105 23.81 101.475 24.23 101.235 24.36C101.189 24.3946 101.133 24.4154 101.075 24.42H98.6454C98.5926 24.4311 98.5381 24.4311 98.4854 24.42C98.1754 24.24 97.6154 23.84 97.6154 23.63L97.6654 18.79ZM104.755 23.47V18.71C104.785 18.1386 104.627 17.5731 104.305 17.1C103.935 16.6304 103.512 16.2044 103.045 15.83C102.487 15.45 101.831 15.2383 101.155 15.22H98.6754C97.9956 15.2215 97.3312 15.4232 96.7654 15.8C96.2898 16.1744 95.8571 16.6003 95.4754 17.07C95.1536 17.5431 94.9956 18.1086 95.0254 18.68V23.44C94.9956 24.0114 95.1536 24.5769 95.4754 25.05C95.8489 25.5386 96.2785 25.9817 96.7554 26.37C97.3232 26.7403 97.9875 26.935 98.6654 26.93H101.145C101.83 26.9354 102.5 26.7408 103.075 26.37C103.545 25.9915 103.968 25.5585 104.335 25.08C104.657 24.6069 104.815 24.0414 104.785 23.47H104.755ZM93.5254 17.82C93.1287 17.0774 92.5801 16.4267 91.9154 15.91C91.3377 15.4794 90.6359 15.2478 89.9154 15.25H88.3354C87.7083 15.334 87.1202 15.6019 86.6454 16.02L86.5054 15.39H83.9454L84.1554 17.74V26.74H86.8054V18.9C87.1154 18.5 87.8054 17.76 88.4154 17.76H89.8354C90.3354 17.76 90.8354 18.34 91.0254 18.55L93.5254 17.82ZM78.4454 23.36C78.4585 23.4125 78.4585 23.4675 78.4454 23.52C78.2315 23.8591 77.9445 24.1461 77.6054 24.36C77.557 24.3913 77.5024 24.4118 77.4454 24.42H75.5954C74.9563 24.1493 74.3857 23.7394 73.9254 23.22V18.92C74.3755 18.4123 74.9368 18.0154 75.5654 17.76H77.3854C77.4654 17.76 77.5454 17.76 77.5754 17.76C77.9154 17.9854 78.2021 18.2823 78.4154 18.63C78.426 18.6727 78.426 18.7173 78.4154 18.76L78.4454 23.36ZM81.0854 23.36V18.74C81.1043 18.1561 80.9361 17.5815 80.6054 17.1C80.2409 16.619 79.8176 16.1857 79.3454 15.81C78.7776 15.4397 78.1132 15.245 77.4354 15.25H75.4354C74.8657 15.2913 74.3219 15.5039 73.8754 15.86V11H71.2354V24.44L71.0254 26.79H73.6354L73.7554 26.22C74.2377 26.6366 74.8401 26.8888 75.4754 26.94H77.4754C78.1557 26.9415 78.8208 26.7395 79.3854 26.36C79.8578 25.9807 80.281 25.544 80.6454 25.06C80.9748 24.5779 81.1429 24.0037 81.1254 23.42L81.0854 23.36ZM69.5554 15.42H66.7554L64.0654 23.15L61.3954 15.42H58.3954L62.5954 26.82H62.8354L61.2454 31.1H63.9154L69.5554 15.42ZM50.0354 23.42V18.72C50.0389 18.6619 50.0598 18.6061 50.0954 18.56C50.3067 18.2397 50.5956 17.9783 50.9354 17.8C50.9851 17.7715 51.0392 17.7512 51.0954 17.74H53.6554C53.9254 17.74 54.4754 18.24 54.6554 18.43L54.7354 18.53L57.1954 17.8C56.7939 17.0089 56.2115 16.3237 55.4954 15.8C54.9301 15.426 54.2727 15.215 53.5954 15.19H51.0854C50.4041 15.183 49.7361 15.3779 49.1654 15.75C48.6903 16.1258 48.2637 16.5591 47.8954 17.04C47.5657 17.5107 47.3973 18.0756 47.4154 18.65V23.41C47.3973 23.9844 47.5657 24.5493 47.8954 25.02C48.2637 25.5009 48.6903 25.9342 49.1654 26.31C49.7361 26.6821 50.4041 26.877 51.0854 26.87H53.6254C54.3024 26.8435 54.9594 26.6326 55.5254 26.26C56.2197 25.7161 56.795 25.0354 57.2154 24.26L54.7554 23.63L54.6754 23.73C54.5154 23.92 53.9554 24.42 53.6754 24.42H51.0554C50.9992 24.4088 50.9451 24.3885 50.8954 24.36C50.5557 24.1817 50.2667 23.9202 50.0554 23.6C50.0198 23.5539 49.9989 23.4982 49.9954 23.44" fill="white"/>
</svg>
