<svg width="320" height="322" viewBox="0 0 320 322" fill="none" xmlns="http://www.w3.org/2000/svg"><g opacity=".1"><path d="M213.948 39.156H104.175c-35.78 0-64.784 28.79-64.784 64.302v113.708c0 35.512 29.005 64.301 64.784 64.301h109.773c35.779 0 64.784-28.789 64.784-64.301V103.458c0-35.513-29.005-64.302-64.784-64.302Z" fill="url(#a)"/><path d="M61.603 128.149h64.78l3.134-58.526s21.85-30.903 77.383-29.572l-11.283-16.14s-30.384-44.924-62.985-11.617c-32.6 33.307-31.659 31.343-43.666 50.666-12.007 19.324-27.362 65.189-27.362 65.189Z" fill="url(#b)"/><path d="M189.987 88.018v64.34l58.925 3.113s31.114 21.702 29.773 76.858l16.251-11.206s45.231-30.178 11.696-62.558c-33.534-32.379-31.557-31.445-51.012-43.371-19.455-11.925-65.633-27.176-65.633-27.176Z" fill="url(#c)"/><path d="M253.781 193.359h-64.779l-3.134 58.526s-21.85 30.903-77.383 29.571l11.283 16.142s30.384 44.923 62.984 11.616c32.601-33.307 31.66-31.343 43.667-50.667 12.007-19.323 27.362-65.188 27.362-65.188Z" fill="url(#d)"/><path d="M129.023 254.357v-64.34l-58.925-3.113s-31.114-21.702-29.773-76.858l-16.252 11.206s-45.23 30.178-11.695 62.558c33.534 32.379 31.556 31.445 51.012 43.371 19.455 11.925 65.633 27.176 65.633 27.176Z" fill="url(#e)"/><path d="M164.177 58.738h-7.74c-17.89 0-32.392 14.395-32.392 32.151v143.743c0 17.757 14.502 32.151 32.392 32.151h7.74c17.889 0 32.392-14.394 32.392-32.151V90.889c0-17.756-14.503-32.15-32.392-32.15Z" fill="#fff"/><path d="M251.636 126.754c7.414 0 13.425 5.955 13.425 13.335v45.346c0 7.364-5.989 13.334-13.425 13.334H68.972c-7.415 0-13.425-5.954-13.425-13.334v-45.346c0-7.365 5.988-13.335 13.425-13.335" fill="#fff"/><path d="M112.65 163.199h27.064l7.154-14.436 6.587 33.067 11.006-53.547 9.226 44.459 5.695-10.751 27.632.833" stroke="#601D8C"/></g><defs><linearGradient id="a" x1="12006.5" y1="39.156" x2="12006.5" y2="24270.3" gradientUnits="userSpaceOnUse"><stop stop-color="#355CC1"/><stop offset=".052" stop-color="#345ABE"/><stop offset="1" stop-color="#193A8E"/></linearGradient><linearGradient id="b" x1="7326.42" y1="0" x2="7326.42" y2="12814.9" gradientUnits="userSpaceOnUse"><stop stop-color="#24ABC1"/><stop offset="1" stop-color="#1A91A4"/></linearGradient><linearGradient id="c" x1="319.01" y1="7303.61" x2="-12583.3" y2="7303.61" gradientUnits="userSpaceOnUse"><stop stop-color="#24ABC1"/><stop offset="1" stop-color="#1A91A4"/></linearGradient><linearGradient id="d" x1="-7011.03" y1="321.508" x2="-7011.03" y2="-12493.4" gradientUnits="userSpaceOnUse"><stop stop-color="#24ABC1"/><stop offset="1" stop-color="#1A91A4"/></linearGradient><linearGradient id="e" x1="0" y1="-6961.24" x2="12902.3" y2="-6961.24" gradientUnits="userSpaceOnUse"><stop stop-color="#24ABC1"/><stop offset="1" stop-color="#1A91A4"/></linearGradient></defs></svg>