<svg width="186" height="81" viewBox="0 0 186 81" fill="none" xmlns="http://www.w3.org/2000/svg"><g clip-path="url(#a)"><path d="M39.98 78.896c21.104 0 38.213-17.093 38.213-38.178 0-21.086-17.109-38.179-38.214-38.179-21.104 0-38.213 17.093-38.213 38.179 0 21.085 17.108 38.178 38.213 38.178Z" fill="#FFBC00"/><path fill-rule="evenodd" clip-rule="evenodd" d="M40.733 7.93C22.193 7.93 7.16 22.945 7.16 41.472c0 18.526 15.03 33.542 33.573 33.542s33.573-15.016 33.573-33.542c0-18.527-15.033-33.542-33.573-33.542Zm0 50.797c-9.18 0-16.623-7.435-16.623-16.608 0-9.173 7.442-16.608 16.623-16.608 9.181 0 16.623 7.435 16.623 16.608 0 9.172-7.442 16.608-16.623 16.608Z" fill="#474646"/><path fill-rule="evenodd" clip-rule="evenodd" d="M57.369 41.01c0 9.484-7.695 17.171-17.187 17.171-9.491 0-17.186-7.687-17.186-17.17 0-9.484 7.695-17.171 17.186-17.171 9.492 0 17.187 7.687 17.187 17.17Z" fill="#F2A906"/><path d="M40.182 58.827c-9.832 0-17.834-7.992-17.834-17.818s7.999-17.818 17.834-17.818 17.834 7.992 17.834 17.818-8 17.818-17.834 17.818Zm0-34.341c-9.12 0-16.539 7.412-16.539 16.523s7.42 16.524 16.539 16.524c9.12 0 16.538-7.413 16.538-16.524 0-9.11-7.419-16.523-16.538-16.523Z" fill="#fff"/><path d="M43.192 32.8c.648 0 1.26.124 1.843.373a4.82 4.82 0 0 1 1.519 1.019c.43.43.77.938 1.02 1.517.249.58.372 1.194.372 1.841v6.468a4.62 4.62 0 0 1-.372 1.841c-.25.58-.59 1.087-1.02 1.518-.431.43-.94.77-1.52 1.019-.579.249-1.194.372-1.842.372h-9.184V32.8h9.184Zm2.115 4.767c0-.298-.055-.573-.162-.829a2.059 2.059 0 0 0-.447-.67 2.237 2.237 0 0 0-.674-.459 1.988 1.988 0 0 0-.832-.175h-6.57v10.694h6.57c.298 0 .577-.059.832-.175a2.28 2.28 0 0 0 .674-.46c.191-.19.34-.414.447-.67.107-.255.162-.533.162-.828V37.56v.007Z" fill="#474646"/><path fill-rule="evenodd" clip-rule="evenodd" d="M0 40.518C-.023 18.232 18.155 0 40.403 0 62.878 0 81.1 18.07 81.097 40.366c0 22.532-18.077 40.644-40.548 40.63C18.132 80.988.023 62.908 0 40.519ZM40.613 4.856c-19.582-.123-35.6 15.767-35.762 35.477-.162 19.546 15.79 35.69 35.413 35.843 19.693.152 35.862-15.76 35.995-35.416.133-19.759-15.771-35.777-35.646-35.904Z" fill="#474646"/><path d="M108.501 26.88c.673 0 1.308.13 1.914.388.602.26 1.13.612 1.577 1.058.447.45.803.974 1.059 1.576.259.602.388 1.24.388 1.912v6.717c0 .673-.129 1.31-.388 1.912a4.996 4.996 0 0 1-1.059 1.576 4.956 4.956 0 0 1-1.577 1.058 4.812 4.812 0 0 1-1.914.388h-9.544V26.877h9.544v.003Zm2.199 4.95a2.192 2.192 0 0 0-1.335-2.032 2.099 2.099 0 0 0-.864-.18h-6.827v11.11h6.827c.311 0 .599-.062.864-.181.269-.12.499-.278.7-.476a2.192 2.192 0 0 0 .635-1.556v-6.688.003ZM116.169 29.944a5.147 5.147 0 0 1 1.072-1.589 5.097 5.097 0 0 1 1.59-1.071 4.86 4.86 0 0 1 1.953-.401h9.44V43.47h-2.717v-6.924h-7.448v-2.74h7.448V29.62h-6.723a2.22 2.22 0 0 0-1.629.67c-.45.446-.674.99-.674 1.624v11.554h-2.713V31.89c0-.689.132-1.34.401-1.95v.003ZM145.29 36.298a5.177 5.177 0 0 1-1.461 1.692l2.95 5.478h-3.102l-2.432-4.55h-4.346v-2.74h4.061c.602 0 1.117-.21 1.538-.627.421-.418.635-.929.635-1.524v-2.255c0-.599-.211-1.107-.635-1.524a2.107 2.107 0 0 0-1.538-.628h-5.69v13.851h-2.717V26.883h8.407c.673 0 1.305.13 1.901.388a5.02 5.02 0 0 1 1.551 1.045c.44.44.79.958 1.046 1.55.259.595.389 1.226.389 1.9v2.274c0 .828-.185 1.582-.557 2.261v-.003ZM160.226 26.88c.673 0 1.305.13 1.901.39a5.011 5.011 0 0 1 1.551 1.044c.44.44.79.958 1.046 1.55.256.592.389 1.226.389 1.9v6.82c0 .672-.13 1.303-.389 1.899a5.016 5.016 0 0 1-1.046 1.55c-.44.44-.959.789-1.551 1.045a4.714 4.714 0 0 1-1.901.388h-6.312c-.673 0-1.305-.13-1.901-.388a5.009 5.009 0 0 1-1.551-1.045c-.44-.44-.79-.955-1.046-1.55a4.753 4.753 0 0 1-.389-1.9v-6.82c0-.673.13-1.304.389-1.899a4.899 4.899 0 0 1 2.597-2.595 4.715 4.715 0 0 1 1.901-.388h6.312Zm2.147 4.88c0-.602-.207-1.11-.622-1.52-.414-.415-.923-.619-1.525-.619h-6.312c-.602 0-1.117.207-1.538.618-.421.411-.635.92-.635 1.52v6.805c0 .602.211 1.113.635 1.534.421.42.936.63 1.538.63h6.312c.602 0 1.111-.21 1.525-.63.415-.42.622-.932.622-1.534V31.76ZM167.816 29.944a5.13 5.13 0 0 1 1.072-1.589 5.085 5.085 0 0 1 1.59-1.071 4.858 4.858 0 0 1 1.952-.401h9.389v4.342h-2.717v-1.602h-6.672a2.23 2.23 0 0 0-1.629.667 2.19 2.19 0 0 0-.673 1.617v1.9h11.691v4.652c0 .69-.133 1.34-.402 1.951A5.148 5.148 0 0 1 180.345 42c-.447.45-.978.806-1.59 1.07a4.806 4.806 0 0 1-1.953.402h-9.388v-4.42h2.714v1.68h6.674a2.23 2.23 0 0 0 1.629-.667c.447-.446.674-.983.674-1.618v-1.899h-11.691v-4.652c0-.69.133-1.34.402-1.951ZM103.715 50.68h-3.961v-.78h8.77v.78h-3.961v10.577h-.845V50.68h-.003ZM113.944 49.82h.813l5.295 11.438h-.927l-1.444-3.18h-6.707l-1.444 3.18h-.878l5.295-11.438h-.003Zm3.378 7.494-2.989-6.572-3.006 6.572H117.322ZM131.174 49.9l-4.369 5.565 4.531 5.792h-1.007l-4.045-5.242-4.025 5.242h-.991l4.514-5.792-4.352-5.565h1.007l3.879 5.012 3.864-5.012h.994ZM133.969 49.9h.845v11.357h-.845V49.9ZM142.445 59.605l.551-.635c1.25 1.152 2.403 1.686 4.077 1.686s2.873-.958 2.873-2.255v-.032c0-1.2-.635-1.9-3.216-2.417-2.727-.55-3.831-1.476-3.831-3.197v-.032c0-1.686 1.541-2.987 3.653-2.987 1.655 0 2.743.453 3.896 1.379l-.535.666c-1.072-.925-2.144-1.281-3.394-1.281-1.671 0-2.775.958-2.775 2.142v.032c0 1.2.618 1.932 3.313 2.482 2.629.534 3.734 1.475 3.734 3.132v.032c0 1.834-1.574 3.1-3.767 3.1-1.82 0-3.215-.602-4.579-1.819v.004ZM153.215 59.879h1.072v1.378h-1.072V59.88ZM157.305 49.9h4.773c1.396 0 2.516.437 3.2 1.12.534.534.861 1.297.861 2.11v.032c0 1.899-1.412 2.986-3.329 3.245l3.75 4.85h-1.072l-3.62-4.704h-3.718v4.704h-.845V49.9Zm4.676 5.889c1.901 0 3.313-.958 3.313-2.595v-.032c0-1.524-1.202-2.482-3.264-2.482h-3.88v5.109h3.831ZM168.691 59.879h1.072v1.378h-1.072V59.88ZM171.627 55.612v-.033c0-3.1 2.29-5.872 5.732-5.872s5.7 2.74 5.7 5.84v.032c0 3.1-2.29 5.873-5.732 5.873-3.443 0-5.7-2.74-5.7-5.84Zm10.554 0v-.033c0-2.805-2.047-5.108-4.854-5.108-2.808 0-4.822 2.27-4.822 5.076v.032c0 2.806 2.046 5.11 4.854 5.11 2.808 0 4.822-2.272 4.822-5.077ZM184.928 59.879H186v1.378h-1.072V59.88Z" fill="#474646"/><path fill-rule="evenodd" clip-rule="evenodd" d="M39.453 11.558c0-.721.007-1.446 0-2.168-.003-.475.23-.802.878-.786.605.016.8.343.8.783-.007 1.446-.007 2.89 0 4.336 0 .475-.23.802-.878.786-.605-.016-.803-.343-.8-.783.007-.722 0-1.446 0-2.168ZM39.373 19.242c0-.722.007-1.447 0-2.168-.003-.476.23-.803.878-.786.605.016.8.343.8.783-.007 1.446-.007 2.889 0 4.335 0 .476-.23.803-.878.786-.606-.016-.803-.343-.8-.783.007-.721 0-1.446 0-2.167ZM39.668 62.785c0-.722.007-1.447 0-2.168-.003-.476.23-.802.878-.786.605.016.8.343.8.783-.007 1.446-.007 2.889 0 4.335 0 .476-.23.803-.878.786-.606-.016-.803-.343-.8-.783.007-.721 0-1.446 0-2.167ZM39.586 70.468c0-.721.007-1.446 0-2.168-.003-.475.23-.802.878-.786.605.016.8.343.8.783-.007 1.447-.007 2.89 0 4.336 0 .475-.23.802-.878.786-.606-.016-.803-.343-.8-.783.007-.721 0-1.446 0-2.168Z" fill="#fff"/></g><defs><clipPath id="a"><path fill="#fff" d="M0 0h186v81H0z"/></clipPath></defs></svg>