<svg width="167" height="100" viewBox="0 0 167 100" fill="none" xmlns="http://www.w3.org/2000/svg">
<g clip-path="url(#clip0_1502_186)">
<path d="M50.6699 42.8699C51.9909 48.3186 54.656 53.2441 58.2923 57.2735C64.3797 64.0229 73.1958 68.2661 83.0005 68.2661C62.8304 60.8144 72.664 42.8642 73.9069 41.3408C73.9069 41.3408 73.7566 45.8356 82.1391 47.5035C90.5246 49.1713 90.0303 51.6629 90.4725 53.4117C91.1547 56.1144 95.5888 56.0276 96.6843 54.0187C97.1381 53.1862 98.4273 53.9696 99.1094 53.0099C99.4592 52.5185 99.2829 51.5126 100.02 50.9403C101.988 49.3996 102.671 48.0671 99.9708 45.006C96.5369 41.1183 92.2936 33.9209 91.8398 30.6863C91.3859 27.4547 91.3599 27.4779 86.5617 22.4772C86.5617 22.4772 91.7762 19.3815 88.3075 14.3086C88.3075 14.3086 86.5067 18.3929 82.6623 18.3756C62.7032 20.503 53.2743 28.6052 50.8549 43.5897L50.6699 42.8728V42.8699Z" fill="url(#paint0_linear_1502_186)"/>
<path d="M82.9986 70C73.1072 70 63.632 65.7856 57.004 58.435C53.1191 54.1281 50.3442 48.8847 48.9857 43.277C48.3324 40.5831 48 37.7966 48 34.9986C48 15.7014 63.7014 0 82.9986 0C102.296 0 117.997 15.7014 117.997 34.9986C117.997 54.2957 102.296 69.9971 82.9986 69.9971V70ZM82.9986 3.46864C65.612 3.46864 51.4686 17.612 51.4686 34.9986C51.4686 37.522 51.7664 40.031 52.356 42.459C53.5816 47.5088 56.079 52.229 59.5795 56.111C65.5542 62.7332 74.0899 66.5285 82.9986 66.5285C100.385 66.5285 114.528 52.3851 114.528 34.9986C114.528 17.612 100.385 3.46864 82.9986 3.46864Z" fill="url(#paint1_linear_1502_186)"/>
</g>
<path d="M1.80981 95.696C1.80981 95.856 1.93781 96 2.11381 96H8.51381C8.68981 96 8.81781 95.856 8.81781 95.696V94.816C8.81781 94.656 8.68981 94.512 8.51381 94.512H3.45781V91.072H7.72981C7.88981 91.072 8.03381 90.944 8.03381 90.768V89.872C8.03381 89.712 7.88981 89.568 7.72981 89.568H3.45781V86.304H8.51381C8.68981 86.304 8.81781 86.16 8.81781 86V85.104C8.81781 84.944 8.68981 84.8 8.51381 84.8H2.11381C1.93781 84.8 1.80981 84.944 1.80981 85.104V95.696ZM10.3688 90.416C10.3688 93.616 12.9128 96.16 16.1128 96.16C16.4008 96.16 16.7528 96.144 17.0568 96.096L18.7848 99.008C18.8488 99.12 18.9768 99.168 19.0408 99.168H20.2888C20.5448 99.168 20.6888 98.912 20.5448 98.688L18.6088 95.616C20.5448 94.656 21.8728 92.688 21.8728 90.416C21.8728 87.216 19.3128 84.64 16.1128 84.64C12.9128 84.64 10.3688 87.216 10.3688 90.416ZM11.9688 90.416C11.9688 88.144 13.8408 86.24 16.1128 86.24C18.4008 86.24 20.2728 88.144 20.2728 90.416C20.2728 92.704 18.4008 94.56 16.1128 94.56C13.8408 94.56 11.9688 92.704 11.9688 90.416ZM24.0252 91.824C24.0252 94.256 25.8492 96.16 28.3612 96.16C30.8892 96.16 32.7292 94.256 32.7292 91.824V85.104C32.7292 84.944 32.5852 84.8 32.4252 84.8H31.3532C31.1772 84.8 31.0492 84.944 31.0492 85.104V91.744C31.0492 93.328 30.0092 94.56 28.3612 94.56C26.7292 94.56 25.7052 93.312 25.7052 91.712V85.104C25.7052 84.944 25.5772 84.8 25.4012 84.8H24.3292C24.1692 84.8 24.0252 84.944 24.0252 85.104V91.824ZM35.6848 95.696C35.6848 95.856 35.8288 96 35.9888 96H37.0448C37.2048 96 37.3488 95.856 37.3488 95.696V85.104C37.3488 84.944 37.2048 84.8 37.0448 84.8H35.9888C35.8288 84.8 35.6848 84.944 35.6848 85.104V95.696ZM45.5021 95.696C45.5021 95.856 45.6461 96 45.8061 96H46.8621C47.0221 96 47.1661 95.856 47.1661 95.696V86.304H49.7741C49.9501 86.304 50.0781 86.16 50.0781 86V85.104C50.0781 84.944 49.9501 84.8 49.7741 84.8H42.8941C42.7181 84.8 42.5901 84.944 42.5901 85.104V86C42.5901 86.16 42.7181 86.304 42.8941 86.304H45.5021V95.696ZM51.8098 95.696C51.8098 95.856 51.9378 96 52.1138 96H58.5138C58.6898 96 58.8178 95.856 58.8178 95.696V94.816C58.8178 94.656 58.6898 94.512 58.5138 94.512H53.4578V91.072H57.7298C57.8898 91.072 58.0338 90.944 58.0338 90.768V89.872C58.0338 89.712 57.8898 89.568 57.7298 89.568H53.4578V86.304H58.5138C58.6898 86.304 58.8178 86.16 58.8178 86V85.104C58.8178 84.944 58.6898 84.8 58.5138 84.8H52.1138C51.9378 84.8 51.8098 84.944 51.8098 85.104V95.696ZM59.9997 96H61.0077C61.1997 96 61.3277 95.872 61.3757 95.76C61.6957 95.024 62.0317 94.304 62.3517 93.568H67.5837L68.5757 95.76C68.6397 95.904 68.7517 96 68.9437 96H69.9517C70.1917 96 70.3197 95.792 70.2237 95.584L65.3437 84.816C65.2957 84.72 65.1517 84.64 65.0717 84.64H64.9117C64.8317 84.64 64.6877 84.72 64.6397 84.816L59.7277 95.584C59.6317 95.792 59.7597 96 59.9997 96ZM62.9757 92.192L64.9277 87.808H65.0077L66.9757 92.192H62.9757ZM71.0574 95.632C71.0254 95.856 71.1374 96 71.3614 96H72.4014C72.5294 96 72.6734 95.888 72.6894 95.776L73.8414 88.624C73.8574 88.624 73.8894 88.624 73.9054 88.624L76.8014 95.984C76.8334 96.08 76.9454 96.16 77.0734 96.16H77.3614C77.5054 96.16 77.6014 96.08 77.6334 95.984L80.5134 88.624C80.5134 88.624 80.5454 88.624 80.5614 88.624L81.7454 95.776C81.7774 95.888 81.9054 96 82.0494 96H83.0894C83.3134 96 83.4254 95.856 83.3774 95.632L81.4094 84.88C81.3774 84.752 81.2494 84.64 81.1214 84.64H80.8654C80.7534 84.64 80.6254 84.72 80.5934 84.816L77.2654 92.992H77.2014L73.8574 84.816C73.8254 84.72 73.6814 84.64 73.5854 84.64H73.3294C73.2014 84.64 73.0734 84.752 73.0414 84.88L71.0574 95.632ZM88.4793 95.632C88.4473 95.856 88.5593 96 88.7833 96H89.8233C89.9513 96 90.0953 95.888 90.1113 95.776L91.2633 88.624C91.2793 88.624 91.3113 88.624 91.3273 88.624L94.2233 95.984C94.2553 96.08 94.3673 96.16 94.4953 96.16H94.7833C94.9273 96.16 95.0233 96.08 95.0553 95.984L97.9353 88.624C97.9353 88.624 97.9673 88.624 97.9833 88.624L99.1673 95.776C99.1993 95.888 99.3273 96 99.4713 96H100.511C100.735 96 100.847 95.856 100.799 95.632L98.8313 84.88C98.7993 84.752 98.6713 84.64 98.5433 84.64H98.2873C98.1753 84.64 98.0473 84.72 98.0153 84.816L94.6873 92.992H94.6233L91.2793 84.816C91.2473 84.72 91.1033 84.64 91.0073 84.64H90.7513C90.6233 84.64 90.4953 84.752 90.4633 84.88L88.4793 95.632ZM101.922 96H102.93C103.122 96 103.25 95.872 103.298 95.76C103.618 95.024 103.954 94.304 104.274 93.568H109.506L110.498 95.76C110.562 95.904 110.674 96 110.866 96H111.874C112.114 96 112.242 95.792 112.146 95.584L107.266 84.816C107.218 84.72 107.074 84.64 106.994 84.64H106.834C106.754 84.64 106.61 84.72 106.562 84.816L101.65 95.584C101.554 95.792 101.682 96 101.922 96ZM104.898 92.192L106.85 87.808H106.93L108.898 92.192H104.898ZM113.747 95.696C113.747 95.856 113.891 96 114.051 96H115.059C115.235 96 115.363 95.856 115.363 95.696V87.904H115.379L122.323 96.16H122.739C122.899 96.16 123.043 96.032 123.043 95.872V85.104C123.043 84.944 122.899 84.8 122.739 84.8H121.715C121.539 84.8 121.411 84.944 121.411 85.104V92.672H121.395L114.451 84.64H114.051C113.891 84.64 113.747 84.768 113.747 84.928V95.696ZM124.922 96H125.93C126.122 96 126.25 95.872 126.298 95.76C126.618 95.024 126.954 94.304 127.274 93.568H132.506L133.498 95.76C133.562 95.904 133.674 96 133.866 96H134.874C135.114 96 135.242 95.792 135.146 95.584L130.266 84.816C130.218 84.72 130.074 84.64 129.994 84.64H129.834C129.754 84.64 129.61 84.72 129.562 84.816L124.65 95.584C124.554 95.792 124.682 96 124.922 96ZM127.898 92.192L129.85 87.808H129.93L131.898 92.192H127.898ZM135.869 90.416C135.869 93.616 138.445 96.16 141.629 96.16C143.949 96.16 145.597 95.104 145.597 95.104C145.661 95.056 145.725 94.928 145.725 94.848C145.725 93.568 145.709 92.256 145.709 90.976C145.709 90.816 145.581 90.672 145.421 90.672H142.509C142.333 90.672 142.205 90.8 142.205 90.976V91.904C142.205 92.064 142.333 92.192 142.509 92.192H144.077V93.984C143.917 94.048 143.005 94.528 141.677 94.528C139.405 94.528 137.661 92.608 137.661 90.384C137.661 88.144 139.405 86.224 141.677 86.224C142.653 86.224 143.645 86.656 144.397 87.312C144.557 87.456 144.685 87.472 144.813 87.328C145.053 87.072 145.293 86.832 145.533 86.576C145.661 86.448 145.645 86.256 145.517 86.128C144.429 85.2 143.165 84.64 141.629 84.64C138.445 84.64 135.869 87.216 135.869 90.416ZM148.232 95.696C148.232 95.856 148.36 96 148.536 96H154.936C155.112 96 155.24 95.856 155.24 95.696V94.816C155.24 94.656 155.112 94.512 154.936 94.512H149.88V91.072H154.152C154.312 91.072 154.456 90.944 154.456 90.768V89.872C154.456 89.712 154.312 89.568 154.152 89.568H149.88V86.304H154.936C155.112 86.304 155.24 86.16 155.24 86V85.104C155.24 84.944 155.112 84.8 154.936 84.8H148.536C148.36 84.8 148.232 84.944 148.232 85.104V95.696ZM157.654 95.696C157.654 95.856 157.782 96 157.958 96H158.998C159.158 96 159.302 95.856 159.302 95.696V91.616H161.718L163.846 95.856C163.878 95.92 163.974 96 164.102 96H165.35C165.622 96 165.734 95.744 165.622 95.536L163.43 91.472C164.822 90.912 165.798 89.696 165.798 88.224C165.798 86.32 164.23 84.8 162.31 84.8H157.958C157.782 84.8 157.654 84.944 157.654 85.104V95.696ZM159.334 90.24V86.352H162.182C163.222 86.352 164.134 87.216 164.134 88.256C164.134 89.36 163.222 90.24 162.182 90.24H159.334Z" fill="#C4A962"/>
<defs>
<linearGradient id="paint0_linear_1502_186" x1="76.2119" y1="14.3086" x2="76.2119" y2="68.2661" gradientUnits="userSpaceOnUse">
<stop stop-color="#C4A962"/>
<stop offset="1" stop-color="#E8CA7C"/>
</linearGradient>
<linearGradient id="paint1_linear_1502_186" x1="82.9986" y1="0" x2="82.9986" y2="70" gradientUnits="userSpaceOnUse">
<stop stop-color="#C4A962"/>
<stop offset="1" stop-color="#E8CA7C"/>
</linearGradient>
<clipPath id="clip0_1502_186">
<rect width="70" height="70" fill="white" transform="translate(48)"/>
</clipPath>
</defs>
</svg>
