<svg width="343" height="499" viewBox="0 0 343 499" fill="none" xmlns="http://www.w3.org/2000/svg"><path opacity=".05" fill-rule="evenodd" clip-rule="evenodd" d="M193.906.784c22.97-3.281 48.564 3.517 73.571 24.609 22.726 19.167 30.432 44.035 30.684 66.175.241 21.287-6.283 40.527-12.675 52.427l-.959 1.785-14.013 17.902c12.214 3.14 24.884 9.028 36.76 19.045 21.16 17.847 31.449 40.854 34.614 61.702 1.57 10.349 1.435 20.439-.137 29.452-1.503 8.624-4.628 17.962-10.439 25.385L194.59 473.929l-.61.666c-9.173 10.005-25.233 20.716-45.759 23.592-21.461 3.008-45.851-2.833-69.831-23.059-24.95-21.043-33.907-46.545-32.932-70.39.916-22.412 10.461-41.381 19.218-52.567l12.598-16.094c-13.389-2.065-26.488-7.999-38.682-18.283C11.02 294.539-.174 267.883.002 242.443c.165-23.819 10.28-43.477 20.104-55.049l123.53-157.81c10.438-13.335 28.082-25.63 50.27-28.8Zm-26.464 294.572c8.141-8.77 14.884-17.699 19.894-25.414l48.013-61.337c10.301-2.108 28.492-2.002 43.396 10.569 11.559 9.749 16.829 21.869 18.453 32.563.822 5.422.658 10.206.035 13.781-.537 3.084-1.24 4.353-1.233 4.39L160.714 442.737c-3.157 3.175-9.843 7.692-18.546 8.911-8.25 1.156-20.286-.346-35.249-12.966-13.992-11.801-16.622-23.118-16.26-31.953.42-10.268 5.134-19.841 9.13-24.944l67.653-86.429Zm-33.822-31.262c-7.037 7.389-15.143 14.299-23.643 19.149-8.088 4.615-15.503 6.78-22.078 6.707-6.159-.068-13.054-2.089-20.777-8.603-18.394-15.513-21.944-29.257-21.88-38.566.074-10.601 4.906-19.83 8.94-24.495l.37-.429 124.195-158.66c3.827-4.888 11.445-10.479 21.327-11.89 9.1-1.3 22.384.625 38.873 14.532 10.471 8.831 13.852 19.445 13.975 30.282.122 10.73-3.083 21.075-6.137 27.405L133.62 264.094Z" fill="#041122"/></svg>