<svg width="290" height="290" viewBox="0 0 290 290" fill="none" xmlns="http://www.w3.org/2000/svg"><path d="M154.217 116c2.696 0 5.243.447 7.668 1.352 2.412.905 4.528 2.139 6.32 3.702a17.54 17.54 0 0 1 4.245 5.512 14.924 14.924 0 0 1 1.55 6.687v23.494c0 2.35-.512 4.572-1.55 6.687a17.54 17.54 0 0 1-4.245 5.512c-1.792 1.563-3.908 2.797-6.32 3.702-2.412.905-4.972 1.352-7.668 1.352H116v-58h38.217Zm8.8 17.312c0-1.081-.229-2.08-.674-3.009a7.502 7.502 0 0 0-1.859-2.433c-.795-.693-1.725-1.245-2.803-1.669-1.065-.423-2.224-.634-3.464-.634h-27.342v38.843h27.342c1.24 0 2.399-.212 3.464-.635 1.064-.423 2.008-.975 2.803-1.669a7.481 7.481 0 0 0 1.859-2.433 6.897 6.897 0 0 0 .674-3.008v-23.377.024Z" fill="#fff"/><path fill-rule="evenodd" clip-rule="evenodd" d="M0 145.07C-.08 65.277 64.92 0 144.48 0 224.848 0 290.012 64.698 290 144.525c0 80.673-64.643 145.521-145 145.475C64.84 289.965.081 225.232 0 145.07ZM145.232 17.388c-70.028-.44-127.305 56.45-127.884 127.021-.58 69.981 56.466 127.786 126.633 128.33 70.421.545 128.243-56.426 128.718-126.801.474-70.745-56.398-128.098-127.467-128.55Z" fill="#fff"/><path fill-rule="evenodd" clip-rule="evenodd" d="M143.829 25.11c-66.613 0-120.624 54.2-120.624 121.07 0 66.871 54 121.071 120.624 121.071s120.623-54.2 120.623-121.071c0-66.87-54.011-121.07-120.623-121.07Zm0 183.352c-32.987 0-59.725-26.838-59.725-59.946 0-33.109 26.738-59.946 59.725-59.946 32.986 0 59.724 26.837 59.724 59.946 0 33.108-26.738 59.946-59.724 59.946Zm-3.434-167.93c0-.868.002-1.737.005-2.606v-.004c.005-1.739.01-3.48-.005-5.215-.012-1.717.826-2.896 3.153-2.838 2.176.059 2.874 1.238 2.874 2.827-.023 5.22-.023 10.428 0 15.649 0 1.716-.826 2.896-3.153 2.837-2.176-.058-2.886-1.237-2.874-2.826.015-1.735.01-3.476.005-5.214v-.004a755.36 755.36 0 0 1-.005-2.606Zm-.278 25.129c-.003.87-.006 1.738-.006 2.606 0 .867.003 1.736.006 2.606v.002c.005 1.74.01 3.48-.006 5.216-.011 1.589.699 2.768 2.874 2.827 2.327.058 3.154-1.122 3.154-2.838-.024-5.22-.024-10.43 0-15.65 0-1.588-.699-2.767-2.874-2.826-2.327-.058-3.165 1.121-3.154 2.838.016 1.736.011 3.477.006 5.215v.004Zm1.032 159.784c0-.868.003-1.737.005-2.606v-.002c.006-1.74.011-3.481-.005-5.216-.011-1.717.826-2.897 3.153-2.838 2.176.058 2.874 1.238 2.874 2.826-.023 5.22-.023 10.429 0 15.649 0 1.717-.826 2.896-3.153 2.838-2.176-.058-2.885-1.238-2.874-2.826.016-1.736.011-3.477.005-5.216v-.003c-.002-.869-.005-1.738-.005-2.606Zm-.278 25.129c-.002.87-.005 1.738-.005 2.606 0 .868.003 1.737.005 2.606.005 1.74.011 3.482-.005 5.219-.012 1.588.698 2.768 2.874 2.826 2.327.058 3.153-1.121 3.153-2.838-.023-5.22-.023-10.429 0-15.649 0-1.588-.698-2.768-2.874-2.826-2.327-.059-3.165 1.121-3.153 2.838.016 1.736.01 3.478.005 5.218Z" fill="#fff"/></svg>