<svg width="118" height="48" viewBox="0 0 118 48" fill="none" xmlns="http://www.w3.org/2000/svg">
<path d="M65.6984 33.4537H59.1842L54.2227 10.9082H59.7918L61.2769 19.6592C61.7832 22.565 62.1882 25.7047 62.4244 28.31H62.5932C62.8295 25.6379 63.3695 22.5984 63.842 19.726L65.2934 10.9082H70.6937L65.6984 33.4537ZM72.4151 10.9082H77.6467V33.4537H72.4151V10.9082ZM79.8743 33.4537V30.147L87.8399 15.1501H80.4819V10.9082H93.4765V14.6491L85.9835 29.2118H93.949L93.3415 33.4537H79.8743ZM95.8729 10.9082H101.104V33.4537H95.8729V10.9082ZM107.551 33.4537V15.1501H103.062V10.9082H117.238V15.1501H112.783V33.4537H107.551Z" fill="white"/>
<path d="M31.9416 5.8457H15.553C10.2112 5.8457 5.88086 10.1438 5.88086 15.4457V32.4219C5.88086 37.7238 10.2112 42.0219 15.553 42.0219H31.9416C37.2834 42.0219 41.6137 37.7238 41.6137 32.4219V15.4457C41.6137 10.1438 37.2834 5.8457 31.9416 5.8457Z" fill="url(#paint0_linear_1316_310)"/>
<path d="M9.19727 19.1322H18.8686L19.3365 10.3945C19.3365 10.3945 22.5986 5.78071 30.8895 5.97953L29.205 3.56971C29.205 3.56971 24.6687 -3.13723 19.8016 1.83543C14.9345 6.80809 15.0749 6.51483 13.2823 9.39975C11.4898 12.2847 9.19727 19.1322 9.19727 19.1322Z" fill="url(#paint1_linear_1316_310)"/>
<path d="M28.3643 13.1406V22.7464L37.1616 23.2112C37.1616 23.2112 41.8068 26.4512 41.6066 34.6859L44.0329 33.0128C44.0329 33.0128 50.7856 28.5073 45.779 23.6731C40.7724 18.839 41.0677 18.9785 38.1631 17.198C35.2585 15.4176 28.3643 13.1406 28.3643 13.1406Z" fill="url(#paint2_linear_1316_310)"/>
<path d="M37.8887 28.8678H28.2174L27.7494 37.6055C27.7494 37.6055 24.4873 42.2193 16.1965 42.0205L17.8809 44.4303C17.8809 44.4303 22.4172 51.1372 27.2843 46.1646C32.1514 41.1919 32.011 41.4852 33.8036 38.6003C35.5962 35.7153 37.8887 28.8678 37.8887 28.8678Z" fill="url(#paint3_linear_1316_310)"/>
<path d="M19.2627 37.9746V28.3688L10.4654 27.904C10.4654 27.904 5.82014 24.6641 6.02031 16.4294L3.59406 18.1024C3.59406 18.1024 -3.15863 22.608 1.84795 27.4421C6.85453 32.2762 6.55926 32.1368 9.46387 33.9172C12.3685 35.6976 19.2627 37.9746 19.2627 37.9746Z" fill="url(#paint4_linear_1316_310)"/>
<path d="M24.511 8.76953H23.3556C20.6847 8.76953 18.5195 10.9186 18.5195 13.5695V35.0299C18.5195 37.6808 20.6847 39.8299 23.3556 39.8299H24.511C27.1819 39.8299 29.3471 37.6808 29.3471 35.0299V13.5695C29.3471 10.9186 27.1819 8.76953 24.511 8.76953Z" fill="white"/>
<path d="M37.5684 18.9238C38.6753 18.9238 39.5726 19.8128 39.5726 20.9147V27.6847C39.5726 28.7842 38.6786 29.6755 37.5684 29.6755H10.2972C9.19031 29.6755 8.29297 28.7865 8.29297 27.6847V20.9147C8.29297 19.8152 9.18703 18.9238 10.2972 18.9238" fill="white"/>
<path d="M16.8184 24.3651H20.8588L21.9269 22.2098L22.9103 27.1466L24.5535 19.1523L25.931 25.7898L26.7811 24.1849L30.9065 24.3091" stroke="#601D8C"/>
<defs>
<linearGradient id="paint0_linear_1316_310" x1="1792.52" y1="5.8457" x2="1792.52" y2="3623.46" gradientUnits="userSpaceOnUse">
<stop stop-color="#355CC1"/>
<stop offset="0.0520941" stop-color="#345ABE"/>
<stop offset="1" stop-color="#193A8E"/>
</linearGradient>
<linearGradient id="paint1_linear_1316_310" x1="1093.81" y1="0" x2="1093.81" y2="1913.22" gradientUnits="userSpaceOnUse">
<stop stop-color="#24ABC1"/>
<stop offset="1" stop-color="#1A91A4"/>
</linearGradient>
<linearGradient id="paint2_linear_1316_310" x1="47.627" y1="1090.4" x2="-1878.64" y2="1090.4" gradientUnits="userSpaceOnUse">
<stop stop-color="#24ABC1"/>
<stop offset="1" stop-color="#1A91A4"/>
</linearGradient>
<linearGradient id="paint3_linear_1316_310" x1="-1046.72" y1="48" x2="-1046.72" y2="-1865.22" gradientUnits="userSpaceOnUse">
<stop stop-color="#24ABC1"/>
<stop offset="1" stop-color="#1A91A4"/>
</linearGradient>
<linearGradient id="paint4_linear_1316_310" x1="0" y1="-1039.29" x2="1926.27" y2="-1039.29" gradientUnits="userSpaceOnUse">
<stop stop-color="#24ABC1"/>
<stop offset="1" stop-color="#1A91A4"/>
</linearGradient>
</defs>
</svg>
