<svg width="242" height="242" viewBox="0 0 242 242" fill="none" xmlns="http://www.w3.org/2000/svg"><g clip-path="url(#a)" fill="#fff"><path d="M9.234 148.205c4.567 18.837 13.78 35.865 26.352 49.796 21.045 23.333 51.524 38.003 85.42 38.003-69.731-25.762-35.735-87.818-31.438-93.085 0 0-.52 15.539 28.46 21.305 28.99 5.766 27.281 14.38 28.81 20.426 2.358 9.343 17.687 9.044 21.475 2.098 1.569-2.878 6.025-.169 8.384-3.487 1.209-1.699.599-5.176 3.148-7.155 6.805-5.326 9.163-9.933-.17-20.516-11.872-13.44-26.542-38.323-28.111-49.505-1.569-11.172-1.658-11.092-18.247-28.38 0 0 18.028-10.703 6.036-28.24 0 0-6.226 14.12-19.516 14.06C50.835 70.88 18.238 98.89 9.874 150.694l-.64-2.479v-.01Z"/><path d="M120.995 242c-34.196 0-66.953-14.57-89.867-39.982-13.43-14.889-23.024-33.017-27.72-52.403A121.61 121.61 0 0 1 0 120.995C0 54.282 54.282 0 120.995 0 187.708 0 241.99 54.282 241.99 120.995c0 66.713-54.282 120.995-120.995 120.995v.01Zm0-230.008c-60.108 0-109.003 48.895-109.003 109.003 0 8.724 1.029 17.398 3.067 25.792 4.237 17.458 12.871 33.776 24.973 47.197 20.655 22.894 50.165 36.014 80.963 36.014 60.108 0 109.003-48.895 109.003-109.003S181.103 11.992 120.995 11.992Z"/></g><defs><clipPath id="a"><path fill="#fff" d="M0 0h242v242H0z"/></clipPath></defs></svg>