<svg width="138" height="40" viewBox="0 0 138 40" fill="none" xmlns="http://www.w3.org/2000/svg">
<path d="M45.5413 14.4411C45.2061 14.1499 44.8294 13.9144 44.4246 13.7432C44.0812 13.5973 43.7144 13.5195 43.3433 13.5139C42.9017 13.5139 42.541 13.6227 42.2613 13.8403C42.1297 13.9356 42.0227 14.063 41.9498 14.2114C41.8769 14.3598 41.8403 14.5245 41.8432 14.6911C41.8353 14.9112 41.9103 15.1259 42.0522 15.2896C42.2095 15.4598 42.396 15.5979 42.6021 15.697C42.849 15.8199 43.1059 15.92 43.3698 15.9959C43.6549 16.0805 43.9369 16.1712 44.2156 16.268C45.3325 16.6543 46.1495 17.1705 46.6667 17.8167C47.1839 18.4628 47.4428 19.3054 47.4433 20.3445C47.4523 20.9955 47.3367 21.642 47.1032 22.2463C46.8828 22.8046 46.5427 23.3034 46.1088 23.7047C45.6407 24.1286 45.0945 24.4493 44.5034 24.6472C43.8077 24.8803 43.0798 24.9934 42.3489 24.982C40.6854 24.982 39.1443 24.4689 37.7256 23.4426L39.1911 20.5799C39.6419 21.0092 40.1539 21.3634 40.7089 21.6302C41.1744 21.8523 41.6798 21.9697 42.1921 21.9749C42.7501 21.9749 43.1657 21.8419 43.439 21.5759C43.7124 21.3099 43.849 21.008 43.849 20.6701C43.8534 20.4859 43.8177 20.303 43.7445 20.1351C43.662 19.9691 43.5424 19.8263 43.3956 19.7185C43.1991 19.5725 42.985 19.4538 42.7589 19.3653C42.4968 19.256 42.1803 19.136 41.8079 19.003C41.3662 18.8578 40.9329 18.6975 40.508 18.5222C40.0961 18.3554 39.7132 18.1199 39.3744 17.8251C39.0341 17.5237 38.7602 17.1499 38.5713 16.7289C38.3682 16.2881 38.2664 15.7294 38.2659 15.0526C38.2578 14.4251 38.3676 13.802 38.589 13.2181C38.7927 12.6861 39.1019 12.2046 39.4966 11.8048C39.9062 11.3983 40.3934 11.0858 40.9268 10.8875C41.534 10.6622 42.1752 10.5517 42.82 10.5611C43.509 10.5663 44.1947 10.6608 44.8611 10.8424C45.5713 11.0298 46.2567 11.3065 46.9023 11.6664L45.5413 14.4411Z" fill="white"/>
<path d="M52.1247 29.1898H48.916V15.0615H52.1247V16.1087C52.8098 15.2147 53.7435 14.7677 54.9258 14.7677C55.552 14.7625 56.172 14.8974 56.7433 15.163C57.2938 15.4188 57.7905 15.7837 58.2056 16.2374C58.6249 16.7002 58.9532 17.2434 59.1719 17.8365C59.4049 18.4638 59.5221 19.1308 59.5175 19.803C59.5232 20.4689 59.4059 21.1299 59.1719 21.7501C58.9512 22.3342 58.6264 22.8701 58.2145 23.3298C57.7993 23.7927 57.2955 24.1608 56.7353 24.4106C56.1751 24.6604 55.5708 24.7866 54.961 24.7809C53.8261 24.7809 52.8804 24.3768 52.124 23.5686L52.1247 29.1898ZM56.1637 19.8022C56.1654 19.5161 56.1146 19.2323 56.0141 18.9658C55.9167 18.7075 55.7687 18.4729 55.5795 18.2767C55.3875 18.0804 55.1621 17.9227 54.9146 17.8117C54.6585 17.6982 54.3832 17.6389 54.1047 17.6373C53.8262 17.6357 53.5503 17.6918 53.293 17.8024C53.0496 17.909 52.8293 18.0653 52.6453 18.262C52.4594 18.4624 52.3095 18.6955 52.2025 18.9503C52.0904 19.2138 52.033 19.4988 52.0342 19.7867C52.0322 20.0705 52.0865 20.3518 52.1935 20.613C52.2964 20.8653 52.4473 21.0936 52.6371 21.2843C52.8302 21.4772 53.0551 21.6327 53.3013 21.7431C53.5554 21.8597 53.8304 21.9192 54.1083 21.9175C54.3824 21.9195 54.654 21.8633 54.9064 21.7524C55.1495 21.6456 55.3695 21.4893 55.5533 21.2928C55.7378 21.0945 55.8877 20.8645 55.9961 20.613C56.1088 20.3587 56.167 20.0821 56.1667 19.8022H56.1637Z" fill="white"/>
<path d="M60.9906 19.7933C60.9858 19.1119 61.121 18.4377 61.3864 17.8191C61.6476 17.2116 62.0227 16.6688 62.4882 16.2251C62.9808 15.7598 63.55 15.3981 64.1665 15.159C64.8476 14.8926 65.5676 14.7602 66.2922 14.7679C67.0095 14.7611 67.7223 14.8898 68.3983 15.148C69.0172 15.3831 69.5895 15.7416 70.0853 16.2047C70.5578 16.6511 70.9364 17.201 71.1958 17.8176C71.4646 18.4678 71.5996 19.1731 71.5916 19.8848C71.5996 20.5976 71.4615 21.3035 71.187 21.9521C70.9239 22.5663 70.5459 23.1154 70.0766 23.5649C69.5813 24.0315 69.0049 24.3875 68.3809 24.6123C67.6909 24.8647 66.9664 24.99 66.2377 24.983C65.5233 24.9907 64.8129 24.8653 64.1382 24.6123C63.524 24.3838 62.9589 24.0244 62.4765 23.5556C62.0113 23.0955 61.6403 22.5361 61.3872 21.913C61.1169 21.2447 60.9817 20.5222 60.9906 19.7933ZM64.2783 19.8309C64.2748 20.1335 64.3305 20.4336 64.4417 20.7116C64.5457 20.9689 64.6915 21.2041 64.8724 21.4062C65.0529 21.6062 65.2697 21.764 65.5093 21.87C66.0111 22.0921 66.574 22.0921 67.0758 21.87C67.3153 21.7639 67.5321 21.606 67.7127 21.4062C67.8934 21.2041 68.039 20.9689 68.1427 20.7116C68.2527 20.4404 68.3087 20.1472 68.3068 19.8512C68.3077 19.5608 68.2518 19.2735 68.1427 19.008C68.039 18.7505 67.8934 18.515 67.7127 18.3127C67.5318 18.1133 67.3151 17.9558 67.0758 17.8496C66.5742 17.6265 66.0109 17.6265 65.5093 17.8496C65.2699 17.9556 65.0532 18.1132 64.8724 18.3127C64.6929 18.5127 64.5472 18.7448 64.4417 18.9986C64.3314 19.26 64.2744 19.5438 64.2747 19.8309H64.2783Z" fill="white"/>
<path d="M73.0645 15.2677H76.1107V16.809C76.4067 16.2786 76.8165 15.8346 77.3048 15.5154C77.7781 15.2161 78.3278 15.0664 78.954 15.0664H79.2152C79.3253 15.0681 79.4351 15.0803 79.5432 15.1028V18.2768C79.1355 18.0559 78.6858 17.9429 78.2306 17.947C77.524 17.947 76.9939 18.1764 76.6403 18.6352C76.2868 19.094 76.1103 19.7636 76.1107 20.6441V24.6812H73.0645V15.2677Z" fill="white"/>
<path d="M85.3484 18.1602V24.6826H82.0943V18.1602H81.0156V15.4387H82.0943V12.6641H85.3484V15.4387H87.1999V18.1602H85.3484Z" fill="white"/>
<path d="M88.3783 19.7933C88.3735 19.1119 88.5086 18.4377 88.774 17.8191C89.0352 17.2112 89.4108 16.6684 89.877 16.2251C90.3696 15.7598 90.9388 15.3981 91.5552 15.159C92.2362 14.8926 92.9561 14.7601 93.6806 14.7679C94.3978 14.761 95.1105 14.8897 95.7864 15.148C96.4054 15.3829 96.9776 15.7414 97.4732 16.2047C97.9459 16.6509 98.3244 17.2008 98.5835 17.8176C98.8523 18.4679 98.9873 19.1731 98.9792 19.8848C98.9873 20.5976 98.8492 21.3035 98.5748 21.9521C98.3119 22.5665 97.9339 23.1156 97.4645 23.5649C96.9695 24.0314 96.3934 24.3874 95.7697 24.6123C95.0798 24.8646 94.3554 24.99 93.6268 24.983C92.9122 24.9907 92.2018 24.8652 91.5268 24.6123C90.9131 24.3836 90.3483 24.0242 89.8661 23.5556C89.401 23.0955 89.0301 22.5361 88.7769 21.913C88.5059 21.2449 88.37 20.5224 88.3783 19.7933ZM91.6655 19.8309C91.6617 20.1336 91.7174 20.4337 91.8289 20.7116C91.9326 20.9689 92.0782 21.2041 92.2588 21.4062C92.4393 21.6062 92.6561 21.7641 92.8956 21.87C93.3973 22.0921 93.9602 22.0921 94.4619 21.87C94.7015 21.7641 94.9182 21.6062 95.0987 21.4062C95.2796 21.2042 95.4254 20.9689 95.5293 20.7116C95.6392 20.4403 95.6948 20.1472 95.6927 19.8512C95.6939 19.5609 95.6382 19.2736 95.5293 19.008C95.4254 18.7505 95.2796 18.515 95.0987 18.3127C94.918 18.1132 94.7013 17.9556 94.4619 17.8496C93.9604 17.6265 93.3972 17.6265 92.8956 17.8496C92.6562 17.9556 92.4395 18.1132 92.2588 18.3127C92.0796 18.5127 91.9341 18.7448 91.8289 18.9986C91.7195 19.2602 91.6637 19.544 91.6655 19.8309Z" fill="white"/>
<path d="M100.747 15.2687H103.998V16.4615C104.442 15.9109 104.891 15.5409 105.346 15.3515C105.855 15.1519 106.398 15.0554 106.944 15.0674C107.591 15.0674 108.145 15.1742 108.606 15.3879C109.06 15.5969 109.462 15.9074 109.783 16.2966C110.04 16.6039 110.225 16.9679 110.322 17.3602C110.422 17.7992 110.47 18.2492 110.465 18.7001V24.6812H107.214V19.9293C107.222 19.5505 107.188 19.1721 107.115 18.8007C107.064 18.5423 106.943 18.3038 106.765 18.1126C106.629 17.9723 106.463 17.8663 106.28 17.8029C106.094 17.741 105.9 17.7102 105.705 17.7116C105.154 17.7116 104.732 17.8798 104.438 18.2163C104.145 18.5527 103.999 19.0327 103.998 19.656V24.6812H100.747V15.2687Z" fill="white"/>
<path d="M122.243 15.3171V23.9154C122.247 24.3786 122.218 24.8415 122.157 25.3004C122.108 25.6678 122.027 26.0298 121.914 26.3818C121.768 26.7905 121.547 27.1662 121.263 27.4883C120.955 27.8411 120.594 28.1415 120.196 28.3785C119.753 28.6418 119.277 28.8415 118.782 28.9719C117.592 29.2775 116.346 29.259 115.165 28.918C114.623 28.7564 114.11 28.5044 113.646 28.172C113.228 27.8706 112.866 27.4926 112.579 27.0565C112.304 26.6362 112.115 26.1617 112.024 25.6624H115.564C115.783 26.274 116.28 26.5799 117.055 26.5799C117.715 26.5799 118.221 26.3881 118.574 26.0046C118.926 25.6211 119.102 25.0874 119.103 24.4033V23.52C118.896 23.7274 118.672 23.9167 118.435 24.0861C118.231 24.2309 118.013 24.3545 117.785 24.4549C117.562 24.5514 117.329 24.621 117.091 24.6621C116.826 24.7057 116.559 24.7267 116.292 24.7251C115.692 24.732 115.096 24.6156 114.539 24.3829C114.018 24.1658 113.546 23.8386 113.153 23.422C112.76 23.0055 112.455 22.5088 112.258 21.9635C112.037 21.3573 111.929 20.7139 111.937 20.0662C111.931 19.3916 112.048 18.722 112.284 18.0931C112.503 17.5116 112.824 16.977 113.23 16.5161C113.629 16.0653 114.114 15.7038 114.653 15.4537C115.218 15.1922 115.83 15.0602 116.449 15.0666C117.501 15.0666 118.386 15.4744 119.103 16.29V15.3171H122.243ZM115.199 19.8864C115.194 20.4495 115.403 20.9921 115.78 21.3974C115.962 21.5911 116.181 21.7441 116.422 21.8466C116.677 21.9562 116.951 22.0114 117.227 22.009C117.499 22.0105 117.767 21.9552 118.017 21.8466C118.259 21.7439 118.477 21.591 118.659 21.3974C118.841 21.2008 118.988 20.9724 119.093 20.7227C119.201 20.4629 119.257 20.1828 119.257 19.8997C119.257 19.6165 119.201 19.3364 119.093 19.0766C118.986 18.829 118.838 18.6034 118.653 18.4111C118.467 18.2186 118.246 18.066 118.003 17.9618C117.758 17.8544 117.496 17.7991 117.23 17.7994C116.961 17.7979 116.695 17.8562 116.45 17.9702C116.212 18.0805 115.995 18.2328 115.808 18.4202C115.623 18.6081 115.474 18.8309 115.369 19.0766C115.257 19.3308 115.199 19.607 115.199 19.8864Z" fill="white"/>
<path d="M123.717 19.7933C123.713 19.1119 123.852 18.4378 124.124 17.8191C124.393 17.2117 124.778 16.669 125.256 16.2251C125.763 15.7598 126.348 15.3981 126.981 15.159C127.681 14.8926 128.422 14.7602 129.166 14.7679C129.904 14.7611 130.636 14.8897 131.331 15.148C131.967 15.3829 132.555 15.7414 133.065 16.2047C133.55 16.6511 133.939 17.201 134.206 17.8176C134.482 18.4678 134.621 19.1731 134.613 19.8848C134.621 20.5976 134.479 21.3035 134.197 21.9521C133.926 22.5663 133.538 23.1154 133.056 23.5649C132.547 24.0316 131.954 24.3875 131.313 24.6123C130.604 24.8647 129.859 24.9901 129.11 24.983C128.376 24.9907 127.646 24.8652 126.953 24.6123C126.322 24.3836 125.741 24.0242 125.245 23.5556C124.766 23.0957 124.383 22.5363 124.122 21.913C123.845 21.2444 123.708 20.5219 123.717 19.7933ZM127.096 19.8309C127.092 20.1336 127.15 20.4338 127.265 20.7116C127.371 20.969 127.521 21.2043 127.707 21.4062C127.892 21.6062 128.115 21.7641 128.361 21.87C128.877 22.0921 129.455 22.0921 129.971 21.87C130.217 21.7641 130.44 21.6062 130.626 21.4062C130.811 21.2039 130.961 20.9688 131.068 20.7116C131.181 20.4402 131.238 20.1471 131.236 19.8512C131.237 19.5609 131.18 19.2737 131.068 19.008C130.961 18.7506 130.811 18.5152 130.626 18.3127C130.44 18.1132 130.217 17.9556 129.971 17.8496C129.456 17.6265 128.877 17.6265 128.361 17.8496C128.115 17.9554 127.891 18.113 127.705 18.3127C127.521 18.5125 127.371 18.7447 127.263 18.9986C127.151 19.2602 127.094 19.5441 127.096 19.8309Z" fill="white"/>
<path fill-rule="evenodd" clip-rule="evenodd" d="M17.0711 2.57653C18.7122 2.3461 20.5409 2.82356 22.3276 4.30476C23.9513 5.65086 24.5019 7.39725 24.5199 8.95209C24.5372 10.4471 24.071 11.7982 23.6143 12.634L23.5458 12.7593L22.5446 14.0165C23.4173 14.2371 24.3225 14.6506 25.1711 15.354C26.6829 16.6073 27.418 18.2231 27.6441 19.6872C27.7564 20.414 27.7467 21.1226 27.6344 21.7556C27.527 22.3612 27.3037 23.017 26.8885 23.5383L17.1199 35.8045L17.0763 35.8513C16.421 36.5539 15.2735 37.3061 13.8069 37.5081C12.2736 37.7193 10.5309 37.3091 8.81763 35.8888C7.03498 34.4109 6.39501 32.62 6.46468 30.9454C6.53017 29.3714 7.21214 28.0393 7.83781 27.2537L8.73787 26.1235C7.78131 25.9785 6.84535 25.5617 5.97414 24.8395C4.00419 23.2064 3.20434 21.3344 3.21694 19.5477C3.22874 17.875 3.95149 16.4945 4.65331 15.6817L13.4793 4.59907C14.2251 3.66259 15.4858 2.79911 17.0711 2.57653ZM15.1803 23.2637C15.7619 22.6478 16.2437 22.0207 16.6017 21.4789L20.0321 17.1713C20.7681 17.0233 22.0678 17.0308 23.1327 17.9136C23.9585 18.5983 24.3351 19.4494 24.4511 20.2005C24.5099 20.5812 24.4982 20.9172 24.4536 21.1683C24.4152 21.3848 24.365 21.4739 24.3655 21.4766L14.6995 33.6139C14.474 33.8369 13.9963 34.1541 13.3745 34.2398C12.785 34.321 11.9251 34.2155 10.856 33.3292C9.8563 32.5004 9.66838 31.7057 9.69419 31.0852C9.72419 30.3641 10.0611 29.6918 10.3465 29.3334L15.1803 23.2637ZM12.7637 21.0683C12.2609 21.5872 11.6818 22.0724 11.0744 22.413C10.4966 22.7371 9.96682 22.8892 9.49705 22.8841C9.05702 22.8793 8.56434 22.7374 8.01253 22.2799C6.69837 21.1904 6.44467 20.2253 6.44928 19.5715C6.45453 18.827 6.79978 18.1789 7.08797 17.8513L7.1145 17.8211L15.988 6.67881C16.2614 6.3355 16.8057 5.94285 17.5118 5.84372C18.162 5.75242 19.1111 5.88765 20.2892 6.86432C21.0373 7.48452 21.2789 8.22988 21.2877 8.99093C21.2964 9.74448 21.0674 10.471 20.8492 10.9155L12.7637 21.0683Z" fill="white"/>
</svg>
