<svg width="73" height="27" viewBox="0 0 73 27" fill="none" xmlns="http://www.w3.org/2000/svg"><g opacity=".6" clip-path="url(#a)" fill="#fff"><path d="M47.591 0h-3.41c-.078 0-.15.05-.19.13l-.672 1.333c-.093.184.014.423.19.423h.791l-4.603 9.13-1.408-2.792-.91-1.807-2.285-4.531h4.57l-1.659 3.289a.325.325 0 0 0 0 .293l.648 1.284c.074.148.305.148.378 0l2.454-4.866.73-1.463C42.31.238 42.203 0 42.028 0h-9.295c-.174 0-.281.238-.19.421l.732 1.463 3.196 6.338.91 1.807 1.766 3.5c.216.43.89.43 1.106 0l5.87-11.643h.797c.077 0 .15-.05.19-.13L47.78.423c.093-.184-.014-.423-.19-.423ZM36.75 10.986l-.647-1.283c-.075-.148-.304-.148-.379 0l-.661 1.311-4.604-9.128h.793c.176 0 .283-.24.19-.423L30.77.13c-.04-.082-.112-.13-.19-.13h-3.41c-.176 0-.283.239-.19.423l.671 1.333c.04.081.113.13.19.13h.797l5.871 11.645c.217.43.89.43 1.107 0l1.134-2.25a.325.325 0 0 0 0-.293v-.002ZM.85 16.316c-.063-.218.064-.374.286-.374h1.063c.127 0 .253.109.286.218l1.92 7.15h.063l2.587-7.352c.033-.094.143-.17.27-.17h.286c.127 0 .238.076.27.17l2.62 7.352h.064l1.889-7.15c.032-.109.159-.218.285-.218h1.063c.223 0 .35.156.286.374l-3 10.469a.305.305 0 0 1-.285.218h-.254c-.111 0-.238-.077-.27-.171L7.485 19.09h-.08L4.66 26.832c-.032.094-.159.17-.27.17h-.253a.305.305 0 0 1-.286-.217l-3-10.469ZM20.978 15.785c3.174 0 5.713 2.509 5.713 5.624 0 3.115-2.54 5.592-5.713 5.592-3.175 0-5.699-2.477-5.699-5.592 0-3.115 2.524-5.624 5.699-5.624Zm0 9.658c2.269 0 4.127-1.807 4.127-4.035 0-2.229-1.857-4.066-4.127-4.066-2.271 0-4.112 1.854-4.112 4.066 0 2.211 1.857 4.035 4.112 4.035ZM33.849 15.785c3.174 0 5.714 2.509 5.714 5.624 0 3.115-2.54 5.592-5.714 5.592-3.175 0-5.699-2.477-5.699-5.592 0-3.115 2.524-5.624 5.699-5.624Zm0 9.658c2.269 0 4.127-1.807 4.127-4.035 0-2.229-1.857-4.066-4.127-4.066-2.27 0-4.112 1.854-4.112 4.066 0 2.211 1.857 4.035 4.112 4.035ZM41.834 16.237c0-.156.127-.296.286-.296h3.651c3.063 0 5.572 2.446 5.572 5.436 0 2.991-2.509 5.468-5.572 5.468H42.12a.295.295 0 0 1-.286-.296V16.237Zm3.715 9.129c2.334 0 4.031-1.683 4.031-3.989 0-2.305-1.699-3.956-4.031-3.956h-2.095v7.945h2.095ZM58.517 15.785c3.174 0 5.713 2.509 5.713 5.624 0 3.115-2.539 5.592-5.713 5.592-3.175 0-5.699-2.477-5.699-5.592 0-3.115 2.524-5.624 5.699-5.624Zm0 9.658c2.269 0 4.127-1.807 4.127-4.035 0-2.229-1.857-4.066-4.127-4.066-2.27 0-4.112 1.854-4.112 4.066 0 2.211 1.856 4.035 4.112 4.035ZM65.785 25.273c.144-.203.27-.436.413-.638.142-.203.364-.265.539-.124.096.077 1.318 1.075 2.54 1.075 1.095 0 1.793-.655 1.793-1.45 0-.935-.825-1.526-2.397-2.164-1.62-.67-2.889-1.496-2.889-3.303 0-1.216.953-2.882 3.477-2.882 1.588 0 2.777.81 2.936.919a.366.366 0 0 1 .096.529c-.127.186-.27.405-.397.593-.127.203-.334.295-.556.156-.111-.063-1.222-.78-2.142-.78-1.333 0-1.794.826-1.794 1.403 0 .888.698 1.432 2.016 1.963 1.841.732 3.412 1.588 3.412 3.49 0 1.62-1.476 2.943-3.54 2.943-1.937 0-3.159-.997-3.412-1.23-.142-.125-.254-.234-.096-.5h.001Z"/></g><defs><clipPath id="a"><path fill="#fff" transform="translate(.834)" d="M0 0h72v27H0z"/></clipPath></defs></svg>