<svg width="101" height="17" viewBox="0 0 101 17" fill="none" xmlns="http://www.w3.org/2000/svg"><path d="M.04 7.615h3.293v3.361H.039v-3.36Z" fill="#fff" fill-opacity=".6"/><path d="M7.948.906h.391c2.524 0 3.7 1.35 4.192 4.951l.782-.035L13.209.11H.365L.238 5.822l.752.035c.13-1.35.287-2.077.626-2.805.6-1.35 1.85-2.146 3.388-2.146h.547v12.43c0 1.315-.078 1.73-.39 2.043-.262.242-.783.346-1.382.346h-.6v.83h7.14v-.83h-.602c-.596 0-1.12-.104-1.378-.346-.312-.312-.39-.728-.39-2.043V.906" fill="#fff" fill-opacity=".6"/><path d="M10.115 7.615h3.294v3.361h-3.294v-3.36ZM19.842 7.615h3.297v3.361h-3.297v-3.36ZM29.725 7.615h3.294v3.361h-3.294v-3.36ZM41.924 16.555l4.162-14.52V13.43c0 1.243-.071 1.68-.353 1.983-.212.235-.703.336-1.248.336h-.211v.806h5.882v-.806h-.306c-.541 0-1.035-.101-1.247-.336-.282-.303-.353-.74-.353-1.983V3.716c0-1.244.07-1.714.353-2.017.235-.201.706-.336 1.247-.336h.306V.59h-4.564l-3.436 11.73L38.796.59h-4.542v.773h.423c1.248 0 1.483.269 1.483 1.882v9.243c0 1.48-.07 2.084-.283 2.521-.235.437-.732.74-1.247.74h-.376v.806H39.1v-.806h-.306c-.612 0-1.106-.236-1.392-.706-.279-.47-.35-.908-.35-2.555V2.035l4.138 14.52h.733M55.216 5.195c-2.918 0-4.823 2.286-4.823 5.883 0 3.462 1.905 5.814 4.75 5.814 2.87 0 4.775-2.352 4.775-5.848 0-3.462-1.906-5.849-4.702-5.849Zm-.094.773c.843 0 1.573.538 1.973 1.446.376.84.54 1.983.54 3.63 0 3.394-.823 5.075-2.493 5.075-1.667 0-2.47-1.68-2.47-5.109 0-1.613.167-2.756.544-3.596.373-.874 1.13-1.446 1.906-1.446ZM63.826.422 60.484.59v.74h.162c.988 0 1.203.336 1.203 1.915V14.17c0 1.412-.047 1.782-.235 2.386h.776c.585-.974.73-1.142.965-1.142.114 0 .228.033.397.201 1.156.941 1.65 1.143 2.709 1.143 2.537 0 4.373-2.454 4.373-5.95 0-3.293-1.698-5.511-4.236-5.511-1.317 0-2.278.638-2.772 1.78V.423Zm2.44 5.714c1.51 0 2.285 1.613 2.285 4.773 0 3.327-.8 5.041-2.329 5.041-1.694 0-2.585-1.748-2.585-4.94 0-1.614.212-2.723.706-3.563.444-.807 1.2-1.311 1.923-1.311ZM75.187 5.362l-3.432.202v.74h.259c.985 0 1.197.336 1.197 1.882v5.68c0 1.547-.212 1.916-1.197 1.916h-.373v.773h5.122v-.773h-.37c-.991 0-1.206-.336-1.206-1.916V5.362M74.06.455c-.73 0-1.318.571-1.318 1.345 0 .706.588 1.31 1.294 1.31.73 0 1.294-.57 1.294-1.31 0-.74-.565-1.345-1.27-1.345ZM81.139.422 77.707.59v.74h.256c.988 0 1.2.336 1.2 1.915v10.621c0 1.58-.212 1.917-1.2 1.917h-.373v.772h5.125v-.772h-.376c-.992 0-1.2-.337-1.2-1.917V.422ZM92.078 10.976c-.115-3.562-1.809-5.78-4.37-5.78-2.474 0-4.259 2.42-4.259 5.78 0 3.597 1.761 5.916 4.49 5.916 1.765 0 2.989-.941 4-3.025l-.705-.37c-.823 1.748-1.647 2.454-2.918 2.454-1.858 0-2.655-1.479-2.679-4.975h6.44Zm-6.417-.84c.02-2.52.84-4.1 2.161-4.1 1.318 0 2.094 1.546 2.07 4.1h-4.231ZM95.049 7.615h3.294v3.361h-3.294v-3.36ZM99.578 4.92c.198 0 .392.05.582.153.189.102.337.248.442.438a1.19 1.19 0 0 1 .002 1.182c-.104.188-.25.334-.437.438a1.197 1.197 0 0 1-1.179 0 1.194 1.194 0 0 1-.596-1.027c0-.206.053-.404.16-.593.106-.19.254-.336.443-.438.19-.102.384-.153.583-.153Zm0 .197c-.166 0-.328.043-.485.128a.918.918 0 0 0-.37.365.99.99 0 0 0 .854 1.48.993.993 0 0 0 .856-.496.992.992 0 0 0-.002-.984.908.908 0 0 0-.369-.365 1.007 1.007 0 0 0-.484-.128Zm-.52 1.64V5.485h.439c.15 0 .258.012.325.035.067.024.12.065.16.123a.337.337 0 0 1-.04.43.395.395 0 0 1-.265.116.346.346 0 0 1 .108.068c.052.05.115.134.189.252l.156.25h-.253l-.113-.201c-.09-.157-.16-.256-.214-.296a.262.262 0 0 0-.165-.044h-.121v.54h-.206Zm.206-.715h.25c.12 0 .202-.018.246-.054a.174.174 0 0 0 .065-.142.172.172 0 0 0-.032-.102.188.188 0 0 0-.087-.067.649.649 0 0 0-.207-.022h-.235v.387Z" fill="#fff" fill-opacity=".6"/></svg>