<svg width="66" height="33" viewBox="0 0 66 33" fill="none" xmlns="http://www.w3.org/2000/svg"><path d="M62.857 8.47h.658l-.55.378.215.658-.55-.378-.55.378.216-.658-.55-.378h.658l.215-.604m.238-2.622-.55.378.215.604-.55-.378-.55.378.216-.604-.55-.378h.657l.216-.604.216.604h.68Zm-1.468 6.992-.55-.378h.658l.216-.604.216.604h.658l-.55.378.215.658-.55-.378-.55.378.237-.658Zm-.604-3.712c0 2.568-2.072 4.64-4.586 4.64-2.514 0-4.585-2.072-4.585-4.64 0-2.568 2.071-4.64 4.585-4.64 2.514-.01 4.586 2.072 4.586 4.64Zm-.485-5.74-.55.377.215.659-.55-.378-.55.378.215-.659-.55-.377h.658l.216-.604.216.604h.68Zm-3.227-.928-.55.378.216.658-.55-.378-.55.378.215-.658-.55-.378h.658l.216-.604.216.604h.68Zm-3.388.928-.55.377.216.659-.55-.378-.55.378.215-.659-.55-.377h.658l.216-.604.215.604h.68Zm-2.244 9.063-.55.378.215.658-.55-.377-.55.377.216-.658-.55-.378h.658l.215-.604.216.604h.68Zm-.27-6.603-.55.378.216.604-.55-.378-.55.378.215-.604-.55-.378h.658l.216-.604.215.604h.68ZM49.37 8.902l-.55-.378h.658l.216-.604.216.604h.658l-.55.378.215.658-.55-.378-.55.378.237-.658Zm3.108 5.567-.55-.377h.658l.215-.605.216.605h.659l-.55.377.215.659-.55-.378-.55.377.237-.658Zm3.388.713-.55-.378h.658l.216-.604.215.604h.659l-.55.377.215.605-.55-.378-.55.378.237-.604Zm3.28-.713-.55-.377h.658l.216-.605.215.605h.659l-.55.377.215.659-.55-.378-.55.377.237-.658Zm5.47-5.945C64.615 3.83 60.85 0 56.2 0c-4.65 0-8.416 3.82-8.416 8.524 0 4.316 3.065 7.704 7.154 8.416v2.406h-1.694c-.108 0-.27.108-.27.27v2.19c0 .108.108.27.27.27h1.694v2.299c0 .107.108.27.27.27h2.071c.108 0 .27-.109.27-.27v-2.299h1.694c.108 0 .27-.108.27-.27v-2.19c0-.108-.108-.27-.27-.27h-1.694V16.93c4.003-.712 7.067-4.089 7.067-8.405ZM18.633 11.373c.162 1.748 1.317 2.298 3.119 2.298 1.316 0 2.622-.442 2.622-1.64 0-.712-.55-1.09-1.479-1.425-.874-.323-2.071-.55-3.28-.873-2.395-.659-4.91-1.694-4.91-4.759 0-3.55 3.712-4.974 6.83-4.974 3.28 0 6.561 1.532 6.723 5.028 0 .162-.108.27-.27.27H24.05c-.108 0-.216-.108-.27-.216-.065-1.252-1.37-1.737-2.687-1.737-.928 0-2.071.324-2.071 1.37 0 .604.604.982 1.478 1.252.928.27 2.125.496 3.334.874 2.406.658 4.866 1.748 4.866 4.758 0 4.154-3.604 5.46-7.315 5.46-3.766 0-7.154-1.586-7.262-5.632 0-.162.108-.27.27-.27h4.046c.086 0 .194.108.194.216Zm11.038-2.838c0-4.694 3.766-8.524 8.47-8.524 3.658 0 6.776 2.352 7.92 5.632.054.162-.054.324-.215.324h-3.712c-.443 0-1.198-2.072-3.992-2.072-2.569 0-4.586 2.072-4.586 4.64 0 2.568 2.071 4.64 4.586 4.64 1.747 0 3-.875 3.938-2.245h-2.018c-.108 0-.27-.108-.27-.27V7.986c0-.108.108-.27.27-.27h6.064c.108 0 .27.108.27.27v8.47c0 .108-.108.27-.27.27h-2.19c-.108 0-.27-.109-.27-.27v-1.479c-1.597 1.317-3.345 2.072-5.524 2.072-4.705 0-8.47-3.82-8.47-8.513Zm-25.4 1.413a.232.232 0 0 0-.215.216v2.622c0 .108.108.216.216.216h8.686c.108 0 .27.108.27.27v3.237c0 .107-.108.27-.27.27H.28c-.108 0-.27-.108-.27-.27V.604c0-.108.108-.27.27-.27H12.73c.108 0 .27.108.27.27v2.957c-.054.162-.162.27-.27.27H4.315c-.162 0-.27.107-.27.215v2.352c0 .108.108.216.216.216h7.65c.108 0 .27.108.27.27v2.838c0 .108-.108.27-.27.27M65.09 27.695h-.604l-.766 2.946-.82-2.946h-.605l1.144 3.712-.162.55c-.108.378-.215.443-.377.443-.108 0-.216-.054-.324-.054l-.054.55c.108 0 .27.054.378.054.442 0 .712-.216.874-.82m-1.738-3.777c0-.215 0-.442.054-.658h-.55v.55c-.216-.323-.55-.604-.874-.604-.82 0-1.316.605-1.316 1.856 0 1.252.496 1.856 1.251 1.856.378 0 .713-.216.928-.604v.55c0 .604-.27 1.036-.982 1.036-.323 0-.712-.162-.981-.324l-.054.604c.27.108.766.216 1.035.216.767 0 1.533-.442 1.533-1.424v-3.064l-.044.01Zm-2.19 1.144c0-.928.27-1.37.766-1.37.55 0 .766.496.766 1.37 0 .928-.27 1.37-.766 1.37-.54.054-.766-.442-.766-1.37Zm-3.873 0c0 1.144.496 1.856 1.424 1.856.928 0 1.424-.712 1.424-1.856 0-1.144-.496-1.856-1.424-1.856-.928 0-1.425.766-1.425 1.856Zm.604 0c0-.928.27-1.37.82-1.37.55 0 .82.496.82 1.37 0 .928-.27 1.37-.82 1.37-.55.054-.82-.442-.82-1.37Zm-1.867 1.856h.604v-5.352h-.604v5.352Zm-3.496-1.856c0 1.144.497 1.856 1.424 1.856.928 0 1.425-.712 1.425-1.856 0-1.144-.497-1.856-1.425-1.856-.927 0-1.424.766-1.424 1.856Zm.604 0c0-.928.27-1.37.82-1.37.55 0 .82.496.82 1.37 0 .928-.27 1.37-.82 1.37-.55.054-.82-.442-.82-1.37Zm-.927-1.694c-.162-.108-.497-.162-.713-.162-.982 0-1.586.712-1.586 1.91 0 1.036.55 1.856 1.586 1.856.27 0 .605-.054.766-.162l-.053-.55c-.216.108-.443.216-.713.216-.604 0-.981-.497-.981-1.317 0-.982.377-1.37.981-1.37.27 0 .497.054.713.162v-.583Zm-5.46 3.55h.604v-2.18c0-.658.27-.981.766-.981.378 0 .604.27.604.82v2.352h.605V28.85c0-.82-.443-1.144-1.036-1.144-.443 0-.712.162-.928.604v-.55h-.561c0 .27.054.55.054.766v2.838h-.108v-.011Zm-3.615-2.45c0-1.531.55-2.07 1.198-2.07.82 0 1.143.98 1.143 1.963 0 1.532-.55 2.072-1.197 2.072-.863 0-1.144-.982-1.144-1.964Zm-.647 0c0 1.533.712 2.515 1.802 2.515 1.143 0 1.856-.874 1.856-2.568 0-1.532-.713-2.514-1.802-2.514-1.209 0-1.856.874-1.856 2.568Zm-2.903 2.45h.605v-5.352h-.605v5.352Zm-1.36-1.36c0 .497-.323.928-.82.928-.377 0-.604-.27-.604-.658 0-.442.324-.766 1.036-.766h.443v.497h-.054Zm-1.693-1.478c.215-.216.55-.377.928-.377.27 0 .496.054.604.215.108.162.108.324.108.605v.162h-.324c-1.252 0-1.694.55-1.694 1.197 0 .712.442 1.036 1.036 1.036.55 0 .874-.27.982-.55l.054.496h.55c0-.108-.054-.324-.054-.55v-1.9c0-.496-.162-.711-.324-.873-.108-.108-.442-.324-.982-.324-.323 0-.712.108-1.035.27-.011-.011.15.593.15.593Zm-.659-.712c-.161-.108-.496-.162-.712-.162-.981 0-1.586.712-1.586 1.91 0 1.036.55 1.856 1.586 1.856.27 0 .605-.054.766-.162l-.053-.55c-.216.108-.443.216-.713.216-.604 0-.981-.497-.981-1.317 0-.982.442-1.37.981-1.37.27 0 .497.054.712.162v-.583Zm-3.603-.874h.658v-.712h-.658v.712Zm.054 4.424h.604v-3.658h-.604v3.658Zm-.767-3c0-.215 0-.442.055-.658h-.55v.55c-.217-.323-.551-.604-.875-.604-.82 0-1.316.605-1.316 1.856 0 1.252.496 1.856 1.251 1.856.378 0 .713-.216.928-.604v.55c0 .604-.27 1.036-.982 1.036-.323 0-.712-.162-.981-.324l-.054.604c.27.108.766.216 1.036.216.766 0 1.532-.442 1.532-1.424v-3.064l-.044.01Zm-2.18 1.144c0-.928.27-1.37.767-1.37.55 0 .766.496.766 1.37 0 .928-.27 1.37-.766 1.37-.496.054-.766-.442-.766-1.37Zm-3.883 0c0 1.144.496 1.856 1.424 1.856.928 0 1.424-.712 1.424-1.856 0-1.144-.496-1.856-1.424-1.856-.928 0-1.424.766-1.424 1.856Zm.604 0c0-.928.27-1.37.82-1.37.55 0 .82.496.82 1.37 0 .928-.27 1.37-.82 1.37-.55.054-.82-.442-.82-1.37Zm-1.802 1.856h.604v-5.352h-.604v5.352Zm-3.55-1.856c0 1.144.496 1.856 1.424 1.856.928 0 1.425-.712 1.425-1.856 0-1.144-.497-1.856-1.425-1.856-.938 0-1.424.766-1.424 1.856Zm.593 0c0-.928.27-1.37.82-1.37.55 0 .82.496.82 1.37 0 .928-.27 1.37-.82 1.37-.539.054-.82-.442-.82-1.37Zm-.927-1.694c-.162-.108-.497-.162-.713-.162-.982 0-1.586.712-1.586 1.91 0 1.036.55 1.856 1.586 1.856.27 0 .605-.054.766-.162l-.053-.55c-.216.108-.443.216-.713.216-.604 0-.982-.497-.982-1.317 0-.982.443-1.37.982-1.37.27 0 .497.054.713.162v-.583Zm-4.694 1.424c0-.874.324-1.143.712-1.143.496 0 .712.377.712 1.143H14.4Zm2.018.497V29.4c0-1.09-.443-1.748-1.252-1.748-.874 0-1.37.712-1.37 1.856 0 1.144.496 1.856 1.424 1.856.378 0 .712-.054.982-.216v-.55c-.216.162-.55.27-.82.27-.658 0-.982-.378-.982-1.252h2.018v.108Zm-3.766.27c0 .496-.324.927-.82.927-.378 0-.604-.27-.604-.658 0-.442.323-.766 1.035-.766h.443v.497h-.054Zm-1.694-1.479c.216-.216.55-.377.928-.377.27 0 .496.054.604.215.108.162.108.324.108.605v.162h-.324c-1.251 0-1.694.55-1.694 1.197 0 .712.443 1.036 1.036 1.036.55 0 .82-.27.982-.55l.054.496h.55c0-.108-.054-.324-.054-.55v-1.9c0-.496-.162-.711-.324-.873-.107-.108-.442-.324-.981-.324-.324 0-.713.108-1.036.27-.011-.011.15.593.15.593ZM7.46 31.353h.604v-2.18c0-.658.27-.981.766-.981.378 0 .604.27.604.82v2.352h.605V28.85c0-.82-.443-1.144-1.036-1.144-.442 0-.712.162-.928.604v-.55h-.55c0 .27.054.55.054.766v2.838l-.12-.011Zm-.389-3.658h-.604l-.766 2.946-.82-2.946h-.604l1.144 3.712-.162.55c-.054.378-.216.443-.378.443-.108 0-.216 0-.324-.054l-.054.55c.108 0 .27.054.378.054.443 0 .712-.216.874-.82.01-.01 1.316-4.435 1.316-4.435Zm-3.226.928H2.433v.55h.82v1.587c-.162.107-.443.107-.604.107-1.09 0-1.587-.873-1.587-2.125 0-1.198.713-1.856 1.533-1.856.377 0 .766.108 1.143.324v-.659c-.323-.161-.712-.215-1.143-.215-1.317 0-2.19.982-2.19 2.514 0 1.37.657 2.568 2.244 2.568.442 0 .928-.162 1.197-.27v-2.525Zm46.063-4.478h.604v-3.172h.658v-.496h-.658v-.766c0-.378.108-.55.442-.55.162 0 .27 0 .324.107v-.55c-.108-.054-.324-.054-.496-.054-.659 0-.874.378-.874.982v.82h-.55v.496h.55m-3.712 1.381c0 1.144.496 1.856 1.424 1.856.928 0 1.424-.712 1.424-1.856 0-1.143-.496-1.855-1.424-1.855-.939-.054-1.424.712-1.424 1.855Zm.593 0c0-.927.27-1.37.82-1.37.55 0 .82.497.82 1.37 0 .928-.27 1.37-.82 1.37-.55 0-.82-.496-.82-1.37Zm-2.341-1.855h-.604l-.767 2.945-.82-2.945h-.604l1.144 3.711-.162.55c-.108.378-.216.443-.378.443-.107 0-.215-.054-.323-.054v.55c.108.054.27.054.377.054.443 0 .713-.216.875-.82l1.262-4.434Zm-3.118 3.107c-.108.054-.216.108-.378.108-.27 0-.378-.162-.378-.55v-2.126h.766v-.486h-.766v-.927l-.604.161v.767h-.55v.496h.55v2.352c0 .658.27.874.82.874.162 0 .378-.054.496-.108v-.55h.044v-.01Zm-4.155-1.575c0-.874.324-1.144.713-1.144.496 0 .712.378.712 1.144h-1.425Zm2.018.485v-.323c0-1.09-.442-1.748-1.252-1.748-.873 0-1.37.712-1.37 1.855 0 1.144.497 1.856 1.424 1.856.378 0 .713-.054.982-.215l-.054-.55c-.215.161-.55.269-.82.269-.658 0-.981-.378-.981-1.252h2.071v.108Zm-3.873-2.784h.658v-.712h-.658v.712Zm.053 4.424h.55v-3.657h-.55v3.657Zm-.55-3.55c-.162-.107-.496-.161-.712-.161-.982 0-1.586.712-1.586 1.91 0 1.035.55 1.855 1.586 1.855.27 0 .604-.054.766-.162l-.054-.55c-.216.108-.442.216-.712.216-.604 0-.982-.496-.982-1.316 0-.982.378-1.37.982-1.37.27 0 .496.053.712.161v-.582Zm-5.621 1.748c0 1.144.496 1.856 1.424 1.856.928 0 1.424-.712 1.424-1.856 0-1.143-.496-1.855-1.424-1.855-.885-.054-1.424.712-1.424 1.855Zm.658 0c0-.927.27-1.37.82-1.37.55 0 .82.497.82 1.37 0 .928-.27 1.37-.82 1.37-.55 0-.82-.496-.82-1.37Zm-1.317-3.064c-.215-.108-.55-.162-.873-.162-.767 0-1.37.443-1.37 1.252 0 .658.215.928 1.089 1.478.658.378.766.604.766 1.036 0 .378-.324.766-.874.766-.27 0-.658-.162-.928-.324v.659c.27.107.658.215 1.036.215.928 0 1.424-.604 1.424-1.424 0-.55-.27-.982-1.036-1.424-.712-.443-.82-.604-.82-.928 0-.443.324-.766.767-.766.323 0 .604.108.82.215v-.593Zm-6.991 4.866h.604v-2.19c0-.658.27-.982.766-.982.378 0 .604.27.604.82v2.352h.594v-2.514c0-.82-.443-1.143-1.036-1.143-.443 0-.712.161-.928.604v-.55h-.55c0 .27.053.55.053.766v2.837h-.107ZM20.3 22.84c0 .496-.324.928-.82.928-.378 0-.604-.27-.604-.659 0-.442.323-.766 1.036-.766h.442v.497H20.3Zm-1.694-1.532c.216-.216.55-.378.928-.378.27 0 .496.054.604.216.108.162.108.323.108.604v.162h-.324c-1.251 0-1.694.55-1.694 1.198 0 .712.443 1.035 1.036 1.035.55 0 .82-.27.982-.55l.054.496h.55c0-.108-.054-.323-.054-.55v-1.91c0-.496-.162-.712-.323-.874-.108-.108-.443-.323-.982-.323-.324 0-.712.107-1.036.27-.022 0 .15.604.15.604Zm-2.74.712c0-.874.323-1.144.711-1.144.497 0 .713.378.713 1.144h-1.425Zm2.028.485v-.323c0-1.09-.443-1.748-1.252-1.748-.885 0-1.37.712-1.37 1.855 0 1.144.496 1.856 1.424 1.856.378 0 .712-.054.982-.215l-.054-.55c-.216.161-.55.269-.82.269-.658 0-.982-.378-.982-1.252h2.072v.108ZM12.1 25.677h.604V23.66c.216.378.496.55.928.55.766 0 1.251-.604 1.251-1.856 0-1.251-.496-1.856-1.251-1.856-.55 0-.766.27-.928.605v-.562h-.55c0 .216.054.443.054.659v4.477H12.1Zm.604-3.334c0-.927.27-1.37.766-1.37.55 0 .766.497.766 1.37 0 .928-.27 1.37-.766 1.37-.55 0-.766-.496-.766-1.37Zm-3.992 0c0 1.144.496 1.856 1.424 1.856.928 0 1.424-.712 1.424-1.856 0-1.143-.496-1.855-1.424-1.855-.928-.054-1.424.712-1.424 1.855Zm.604 0c0-.927.27-1.37.82-1.37.55 0 .82.497.82 1.37 0 .928-.27 1.37-.82 1.37-.55 0-.82-.496-.82-1.37ZM6.91 24.145h.604v-1.91c0-.765.324-1.197.766-1.197h.216v-.604c-.55 0-.82.162-1.036.604v-.55h-.55c0 .27.054.55.054.766v2.891H6.91Zm-.712-3.657h-.605v2.19c0 .658-.27.982-.766.982-.377 0-.604-.216-.604-.82v-2.352H3.62v2.514c0 .82.442 1.143 1.036 1.143.442 0 .712-.162.927-.604v.55h.55c0-.27-.053-.55-.053-.766v-2.837h.119ZM.63 24.145h2.406v-.55H1.235v-1.748h1.586v-.55H1.235V19.71H2.93v-.55H.631v4.984Z" fill="#fff" fill-opacity=".6"/></svg>