<svg width="109" height="23" viewBox="0 0 109 23" fill="none" xmlns="http://www.w3.org/2000/svg"><path d="M36.535 6.194 33.715 5.09l-.003 7.646a2.53 2.53 0 1 1-5.06 0V6.194L25.828 5.09v7.474a5.352 5.352 0 0 0 5.352 5.348 5.352 5.352 0 0 0 5.353-5.346h.002V6.194ZM84.451 17.609h2.82l.005-7.344a2.53 2.53 0 0 1 5.06 0l.001 7.344h2.82v-7.171h.002a5.353 5.353 0 0 0-10.706-.002h-.002v7.173ZM46.768 14.178a3.513 3.513 0 0 1-2.583 1.127 3.512 3.512 0 0 1-2.584-1.127 3.897 3.897 0 0 1-1.042-2.662c0-1.02.393-1.97 1.042-2.663a3.508 3.508 0 0 1 2.584-1.125c1.034 0 1.933.433 2.583 1.125a3.897 3.897 0 0 1 1.042 2.663c0 1.02-.393 1.97-1.042 2.662Zm1.973-7.226a6.408 6.408 0 0 0-4.556-1.863 6.486 6.486 0 0 0-4.577 1.86 6.379 6.379 0 0 0-1.897 4.567c0 1.788.725 3.403 1.896 4.568a6.462 6.462 0 0 0 4.578 1.88h.008a6.31 6.31 0 0 0 3.617-1.107l2.801.925v-6.266a6.4 6.4 0 0 0-1.87-4.564ZM79.204 14.178a3.512 3.512 0 0 1-2.583 1.127 3.51 3.51 0 0 1-2.584-1.127 3.894 3.894 0 0 1-1.042-2.662c0-1.02.392-1.97 1.042-2.663a3.506 3.506 0 0 1 2.584-1.125c1.033 0 1.932.433 2.583 1.125a3.896 3.896 0 0 1 1.042 2.663c0 1.02-.393 1.97-1.042 2.662Zm1.971-7.226a6.407 6.407 0 0 0-4.554-1.863 6.488 6.488 0 0 0-4.578 1.86 6.38 6.38 0 0 0-1.897 4.567c0 1.788.725 3.403 1.896 4.568a6.463 6.463 0 0 0 4.579 1.88h.008a6.309 6.309 0 0 0 3.617-1.107l2.8.925v-6.266a6.392 6.392 0 0 0-1.87-4.564ZM20.652 14.179a3.512 3.512 0 0 1-2.583 1.126 3.511 3.511 0 0 1-2.583-1.126 3.894 3.894 0 0 1-1.043-2.663c0-1.02.392-1.97 1.043-2.662a3.508 3.508 0 0 1 2.583-1.126c1.034 0 1.933.433 2.583 1.126a3.894 3.894 0 0 1 1.042 2.662c0 1.02-.392 1.97-1.042 2.663Zm1.972-7.227A6.408 6.408 0 0 0 18.07 5.09a6.488 6.488 0 0 0-4.578 1.86 6.376 6.376 0 0 0-1.895 4.566c0 1.789.723 3.403 1.895 4.568a6.464 6.464 0 0 0 4.578 1.881h.008a6.31 6.31 0 0 0 3.617-1.108l.002 4.64 2.8 1.105V11.516a6.4 6.4 0 0 0-1.872-4.564ZM59.945 8.826a3.513 3.513 0 0 1 2.583-1.127 3.508 3.508 0 0 1 2.583 1.127 3.893 3.893 0 0 1 1.043 2.663 3.89 3.89 0 0 1-1.043 2.66 3.506 3.506 0 0 1-2.583 1.127 3.51 3.51 0 0 1-2.583-1.126 3.894 3.894 0 0 1-1.042-2.661c0-1.021.393-1.971 1.042-2.663Zm-1.972 7.226a6.408 6.408 0 0 0 4.555 1.862 6.492 6.492 0 0 0 4.578-1.86 6.378 6.378 0 0 0 1.896-4.565c0-1.79-.725-3.405-1.896-4.569a6.466 6.466 0 0 0-4.578-1.881h-.008a6.302 6.302 0 0 0-3.617 1.108l-.002-4.64-2.8-1.104v11.086c0 1.796.712 3.407 1.872 4.563ZM104.824 17.611l-4.748-6.243 4.768-6.279h3.165l-4.86 6.293 4.836 6.235-3.161-.006ZM99.721 17.61V1.495L96.901.397v17.212h2.82ZM3.623 10.53H.762v5.636c-.001.397.154.762.413 1.023.258.26.62.418 1.016.418h7.61l1.825-2.605H3.623V10.53Zm0-7.527h6.732L12.137.396H2.216c-.806 0-1.454.66-1.454 1.466v5.61h2.861v-4.47Z" fill="#fff" fill-opacity=".6"/><path d="M3.623 7.472.762 10.529h5.807l2.834-3.057h-5.78Z" fill="#fff" fill-opacity=".6"/></svg>