<svg width="142" height="17" viewBox="0 0 142 17" fill="none" xmlns="http://www.w3.org/2000/svg"><g opacity=".6" clip-path="url(#a)" fill="#fff"><path d="M13.053 10.473c0 1.457-.4 1.841-2.148 1.865L9.51 9.348a.438.438 0 0 0-.167-.185.471.471 0 0 0-.247-.07H7.866a.274.274 0 0 0-.125.03.258.258 0 0 0-.095.084.241.241 0 0 0-.02.237l1.351 2.897H4.64c-1.903 0-2.328-.362-2.328-1.867V3.329c0-1.506.423-1.868 2.328-1.868h6.087c1.902 0 2.327.362 2.327 1.868v7.144ZM11.42 0H3.988C1.661 0 .5 1.045.5 3.154v7.491c0 2.11 1.163 3.155 3.488 3.155h5.67l1.372 2.946c.035.076.093.14.167.186.073.045.159.07.246.07h1.232c.044 0 .087-.011.125-.03a.258.258 0 0 0 .095-.085.242.242 0 0 0 .019-.237l-1.331-2.854c2.211-.05 3.302-1.092 3.302-3.15v-7.49c0-2.11-1.143-3.155-3.467-3.155M18.628 8.57c-.257 0-.376-.114-.376-.34v-.715c0-.227.12-.34.376-.34h4.535a.345.345 0 0 1 .276.082.31.31 0 0 1 .1.258v.714a.31.31 0 0 1-.1.258.332.332 0 0 1-.276.082h-4.535ZM39.177.356a.388.388 0 0 1 .303.093c.04.036.071.08.091.13.02.048.028.1.024.153v.733a.335.335 0 0 1-.115.283.375.375 0 0 1-.303.093h-10.45v4.286h8.888a.389.389 0 0 1 .303.093c.04.036.072.08.091.13.02.048.028.1.024.153v.733a.335.335 0 0 1-.114.282.375.375 0 0 1-.304.094h-8.888v4.42H39.18a.39.39 0 0 1 .304.093c.04.036.07.08.09.129.02.049.028.101.024.153v.734a.335.335 0 0 1-.114.282.375.375 0 0 1-.304.093H27.32a.375.375 0 0 1-.307-.09.345.345 0 0 1-.09-.13.328.328 0 0 1-.02-.155V.73a.333.333 0 0 1 .11-.286.374.374 0 0 1 .307-.09l11.858.003Zm5.461 11.673h9.7a.388.388 0 0 1 .303.094.35.35 0 0 1 .115.282v.733a.335.335 0 0 1-.115.283.377.377 0 0 1-.303.094H43.232a.383.383 0 0 1-.307-.09.338.338 0 0 1-.11-.287V.73a.333.333 0 0 1 .11-.285.374.374 0 0 1 .307-.09h.99a.375.375 0 0 1 .307.09.329.329 0 0 1 .111.286l-.002 11.3ZM69.525.357a.389.389 0 0 1 .303.093c.04.036.072.08.091.13.02.048.028.1.024.153v.733a.337.337 0 0 1-.115.283.375.375 0 0 1-.303.093H59.072v4.286h8.888a.388.388 0 0 1 .304.093c.04.036.07.08.09.13.02.048.028.1.024.153v.733a.335.335 0 0 1-.114.282.375.375 0 0 1-.304.094h-8.888v4.42h10.453a.39.39 0 0 1 .303.093c.04.036.07.08.09.129.02.049.028.101.024.153v.734a.335.335 0 0 1-.114.282.375.375 0 0 1-.303.093H57.666a.375.375 0 0 1-.307-.09.33.33 0 0 1-.111-.286V.732a.333.333 0 0 1 .111-.287.374.374 0 0 1 .307-.09l11.858.003Zm10.928 6.52 6.552 6.26c.159.17.12.376-.12.376H85.48a.883.883 0 0 1-.693-.245L78.929 7.61H74.99v5.527a.333.333 0 0 1-.11.286.374.374 0 0 1-.308.09h-.99a.375.375 0 0 1-.306-.09.344.344 0 0 1-.111-.286V.73a.334.334 0 0 1 .11-.286.374.374 0 0 1 .307-.09h.99a.375.375 0 0 1 .307.09.331.331 0 0 1 .111.286v5.396h4.078L84.75.599a.883.883 0 0 1 .693-.244h1.327c.218 0 .277.226.119.375l-6.435 6.148ZM94.627 1.84H89.44a.373.373 0 0 1-.307-.09.332.332 0 0 1-.11-.285V.73a.333.333 0 0 1 .11-.286.374.374 0 0 1 .307-.09h12.214a.375.375 0 0 1 .307.09c.081.075.123.18.111.286v.734a.334.334 0 0 1-.111.286.375.375 0 0 1-.307.09h-5.186v11.297a.336.336 0 0 1-.114.283.373.373 0 0 1-.303.093h-1.01a.387.387 0 0 1-.304-.093.35.35 0 0 1-.114-.283l.004-11.298ZM106.408 7.1h7.443c1.801 0 2.137-.34 2.137-1.748V3.587c0-1.41-.336-1.748-2.137-1.748h-7.443V7.1Zm11.422-3.928v2.556c0 1.88-1.029 2.82-3.108 2.82h-1.366l4.89 4.587c.179.15.098.376-.119.376h-1.426a.838.838 0 0 1-.673-.245l-4.81-4.68h-4.81v4.549a.334.334 0 0 1-.111.286.375.375 0 0 1-.307.09H105a.375.375 0 0 1-.307-.09.344.344 0 0 1-.111-.286V.73a.334.334 0 0 1 .111-.286.375.375 0 0 1 .307-.09h9.72c2.079 0 3.108.94 3.108 2.82m5.465 9.963a.336.336 0 0 1-.111.286.377.377 0 0 1-.307.09h-.99a.371.371 0 0 1-.307-.09.332.332 0 0 1-.111-.286V.73a.334.334 0 0 1 .111-.286.372.372 0 0 1 .307-.09h.99a.376.376 0 0 1 .307.09c.081.075.123.18.111.286v12.407Zm11.56-6.26 6.553 6.26c.158.17.119.376-.12.376h-1.407a.883.883 0 0 1-.693-.245l-5.86-5.658h-3.938v5.527a.334.334 0 0 1-.111.286.375.375 0 0 1-.307.09h-.989a.375.375 0 0 1-.307-.09.33.33 0 0 1-.111-.286V.73a.334.334 0 0 1 .111-.286.374.374 0 0 1 .307-.09h.989a.375.375 0 0 1 .307.09.344.344 0 0 1 .111.286v5.396h4.078l5.681-5.527a.883.883 0 0 1 .693-.244h1.326c.218 0 .277.226.12.375l-6.433 6.148Z"/></g><defs><clipPath id="a"><path fill="#fff" transform="translate(.5)" d="M0 0h141v17H0z"/></clipPath></defs></svg>