<svg width="188" height="18" viewBox="0 0 188 18" fill="none" xmlns="http://www.w3.org/2000/svg"><path d="M.02 3.52V17h1.74v-6.32h6.52V17h1.76V3.52H8.28v5.64H1.76V3.52H.02ZM13.067 17h7.5v-1.46h-5.76V3.52h-1.74V17Zm16.393-4.24L30.9 17h1.86l-4.6-13.48h-2.1L21.48 17h1.8l1.4-4.24h4.78Zm-4.42-1.36 1.32-3.9c.26-.82.48-1.64.68-2.44h.04c.2.78.4 1.58.7 2.46l1.32 3.88h-4.06ZM38.573 17l4.82-13.48h-1.86l-2.28 6.66c-.6 1.76-1.16 3.46-1.54 5.02h-.04c-.36-1.58-.86-3.22-1.44-5.04l-2.1-6.64h-1.88l4.4 13.48h1.92Zm7.912 0v-5.76c0-2.24-.04-3.86-.14-5.56l.06-.02c.68 1.46 1.58 3 2.52 4.5l4.28 6.84h1.76V3.52h-1.64v5.64c0 2.1.04 3.74.2 5.54l-.04.02c-.64-1.38-1.42-2.8-2.42-4.38l-4.32-6.82h-1.9V17h1.64ZM58.008 3.52V17h1.74V3.52h-1.74Zm1.66-3.06-1.84 2.34h1.42l2.56-2.34h-2.14ZM78.732 17h1.7l-.84-13.48h-2.22l-2.4 6.52c-.6 1.7-1.08 3.18-1.42 4.54h-.06c-.34-1.4-.8-2.88-1.36-4.54l-2.3-6.52h-2.22L66.672 17h1.66l.36-5.78c.12-2.02.22-4.28.26-5.96h.04c.38 1.6.92 3.34 1.56 5.24l2.18 6.42h1.32l2.38-6.54c.68-1.86 1.24-3.54 1.7-5.12h.06c-.02 1.68.1 3.94.2 5.82l.34 5.92Zm11.354-7.76h-5.24V4.98h5.54V3.52h-7.28V17h7.58v-1.46h-5.84v-4.86h5.24V9.24Zm-2.68-6.44 2.04-2.28h-1.42l-1.26 1.38h-.04L85.446.52h-1.48l2.1 2.28h1.34Zm4.864 13.54c.72.48 2.14.86 3.44.86 3.18 0 4.72-1.8 4.72-3.88 0-1.98-1.16-3.08-3.44-3.96-1.86-.72-2.68-1.34-2.68-2.6 0-.92.7-2.02 2.54-2.02 1.22 0 2.12.4 2.56.64l.48-1.42c-.6-.34-1.6-.66-2.98-.66-2.62 0-4.36 1.56-4.36 3.66 0 1.9 1.36 3.04 3.56 3.82 1.82.7 2.54 1.42 2.54 2.68 0 1.36-1.04 2.3-2.82 2.3-1.2 0-2.34-.4-3.12-.88l-.44 1.46Zm13.103.66h1.76V5h4.12V3.52h-9.98V5h4.1v12Zm12.295-13.7c-3.6 0-6.26 2.8-6.26 7.08 0 4.08 2.5 6.84 6.06 6.84 3.44 0 6.26-2.46 6.26-7.1 0-4-2.38-6.82-6.06-6.82Zm-.08 1.42c2.9 0 4.3 2.8 4.3 5.48 0 3.06-1.56 5.6-4.32 5.6-2.74 0-4.3-2.58-4.3-5.46 0-2.96 1.44-5.62 4.32-5.62ZM130.235 17h1.74v-5.4c.4.1.88.12 1.4.12 1.7 0 3.2-.5 4.12-1.48.68-.7 1.04-1.66 1.04-2.88 0-1.2-.44-2.18-1.18-2.82-.8-.72-2.06-1.12-3.78-1.12-1.4 0-2.5.12-3.34.26V17Zm1.74-12.06c.3-.08.88-.14 1.64-.14 1.92 0 3.18.86 3.18 2.64 0 1.86-1.28 2.88-3.38 2.88-.58 0-1.06-.04-1.44-.14V4.94ZM140.879 17h1.74v-5.84h1.64c1.58.06 2.3.76 2.7 2.62.38 1.68.68 2.84.9 3.22h1.8c-.28-.52-.6-1.82-1.04-3.7-.32-1.4-.94-2.36-1.98-2.72v-.06c1.42-.48 2.54-1.66 2.54-3.44 0-1.04-.38-1.96-1.06-2.56-.84-.76-2.04-1.1-3.9-1.1-1.2 0-2.46.1-3.34.28V17Zm1.74-12.08c.28-.08.88-.16 1.72-.16 1.84.02 3.1.78 3.1 2.52 0 1.54-1.18 2.56-3.04 2.56h-1.78V4.92Zm16.08 7.84 1.44 4.24h1.86l-4.6-13.48h-2.1L150.719 17h1.8l1.4-4.24h4.78Zm-4.42-1.36 1.32-3.9c.26-.82.48-1.64.68-2.44h.04c.2.78.4 1.58.7 2.46l1.32 3.88h-4.06Zm9.706-7.88V17h1.74v-6.32h6.52V17h1.76V3.52h-1.76v5.64h-6.52V3.52h-1.74Zm20.007 9.24 1.44 4.24h1.86l-4.6-13.48h-2.1L176.012 17h1.8l1.4-4.24h4.78Zm-4.42-1.36 1.32-3.9c.26-.82.48-1.64.68-2.44h.04c.2.78.4 1.58.7 2.46l1.32 3.88h-4.06Z" fill="#fff" fill-opacity=".6"/></svg>