<svg width="62" height="26" viewBox="0 0 62 26" fill="none" xmlns="http://www.w3.org/2000/svg"><g clip-path="url(#a)" fill="#fff" fill-opacity=".6"><path d="M58.19 9.19c0 1.11-.38 1.33-1.2 1.33h-.76V8.18h.91c.63 0 1.05.16 1.05 1.01Zm2.85.01c0-2.33-1.52-3.18-4.11-3.18h-3.32v10.2h2.62v-3.63h.82c3.34 0 4-1.89 4-3.4m-8.75 4.85h-2.93c-.38 0-.88.03-1.11.09.1-.09.34-.32.47-.54l3.51-5.74V6.02h-6.62l-.19 2.15h2.65c.34 0 .79-.01 1.01-.07-.15.13-.4.54-.59.86l-3.38 5.48v1.79h6.97l.21-2.18v-.01Zm-7.47-8.02h-2.77l-1.45 4.13c-.19.53-.38 1.17-.54 1.99h-.02c-.16-.91-.29-1.29-.48-1.92l-1.29-4.2H35.4l3.47 10.2h2.36l3.6-10.2ZM15.29 17.28l-2.31 4.08 2.22 4.15h4.71L17.7 21.4l2.28-4.12h-4.7.01Zm2.53-12.76L5.55 25.51h3.86l8.44-14.52 3.86 6.29-1.88 3.24h7.7l-9.71-16Zm13.8 13.76c-.31-.46-9.55-15.67-9.8-16.01C21.56 1.93 20.67 0 17.81 0s-3.86 2-4.2 2.53C13.27 3.06 0 25.5 0 25.5h3.79S15.78 5.21 16.53 4.05c.77-1.18 2.02-.77 2.4-.16.37.62 9.21 15 9.97 16.23.18.29.26.84-.04 1.41-.29.56-.83.71-1.21.71H19.8l1.92 3.27H28c.6 0 2.4-.25 3.79-2.02 1.68-2.15.15-4.77-.15-5.21"/></g><defs><clipPath id="a"><path fill="#fff" d="M0 0h61.04v25.51H0z"/></clipPath></defs></svg>