<svg width="71" height="29" viewBox="0 0 71 29" fill="none" xmlns="http://www.w3.org/2000/svg"><g opacity=".6" clip-path="url(#a)"><path d="M39.53 20.213h-3.92L32.625 6.592h3.35l.895 5.287a67.49 67.49 0 0 1 .69 5.226h.101c.143-1.614.468-3.45.752-5.186l.873-5.327h3.25L39.53 20.213ZM43.57 6.592h3.148v13.621h-3.148V6.592Zm4.489 13.621v-1.998l4.792-9.06h-4.427V6.592h7.819v2.26l-4.509 8.798h4.793l-.365 2.563H48.06Zm9.626-13.621h3.148v13.621h-3.148V6.592Zm7.027 13.621V9.155h-2.701V6.592h8.529v2.563h-2.68v11.058h-3.148Z" fill="#fff" fill-opacity=".6"/><g opacity=".6"><path d="M19.22 3.533H9.359c-3.214 0-5.82 2.597-5.82 5.8V19.59c0 3.203 2.606 5.8 5.82 5.8h9.86c3.215 0 5.82-2.597 5.82-5.8V9.333c0-3.203-2.605-5.8-5.82-5.8Z" fill="url(#b)"/><path d="M5.533 11.559h5.82l.281-5.279s1.963-2.787 6.951-2.667l-1.013-1.456s-2.73-4.052-5.658-1.048C8.985 4.113 9.07 3.936 7.99 5.679c-1.078 1.743-2.458 5.88-2.458 5.88Z" fill="url(#c)"/><path d="M17.068 7.94v5.803l5.293.28s2.795 1.958 2.675 6.933l1.46-1.01s4.063-2.723 1.05-5.643c-3.012-2.92-2.834-2.837-4.582-3.912-1.748-1.076-5.896-2.452-5.896-2.452Z" fill="url(#d)"/><path d="M22.797 17.441h-5.82l-.28 5.279s-1.964 2.788-6.952 2.667l1.013 1.456s2.73 4.052 5.658 1.048c2.929-3.004 2.844-2.827 3.923-4.57 1.079-1.743 2.458-5.88 2.458-5.88Z" fill="url(#e)"/><path d="M11.59 22.943V17.14l-5.293-.281s-2.795-1.957-2.675-6.933l-1.46 1.011S-1.9 13.66 1.113 16.58c3.012 2.92 2.835 2.836 4.582 3.912 1.748 1.076 5.896 2.451 5.896 2.451Z" fill="url(#f)"/><path d="M14.748 5.299h-.696a2.905 2.905 0 0 0-2.91 2.9v12.965c0 1.602 1.303 2.9 2.91 2.9h.696a2.905 2.905 0 0 0 2.91-2.9V8.2c0-1.602-1.303-2.9-2.91-2.9Z" fill="#fff"/><path d="M22.605 11.434c.666 0 1.206.537 1.206 1.202v4.09c0 .665-.538 1.203-1.206 1.203H6.196a1.203 1.203 0 0 1-1.206-1.202v-4.09c0-.665.538-1.203 1.206-1.203" fill="#fff"/><path d="M10.12 14.722h2.43l.643-1.303.592 2.983.988-4.83.83 4.01.51-.97 2.483.076" stroke="#601D8C"/></g></g><defs><linearGradient id="b" x1="1078.55" y1="3.533" x2="1078.55" y2="2189.18" gradientUnits="userSpaceOnUse"><stop stop-color="#355CC1"/><stop offset=".052" stop-color="#345ABE"/><stop offset="1" stop-color="#193A8E"/></linearGradient><linearGradient id="c" x1="658.138" y1="0" x2="658.138" y2="1155.9" gradientUnits="userSpaceOnUse"><stop stop-color="#24ABC1"/><stop offset="1" stop-color="#1A91A4"/></linearGradient><linearGradient id="d" x1="28.658" y1="658.785" x2="-1130.37" y2="658.785" gradientUnits="userSpaceOnUse"><stop stop-color="#24ABC1"/><stop offset="1" stop-color="#1A91A4"/></linearGradient><linearGradient id="e" x1="-629.808" y1="29" x2="-629.808" y2="-1126.9" gradientUnits="userSpaceOnUse"><stop stop-color="#24ABC1"/><stop offset="1" stop-color="#1A91A4"/></linearGradient><linearGradient id="f" x1="0" y1="-627.903" x2="1159.02" y2="-627.903" gradientUnits="userSpaceOnUse"><stop stop-color="#24ABC1"/><stop offset="1" stop-color="#1A91A4"/></linearGradient><clipPath id="a"><path fill="#fff" d="M0 0h71v29H0z"/></clipPath></defs></svg>