<svg width="99" height="31" viewBox="0 0 99 31" fill="none" xmlns="http://www.w3.org/2000/svg"><g opacity=".6" clip-path="url(#a)" fill="#fff"><path d="M35.188 24.333h22.226V24H35.187v.333ZM33.503 5.13h3.648v.774h-1.374v3.617h-.906V5.91H33.5l.003-.78Zm7.514 0v.727h-1.964v.997h1.711v.723H39.06v1.22h2.078v.737H38.15v-4.4l2.866-.003Zm4.88.11c-.007 0-.01-.003-.017-.003v-.003l.017.007Zm-.014-.003V5.521a2.981 2.981 0 0 0 .057.6 3.907 3.907 0 0 0-.737-.294 2.631 2.631 0 0 0-.7-.096 1.552 1.552 0 0 0-1.129.41 1.486 1.486 0 0 0-.418 1.11c-.023.45.142.89.452 1.21.33.31.771.47 1.222.446.246 0 .489-.036.724-.106.263-.084.519-.194.758-.33-.047.23-.077.42-.098.566a4.804 4.804 0 0 0-.027.38c-.212.084-.434.14-.66.174a4.844 4.844 0 0 1-.791.063 3.199 3.199 0 0 1-1.105-.167c-.3-.103-.569-.28-.788-.513a2.128 2.128 0 0 1-.44-.74 2.707 2.707 0 0 1-.156-.927 2.245 2.245 0 0 1 .633-1.68 2.421 2.421 0 0 1 1.752-.613c.242 0 .488.02.727.06.246.04.485.093.724.167v-.004Zm2.213-.106v1.776h2.094V5.131h.9v4.393h-.9v-1.92h-2.094v1.92h-.906V5.131h.906Zm5.31 0 2.607 3.126V5.131h.855v4.393h-.855L53.39 6.387v3.137h-.856V5.131h.873Zm6.86.69a1.252 1.252 0 0 0-.976.413 1.83 1.83 0 0 0 0 2.19 1.376 1.376 0 0 0 1.96 0 1.83 1.83 0 0 0 0-2.19c-.25-.277-.61-.43-.98-.413h-.004Zm0-.817a2.167 2.167 0 0 1 1.64.647c.832.96.832 2.403 0 3.363-.932.86-2.353.86-3.286 0a2.586 2.586 0 0 1 0-3.363 2.19 2.19 0 0 1 1.636-.647h.01Zm4.308.127v3.573h2.155v.82h-3.061V5.131h.906Zm4.97.69a1.266 1.266 0 0 0-.97.403 1.83 1.83 0 0 0 0 2.19 1.372 1.372 0 0 0 1.957 0 1.83 1.83 0 0 0 0-2.19c-.249-.277-.61-.43-.98-.413l-.007.01Zm0-.817a2.167 2.167 0 0 1 1.64.647c.832.96.832 2.403 0 3.363-.932.86-2.353.86-3.286 0a2.586 2.586 0 0 1 0-3.363 2.19 2.19 0 0 1 1.636-.647h.01Zm7.251.347c-.003 0-.003 0-.007-.004v-.006l.007.01Zm-.007-.004v.48c0 .117.024.257.04.4a4.668 4.668 0 0 0-.898-.366 2.927 2.927 0 0 0-.799-.12 1.587 1.587 0 0 0-1.165.42 1.56 1.56 0 0 0-.42 1.156c-.018.44.154.864.47 1.164.344.303.789.463 1.243.443.169 0 .337-.013.506-.04.154-.027.306-.067.454-.123v-.657h-.933v-.733h1.772v1.91c-.29.13-.59.226-.9.29-.326.063-.66.096-.993.096a2.616 2.616 0 0 1-1.842-.636 2.45 2.45 0 0 1 0-3.387 2.607 2.607 0 0 1 1.842-.627 4.227 4.227 0 0 1 1.62.334l.003-.004Zm1.566-.216h.903v4.393h-.903V5.131Zm2.348 0h2.866v.726h-1.964v.997h1.7v.723h-1.7v1.22h2.075v.737h-2.967l-.01-4.403ZM35.188 11.717h.892v1.677h2.071v-1.677h.89v4.157h-.89v-1.813H36.08v1.813h-.892v-4.157Zm6.18 0v3.387h2.134v.773h-3.027v-4.16h.892Zm5 .824-.963 1.903h1.916l-.953-1.903Zm-.35-.88h.828l2.21 4.216h-1l-.421-.82h-2.53l-.41.82h-.852l2.175-4.216Zm3.907.056 1.306 3.224 1.31-3.224h.906l-1.849 4.24h-.75l-1.883-4.236.96-.004Zm4.266.004h.863l2.58 2.956v-2.96h.844v4.157h-.845l-2.61-2.967v2.97h-.848v-4.16l.016.004Zm5.712 0h.872v4.156h-.895v-4.16l.023.004Zm.64-1.387h.694l-.977.897h-.38l.653-.89.01-.007Zm1.684 1.387h.896v1.676h2.07v-1.68h.89v4.157h-.903v-1.813h-2.07v1.813h-.897v-4.157l.014.004Zm7.22.653a1.278 1.278 0 0 0-.966.39 1.673 1.673 0 0 0 0 2.077c.538.516 1.4.516 1.94 0a1.673 1.673 0 0 0 0-2.077 1.278 1.278 0 0 0-.967-.39h-.007Zm0-.78c.6-.02 1.182.2 1.61.61a2.36 2.36 0 0 1 0 3.187 2.474 2.474 0 0 1-3.253 0 2.368 2.368 0 0 1 0-3.187 2.193 2.193 0 0 1 1.62-.61h.023Zm5.648.127h.94l1.75 3.116 1.735-3.116h.896v4.156h-.842l.013-2.98-1.65 2.98h-.397l-1.667-2.98.033 2.98h-.832v-4.16l.02.004Zm6.752 0h2.836v.686h-1.94v.944h1.687v.683h-1.687v1.15h2.05v.693h-2.96v-4.16l.014.004Zm6.863.046c0 .144 0 .284.014.42.013.137.02.264.033.387a2.569 2.569 0 0 0-.623-.223 3.373 3.373 0 0 0-.707-.074 1.515 1.515 0 0 0-.697.124.406.406 0 0 0-.226.38c0 .28.388.493 1.162.643h.02c.391.05.765.197 1.082.43.215.207.33.493.313.787.023.386-.148.763-.455 1.006-.39.257-.855.377-1.323.347a4.42 4.42 0 0 1-.812-.067c-.24-.04-.472-.11-.694-.203 0-.2-.02-.37-.033-.51-.01-.127-.03-.25-.058-.373.22.153.462.273.718.35.262.08.535.12.808.123.26.013.519-.04.75-.157a.505.505 0 0 0 .25-.456c0-.257-.273-.447-.822-.564h-.064a4.106 4.106 0 0 1-1.165-.376 1 1 0 0 1-.364-.384 1.103 1.103 0 0 1-.124-.526 1.064 1.064 0 0 1 .465-.927 2.29 2.29 0 0 1 1.33-.323c.195 0 .394.013.59.043.208.03.413.073.615.13l.017-.007Zm1.038-.046h3.61v.73H92v3.423h-.896v-3.427h-1.357v-.726Zm6.095.823-.963 1.903h1.916l-.953-1.903Zm.455-.883 2.202 4.216h-1l-.421-.82h-2.522l-.411.82h-.849l2.182-4.216h.819ZM36.093 18.466v1.247h.694a1.45 1.45 0 0 0 .785-.15.573.573 0 0 0 .215-.5.49.49 0 0 0-.195-.44 1.226 1.226 0 0 0-.67-.134l-.829-.023Zm-.906-.737h1.853a2.05 2.05 0 0 1 1.27.314c.286.236.437.593.41.96.004.22-.037.436-.128.636-.084.18-.215.33-.377.444-.145.1-.306.17-.478.206-.26.047-.522.067-.785.064h-.835v1.633h-.93v-4.257Zm5.43.737v1.277h.946c.242.016.484-.04.69-.167a.607.607 0 0 0 .222-.523.52.52 0 0 0-.188-.447 1.036 1.036 0 0 0-.613-.14h-1.058Zm.99-.737a2.22 2.22 0 0 1 1.31.314c.296.233.454.596.424.97.033.62-.445 1.15-1.075 1.19a1.27 1.27 0 0 1 .792.67c.023.043.054.103.094.186.138.327.313.637.522.924H42.53c-.138-.317-.253-.59-.387-.817a3.313 3.313 0 0 0-.357-.51.706.706 0 0 0-.253-.203.997.997 0 0 0-.394-.054h-.508v1.597h-.906v-4.267h1.882Zm4.724.844-.976 1.953h1.943l-.967-1.953Zm-.37-.907h.838l2.243 4.32h-1.014l-.42-.827h-2.56l-.414.84h-.862l2.189-4.333Zm4.004.06h.91v1.72h2.1v-1.72h.903v4.26h-.902v-1.86h-2.102v1.86h-.899v-4.253l-.01-.007Zm4.748 0h1.095l1.303 1.747 1.354-1.747h.967l-1.927 2.46v1.8H56.6v-1.773l-1.886-2.487ZM81.998 10.334l.68 1h.66l.68-1h-.39l-.62.613-.616-.613h-.394ZM25.084 24.543C4.92 24.96 3.018 10.937 12.195 0-8.822 9.95.315 32.88 25.084 24.543Z"/><path d="M13.297 3.278c10.999-.674 18.223 8.04 8.328 19.39 16.798-8.984 7.224-25.357-8.328-19.39Z"/><path d="M12.287 5.752C19.683 5.05 24.35 11.336 21 19.666c7.45-8.667.115-17.304-8.712-13.914ZM35.629 27.25v1.173h.286a.818.818 0 0 0 .539-.154.55.55 0 0 0 .185-.446.52.52 0 0 0-.175-.424.7.7 0 0 0-.489-.15h-.346Zm-.441-.344h.787c.3-.023.6.06.85.233.194.177.299.434.282.697a.823.823 0 0 1-.303.683c-.246.18-.546.267-.849.25h-.323v1.28h-.441l-.004-3.143Zm2.61.87h.42v1.253c-.013.18.03.364.125.52a.455.455 0 0 0 .384.167.514.514 0 0 0 .455-.227c.117-.2.175-.43.158-.66v-1.05h.42v2.27h-.386v-.44a.864.864 0 0 1-.324.354.888.888 0 0 1-.468.116.717.717 0 0 1-.586-.25 1.075 1.075 0 0 1-.199-.71v-1.343Zm2.96-1.11h.42v3.38h-.42v-3.38Zm2.98 1.11v.353l-1.307 1.587h1.307v.33h-1.765v-.36l1.287-1.58h-1.233v-.327l1.711-.003Zm4.503 2.27h-.421v-1.277a.874.874 0 0 0-.125-.516.451.451 0 0 0-.387-.17.534.534 0 0 0-.448.213.975.975 0 0 0-.165.593v1.157h-.421v-2.27h.387v.423a.854.854 0 0 1 .798-.473.717.717 0 0 1 .586.25c.148.207.22.457.2.71l-.004 1.36Zm1.98-1.123c-.202-.01-.404.03-.586.12a.38.38 0 0 0-.206.343.37.37 0 0 0 .115.277c.08.073.189.113.3.11a.609.609 0 0 0 .465-.187.67.67 0 0 0 .175-.5v-.17l-.263.007Zm.677-.25v1.38h-.377v-.38a.845.845 0 0 1-.327.306.978.978 0 0 1-.455.104.762.762 0 0 1-.528-.187.688.688 0 0 1 .104-1.053c.27-.147.573-.217.879-.197h.296v-.043a.52.52 0 0 0-.566-.563 1.297 1.297 0 0 0-.637.19v-.347c.116-.057.237-.097.361-.124.132-.026.27-.04.404-.04a.815.815 0 0 1 .64.237c.155.203.233.453.212.71l-.006.007Zm2.243-.834-.017.344a1.445 1.445 0 0 0-.58-.133.489.489 0 0 0-.279.073.22.22 0 0 0-.104.186c0 .07.03.14.084.187.108.083.229.153.357.207.189.073.36.183.505.323.09.103.138.24.135.377.01.2-.088.39-.253.5-.198.13-.438.196-.677.183-.104 0-.205-.01-.306-.03a1.876 1.876 0 0 1-.297-.083v-.354c.098.05.202.087.31.117.098.027.199.04.297.04a.56.56 0 0 0 .333-.09.284.284 0 0 0 .125-.25c0-.07-.024-.14-.075-.193a1.26 1.26 0 0 0-.343-.214 1.617 1.617 0 0 1-.505-.326.526.526 0 0 1-.135-.354.498.498 0 0 1 .226-.43c.178-.116.39-.176.606-.166.094 0 .189.006.283.023.097.013.192.033.286.063h.024Zm-1.33-1.143h.252l.4.543.398-.543h.253l-.468.777h-.401l-.434-.777Zm2.215 1.087h.421v2.27h-.42v-2.27Zm.778-1.087-.633.783h-.239l.455-.783h.417Zm4.16 1.53a.909.909 0 0 1 .326-.367.805.805 0 0 1 .451-.126.654.654 0 0 1 .546.25c.138.21.205.456.188.71v1.37h-.424v-1.274a.954.954 0 0 0-.108-.5.377.377 0 0 0-.333-.166.513.513 0 0 0-.434.206.943.943 0 0 0-.155.584v1.156H58.6v-1.273a.95.95 0 0 0-.108-.517.39.39 0 0 0-.35-.156.48.48 0 0 0-.411.213.927.927 0 0 0-.155.58v1.157h-.424v-2.27h.39v.396a.854.854 0 0 1 .317-.346.78.78 0 0 1 .438-.12.667.667 0 0 1 .41.126.735.735 0 0 1 .253.367h.003Zm4.324.62v.173h-1.62c.003.21.087.414.235.567.155.14.36.213.57.2.104 0 .212-.013.313-.04.11-.03.219-.073.32-.127v.364a1.569 1.569 0 0 1-.33.096 2.24 2.24 0 0 1-.394.034c-.31.016-.61-.104-.822-.327a1.24 1.24 0 0 1-.3-.887 1.2 1.2 0 0 1 .297-.846c.198-.214.478-.33.767-.32a.884.884 0 0 1 .708.296c.182.234.269.524.252.82l.004-.003Zm-.394-.11a.912.912 0 0 0-.176-.523.502.502 0 0 0-.41-.184.544.544 0 0 0-.425.19.901.901 0 0 0-.199.517h1.21Zm1.747-1.657v.704h.546v.32h-.546v1.176c-.01.13.017.26.078.377.057.08.155.12.252.113.034 0 .071-.006.105-.013.037 0 .08-.023.128-.04v.33a1.571 1.571 0 0 1-.172.037 1.55 1.55 0 0 1-.175 0 .633.633 0 0 1-.505-.177.916.916 0 0 1-.152-.597v-1.213h-.458v-.32h.499v-.56l.407-.143-.007.006Zm2.546.677-.013.403-.094-.023h-.085a.53.53 0 0 0-.448.203.933.933 0 0 0-.154.58v1.137h-.425v-2.27h.384v.467a.825.825 0 0 1 .253-.377.631.631 0 0 1 .397-.13h.175l.01.01Zm1.644.297a.6.6 0 0 0-.492.236c-.252.38-.252.874 0 1.254a.644.644 0 0 0 .99 0c.25-.38.25-.87 0-1.254a.614.614 0 0 0-.505-.233l.007-.003Zm0-.324c.31-.016.61.1.828.317a1.4 1.4 0 0 1 0 1.74 1.228 1.228 0 0 1-1.653 0 1.4 1.4 0 0 1 0-1.74c.215-.22.518-.333.825-.317Zm2.394 1.95c.004.004.004.007.007.007l-.007-.007Zm.004.007v1.313h-.431v-3.223h.383v.44a.96.96 0 0 1 .337-.367.922.922 0 0 1 .468-.126.85.85 0 0 1 .68.313c.18.24.27.533.253.83.02.317-.07.627-.252.887a.843.843 0 0 1-.698.326.872.872 0 0 1-.43-.1.84.84 0 0 1-.31-.293Zm1.263-.787a.999.999 0 0 0-.162-.61.535.535 0 0 0-.448-.223.57.57 0 0 0-.472.23.938.938 0 0 0-.178.61c-.013.22.047.44.172.623a.58.58 0 0 0 .922 0c.122-.186.182-.406.169-.63h-.004Zm2.25-.846a.599.599 0 0 0-.506.236c-.253.38-.253.874 0 1.254a.644.644 0 0 0 .99 0c.25-.38.25-.87 0-1.254a.614.614 0 0 0-.505-.233l.02-.003Zm0-.324c.309-.016.609.1.828.317a1.4 1.4 0 0 1 0 1.74 1.228 1.228 0 0 1-1.654 0 1.4 1.4 0 0 1 0-1.74c.216-.22.519-.333.825-.317Zm1.952-1.056h.425v3.38h-.425v-3.38Zm3.28 2.173v.173h-1.61c.004.21.088.414.236.567.155.14.36.213.566.2.105 0 .212-.013.314-.04.11-.03.218-.073.32-.127v.364a1.569 1.569 0 0 1-.33.096 2.24 2.24 0 0 1-.395.034 1.052 1.052 0 0 1-.818-.327 1.257 1.257 0 0 1-.303-.887 1.2 1.2 0 0 1 .296-.846c.199-.214.478-.33.772-.32a.889.889 0 0 1 .707.296c.181.234.27.524.252.82l-.006-.003Zm-.4-.11a.881.881 0 0 0-.175-.523.502.502 0 0 0-.411-.184.538.538 0 0 0-.421.19.883.883 0 0 0-.202.517h1.209Z"/></g><defs><clipPath id="a"><path fill="#fff" transform="translate(.5)" d="M0 0h98v31H0z"/></clipPath></defs></svg>