<svg width="97" height="25" viewBox="0 0 97 25" fill="none" xmlns="http://www.w3.org/2000/svg"><path fill-rule="evenodd" clip-rule="evenodd" d="M12.38 24.38c6.56 0 11.876-5.32 11.876-11.88 0-6.56-5.317-11.879-11.877-11.879C5.82.621.5 5.94.5 12.501c0 6.56 5.319 11.878 11.88 11.878ZM5.8 11.875c.014 4.474 3.41 7.259 6.673 7.248 4.029-.014 6.412-3.322 6.403-6.343-.01-3.018-1.652-5.2-5.268-6.082a1.057 1.057 0 0 1-.015-.194c-.007-2.281 1.713-4.293 3.873-4.74-.203-.07-.536-.097-.855-.097-2.47.009-5.196 1.068-7.187 2.713-2.038 1.69-3.636 4.537-3.625 7.495Z" fill="#fff" fill-opacity=".6"/><path d="m31.927 17.42-3.632-8.667h2.372l2.266 5.755 2.195-5.755h2.266l-3.525 8.666h-1.942Zm11.787-4.379c0-.36-.041-.702-.127-1.027a2.462 2.462 0 0 0-.377-.838 1.91 1.91 0 0 0-.611-.56 1.65 1.65 0 0 0-.845-.209c-.323 0-.607.07-.845.21-.24.137-.445.323-.61.558a2.46 2.46 0 0 0-.378.838 4.04 4.04 0 0 0-.127 1.028c0 .374.042.72.127 1.04.083.318.205.597.367.837.16.24.366.43.613.57.244.137.53.207.853.207.323 0 .605-.07.845-.207.24-.14.443-.33.61-.57.169-.24.295-.52.378-.838.085-.318.127-.665.127-1.039Zm2.193.01c0 .565-.087 1.12-.26 1.665a4.574 4.574 0 0 1-.774 1.465c-.34.432-.773.779-1.294 1.043-.522.264-1.13.395-1.825.395-.696 0-1.305-.131-1.825-.395a3.84 3.84 0 0 1-1.296-1.043 4.613 4.613 0 0 1-.772-1.465 5.415 5.415 0 0 1 0-3.32 4.526 4.526 0 0 1 .772-1.446 3.79 3.79 0 0 1 1.296-1.024c.52-.257 1.129-.388 1.825-.388.694 0 1.3.13 1.816.388.515.258.947.598 1.294 1.024.35.425.609.908.784 1.447.172.54.26 1.09.26 1.654Zm6.698-2.39c-.43-.169-.83-.254-1.2-.254-.38 0-.71.075-.982.219a1.938 1.938 0 0 0-.681.584 2.67 2.67 0 0 0-.402.832c-.09.308-.135.627-.135.947 0 .36.04.705.118 1.037.076.33.196.62.358.866.159.247.362.445.606.596.245.148.535.225.869.225.275 0 .554-.077.84-.225.286-.15.49-.33.61-.532V10.66Zm.18 6.758-.09-.663a2.757 2.757 0 0 1-.808.6c-.334.175-.729.262-1.183.262-.596 0-1.124-.127-1.575-.377a3.528 3.528 0 0 1-1.148-1.007 4.604 4.604 0 0 1-.71-1.458 6.178 6.178 0 0 1-.24-1.726c0-.56.084-1.118.25-1.654.167-.54.42-1.021.76-1.447a3.803 3.803 0 0 1 1.284-1.024c.513-.257 1.117-.388 1.81-.388.453 0 .944.085 1.47.25v-3.36h2.228v11.992h-2.049Zm8.325-4.063c-.24.012-.489.035-.742.063a8.521 8.521 0 0 0-.722.118c-.485.096-.819.26-1.006.493a1.21 1.21 0 0 0-.28.766c0 .286.105.517.317.692.211.172.508.26.895.26.29 0 .577-.06.842-.18.27-.12.504-.27.696-.449v-1.763Zm.18 4.057-.088-.648a2.47 2.47 0 0 1-.921.626c-.373.15-.782.227-1.227.227-.373 0-.733-.063-1.073-.19a2.795 2.795 0 0 1-.913-.539 2.633 2.633 0 0 1-.884-2.023c0-.43.083-.812.254-1.141a2.49 2.49 0 0 1 .685-.836c.288-.227.62-.413.993-.557a6.235 6.235 0 0 1 1.172-.325c.288-.059.604-.103.947-.133.343-.03.629-.057.858-.081v-.127c0-.48-.123-.82-.371-1.025-.247-.203-.587-.306-1.02-.306a3.156 3.156 0 0 0-1.338.314c-.18.092-.34.182-.48.271-.137.09-.248.17-.333.242L56.813 9.6a3.17 3.17 0 0 1 .44-.306 4.94 4.94 0 0 1 .721-.351 6.06 6.06 0 0 1 .952-.288 5.266 5.266 0 0 1 1.141-.118c.48 0 .919.063 1.314.19.395.126.737.323 1.026.593.286.269.51.61.674 1.024.161.413.242.912.242 1.5v5.569H61.29Zm8.92-10.009a3.508 3.508 0 0 0-.42-.153c-.212-.065-.49-.098-.838-.098-.31 0-.572.094-.782.28-.21.185-.314.488-.314.907v.413h1.87v1.798h-1.852v6.868h-2.23v-6.868h-1.151V8.753h1.15v-.467c0-.563.072-1.039.216-1.43.144-.388.345-.707.603-.951.257-.247.56-.428.907-.541.35-.114.727-.17 1.135-.17.54 0 .985.05 1.338.152.354.103.561.17.62.208l-.251 1.85Zm6.08 5.637c0-.36-.045-.702-.128-1.027a2.464 2.464 0 0 0-.377-.838 1.91 1.91 0 0 0-.611-.56 1.65 1.65 0 0 0-.845-.209c-.323 0-.606.07-.844.21-.24.137-.446.323-.614.558a2.547 2.547 0 0 0-.377.838 4.147 4.147 0 0 0-.125 1.028c0 .374.042.72.125 1.04.085.318.207.597.369.837.161.24.366.43.61.57.247.137.533.207.856.207.323 0 .605-.07.845-.207.24-.14.443-.33.61-.57.169-.24.295-.52.378-.838.083-.318.127-.665.127-1.039Zm2.192.01a5.43 5.43 0 0 1-.261 1.665 4.526 4.526 0 0 1-.773 1.465c-.34.432-.773.779-1.294 1.043-.522.264-1.13.395-1.825.395-.696 0-1.305-.131-1.824-.395a3.842 3.842 0 0 1-1.297-1.043 4.617 4.617 0 0 1-.772-1.465 5.428 5.428 0 0 1 0-3.32 4.53 4.53 0 0 1 .772-1.446 3.791 3.791 0 0 1 1.297-1.024c.52-.257 1.128-.388 1.824-.388.694 0 1.301.13 1.816.388.515.258.947.598 1.294 1.024.35.425.61.908.782 1.447a5.35 5.35 0 0 1 .261 1.654Zm6.921 4.368v-4.943c0-.659-.138-1.17-.413-1.53-.277-.358-.659-.539-1.152-.539-.347 0-.668.09-.96.27-.295.18-.55.378-.766.595v6.147h-2.228V8.753h2.031l.107.683c.351-.288.75-.513 1.179-.663a3.874 3.874 0 0 1 1.32-.234c.456 0 .875.068 1.26.205.384.14.713.358.988.657.277.3.489.69.64 1.168.148.48.224 1.056.224 1.726v5.124h-2.23Zm9.166-5.375a2.281 2.281 0 0 0-.19-.781 1.651 1.651 0 0 0-.38-.54c-.15-.139-.311-.24-.486-.307a1.525 1.525 0 0 0-.535-.098c-.386 0-.753.144-1.102.432-.35.288-.554.718-.615 1.294h3.308Zm-3.36 1.6c.047.73.274 1.26.684 1.582.409.323.939.487 1.587.487.301 0 .585-.029.85-.081.263-.054.499-.122.704-.207.205-.083.38-.168.524-.251.144-.085.25-.164.325-.236l.594 1.818a4.181 4.181 0 0 1-1.098.53 7.064 7.064 0 0 1-2.193.332c-.566 0-1.1-.09-1.611-.268a3.6 3.6 0 0 1-1.338-.838 4.087 4.087 0 0 1-.917-1.41c-.229-.563-.342-1.236-.342-2.015 0-.73.105-1.379.314-1.942.21-.563.498-1.037.862-1.42a3.816 3.816 0 0 1 1.277-.883 3.997 3.997 0 0 1 1.556-.305c.552 0 1.06.092 1.53.27.467.18.87.459 1.213.836.34.378.611.867.808 1.467.198.598.297 1.312.297 2.139v.395h-5.627Z" fill="#fff" fill-opacity=".6"/></svg>