<svg width="78" height="30" viewBox="0 0 78 30" fill="none" xmlns="http://www.w3.org/2000/svg"><g opacity=".6" fill="#fff"><path d="M16.045 12c.28 0 .543.046.793.14.25.093.469.221.654.383.186.162.332.352.44.57.107.218.16.449.16.692v2.43c0 .243-.053.473-.16.692a1.818 1.818 0 0 1-.44.57c-.185.162-.404.29-.654.383-.249.094-.514.14-.793.14h-3.953v-6h3.953Zm.91 1.79a.71.71 0 0 0-.07-.31.776.776 0 0 0-.191-.252.98.98 0 0 0-.649-.238h-2.828v4.018h2.828a.998.998 0 0 0 .648-.238.776.776 0 0 0 .193-.252c.046-.096.07-.2.07-.311v-2.419.003Z"/><path fill-rule="evenodd" clip-rule="evenodd" d="M.092 15.007C.083 6.753 6.808 0 15.038 0c8.314 0 15.055 6.693 15.054 14.95 0 8.346-6.687 15.055-15 15.05C6.799 29.996.1 23.3.092 15.007ZM15.116 1.8c-7.244-.046-13.17 5.84-13.23 13.14-.06 7.24 5.842 13.22 13.1 13.275 7.285.057 13.267-5.837 13.316-13.117.05-7.318-5.834-13.252-13.186-13.298Z"/><path d="M39.018 7.937c.347 0 .675.067.987.202.311.134.584.317.814.548a2.584 2.584 0 0 1 .747 1.809v3.482c0 .35-.066.68-.2.992a2.554 2.554 0 0 1-2.348 1.567h-4.926V7.936h4.926v.001Zm1.135 2.567a1.13 1.13 0 0 0-.69-1.054 1.08 1.08 0 0 0-.445-.093h-3.524v5.76h3.524c.16 0 .309-.031.446-.093a1.136 1.136 0 0 0 .689-1.053v-3.469.002ZM42.977 9.527a2.67 2.67 0 0 1 .553-.824 2.63 2.63 0 0 1 .82-.556 2.498 2.498 0 0 1 1.009-.208h4.872v8.602h-1.402v-3.59h-3.845V11.53h3.845V9.359h-3.47c-.33 0-.61.116-.841.347a1.146 1.146 0 0 0-.348.842v5.991h-1.4v-6.003c0-.357.068-.694.207-1.011v.002ZM58.005 12.821a2.675 2.675 0 0 1-.753.878l1.522 2.84h-1.6l-1.256-2.359h-2.243v-1.42h2.096c.31 0 .576-.11.794-.326.217-.216.327-.482.327-.79v-1.17c0-.31-.108-.573-.327-.79a1.085 1.085 0 0 0-.794-.325h-2.937v7.182h-1.402V7.939h4.339c.347 0 .673.068.98.202.308.134.574.315.802.542.227.228.407.496.54.803.133.309.2.636.2.985v1.18c0 .429-.095.82-.288 1.172v-.002ZM65.715 7.938c.348 0 .674.067.982.2.307.135.573.316.8.543.228.228.408.496.54.803.132.307.2.636.2.985v3.537c0 .348-.066.676-.2.984a2.598 2.598 0 0 1-.54.804 2.55 2.55 0 0 1-.8.542 2.423 2.423 0 0 1-.982.201h-3.257c-.348 0-.674-.067-.981-.201a2.543 2.543 0 0 1-1.541-2.33v-3.537c0-.349.066-.676.2-.985a2.532 2.532 0 0 1 2.322-1.547h3.257Zm1.109 2.53a1.07 1.07 0 0 0-.321-.79 1.067 1.067 0 0 0-.788-.32h-3.257c-.311 0-.577.108-.794.32a1.063 1.063 0 0 0-.328.79v3.527c0 .313.109.578.328.796.217.218.483.327.794.327h3.257c.311 0 .574-.11.788-.327.214-.218.32-.484.32-.796v-3.528ZM69.633 9.527a2.67 2.67 0 0 1 .553-.824 2.63 2.63 0 0 1 .821-.556 2.498 2.498 0 0 1 1.008-.208h4.845v2.252h-1.402v-.83h-3.443c-.33 0-.61.115-.84.345-.233.232-.349.51-.349.839v.985h6.034v2.412c0 .357-.068.695-.207 1.012a2.6 2.6 0 0 1-1.374 1.379 2.47 2.47 0 0 1-1.008.208h-4.845v-2.292h1.4v.87h3.445c.33 0 .61-.115.841-.345.23-.231.348-.51.348-.839v-.984h-6.034v-2.413c0-.357.068-.694.207-1.011ZM36.548 20.28h-2.044v-.405h4.526v.404h-2.044v5.485h-.436v-5.485h-.002ZM41.827 19.832h.42l2.732 5.93h-.478l-.745-1.649h-3.462l-.745 1.65h-.453l2.733-5.931h-.002Zm1.743 3.886-1.543-3.408-1.55 3.408h3.093ZM50.72 19.875l-2.254 2.886 2.338 3.003h-.52l-2.087-2.718-2.078 2.718h-.512l2.33-3.003-2.246-2.886h.52l2.002 2.599 1.994-2.599h.513ZM52.162 19.875h.436v5.889h-.436v-5.889ZM56.54 24.906l.283-.329c.645.597 1.24.874 2.105.874.864 0 1.482-.496 1.482-1.17v-.016c0-.622-.327-.985-1.66-1.253-1.407-.285-1.977-.765-1.977-1.658v-.017c0-.873.796-1.548 1.885-1.548.855 0 1.416.235 2.011.715l-.276.345c-.553-.48-1.106-.664-1.751-.664-.863 0-1.433.497-1.433 1.11v.017c0 .623.32 1.002 1.71 1.287 1.357.277 1.927.765 1.927 1.624v.017c0 .951-.812 1.607-1.943 1.607-.94 0-1.66-.312-2.364-.943v.002ZM64.207 19.875h2.464c.72 0 1.298.227 1.651.58.276.277.445.673.445 1.094v.017c0 .985-.729 1.549-1.718 1.683l1.935 2.515h-.553l-1.869-2.44h-1.919v2.44h-.436v-5.889Zm2.414 3.053c.98 0 1.71-.496 1.71-1.345v-.017c0-.79-.62-1.287-1.685-1.287h-2.003v2.65h1.978ZM71.6 22.835v-.017c0-1.607 1.181-3.045 2.958-3.045 1.777 0 2.942 1.421 2.942 3.029v.016c0 1.608-1.182 3.045-2.959 3.045-1.776 0-2.941-1.42-2.941-3.028Zm5.447 0v-.017c0-1.454-1.056-2.649-2.506-2.649-1.449 0-2.488 1.178-2.488 2.633v.016c0 1.455 1.056 2.65 2.505 2.65 1.45 0 2.489-1.178 2.489-2.633Z"/><path fill-rule="evenodd" clip-rule="evenodd" d="M14.97 2.598c-6.89 0-12.478 5.607-12.478 12.524 0 6.918 5.586 12.525 12.479 12.525 6.892 0 12.478-5.607 12.478-12.525 0-6.917-5.588-12.524-12.479-12.524Zm0 18.967c-3.412 0-6.178-2.776-6.178-6.201s2.766-6.201 6.178-6.201c3.413 0 6.179 2.776 6.179 6.2 0 3.426-2.766 6.202-6.179 6.202Zm-.355-17.372v-.81c-.001-.177.085-.299.326-.293.225.006.297.128.297.293-.002.54-.002 1.078 0 1.618 0 .178-.085.3-.326.294-.225-.006-.298-.128-.297-.292v-.81Zm-.03 2.6v.539c.001.18.002.36 0 .54-.001.164.072.286.297.292.241.006.327-.116.327-.293-.003-.54-.003-1.08 0-1.62 0-.164-.072-.286-.298-.292-.24-.006-.327.116-.326.294.002.18.001.36 0 .54Zm.108 16.529v-.27c.001-.18.002-.36 0-.54-.001-.177.085-.3.326-.293.225.006.297.128.297.292-.002.54-.002 1.08 0 1.62 0 .177-.085.299-.326.293-.225-.006-.298-.128-.297-.293.002-.18.001-.36 0-.54v-.27Zm-.029 2.6V27c-.002.164.072.286.297.292.24.006.326-.116.326-.294-.002-.54-.002-1.078 0-1.618 0-.165-.072-.287-.297-.293-.241-.006-.328.116-.326.294v.54Z"/></g></svg>