<svg width="63" height="20" viewBox="0 0 63 20" fill="none" xmlns="http://www.w3.org/2000/svg">
<path d="M15.4193 7.63442H8.08456V9.63115H13.3004C13.0396 12.4447 10.4969 13.6851 8.11715 13.6851C5.05285 13.6851 2.37973 11.4464 2.37973 8.33025C2.37973 5.27466 4.92245 2.91489 8.11715 2.91489C10.5947 2.91489 12.029 4.36705 12.029 4.36705L13.5286 2.91489C13.5286 2.91489 11.5726 0.918161 8.01936 0.918161C3.48809 0.887908 0 4.42756 0 8.26975C0 12.0212 3.2925 15.6818 8.14975 15.6818C12.4202 15.6818 15.5497 12.9893 15.5497 8.96558C15.5497 8.11848 15.4193 7.63442 15.4193 7.63442Z" fill="white" fill-opacity="0.6"/>
<path fill-rule="evenodd" clip-rule="evenodd" d="M16.2344 10.8719C16.2344 8.33059 18.3859 6.15234 21.385 6.15234C23.8625 6.15234 26.5357 7.78603 26.5683 10.9324C26.5683 13.7157 24.2863 15.6822 21.4502 15.6822C18.3207 15.6822 16.2344 13.4737 16.2344 10.8719ZM24.2864 10.9328C24.2864 9.17809 22.8846 8.05871 21.4177 8.05871C19.7551 8.05871 18.4838 9.26885 18.5164 10.9025C18.5164 12.5967 19.7877 13.8069 21.4177 13.8069C22.9172 13.8069 24.2864 12.6875 24.2864 10.9328Z" fill="white" fill-opacity="0.6"/>
<path fill-rule="evenodd" clip-rule="evenodd" d="M27.4492 10.8719C27.4492 8.33059 29.6008 6.15234 32.5999 6.15234C35.0774 6.15234 37.7505 7.78603 37.7831 10.9324C37.7831 13.7157 35.5012 15.6822 32.6651 15.6822C29.5356 15.6822 27.4492 13.4737 27.4492 10.8719ZM35.5011 10.9328C35.5011 9.17809 34.0993 8.05871 32.6324 8.05871C30.9698 8.05871 29.6985 9.26885 29.7311 10.9025C29.7311 12.5967 31.0024 13.8069 32.6324 13.8069C34.1319 13.8069 35.5011 12.6875 35.5011 10.9328Z" fill="white" fill-opacity="0.6"/>
<path fill-rule="evenodd" clip-rule="evenodd" d="M38.6621 10.9314C38.6621 8.4204 40.8136 6.18164 43.5846 6.18164C44.7907 6.18164 45.7035 6.60519 46.2903 7.27076V6.45392H48.4418V15.0156C48.4418 18.3738 46.3555 19.9772 43.6172 19.9772C41.107 19.9772 39.7053 18.5553 39.0207 17.1939L41.0092 16.4376C41.3026 17.0426 42.085 18.1317 43.6498 18.1317C45.2797 18.1317 46.3555 17.1334 46.3555 15.4997V14.5618C45.7361 15.1972 44.9863 15.7115 43.5194 15.7115C41.1722 15.7115 38.6621 13.7753 38.6621 10.9314ZM46.5185 10.9611C46.5185 9.14591 45.1167 8.05679 43.7802 8.05679C42.3458 8.05679 40.9441 9.11566 40.9115 10.9914C40.9115 12.7158 42.2806 13.8352 43.7476 13.8352C45.1493 13.8352 46.5185 12.8368 46.5185 10.9611Z" fill="white" fill-opacity="0.6"/>
<path fill-rule="evenodd" clip-rule="evenodd" d="M53.3008 10.9021C53.3008 8.05831 55.4849 6.15234 58.0928 6.15234C60.114 6.15234 61.6461 7.42299 62.3307 8.87515L62.6893 9.66174L55.8109 12.324C56.2347 13.0501 56.8867 13.7762 58.321 13.7762C59.5924 13.7762 60.3748 13.1409 60.8312 12.4753L62.6241 13.5947C61.8417 14.5628 60.4726 15.6822 58.321 15.6822C55.7457 15.6822 53.3008 13.8972 53.3008 10.9021ZM60.0815 9.0266C59.7555 8.45178 59.1035 7.99798 58.1582 7.99798C56.6912 7.99798 55.2569 9.41989 55.5177 10.8115L60.0815 9.0266Z" fill="white" fill-opacity="0.6"/>
<path d="M50.0391 15.4087H52.2884V1.37109H50.0391V15.4087Z" fill="white" fill-opacity="0.6"/>
</svg>
