<svg width="66" height="27" viewBox="0 0 66 27" fill="none" xmlns="http://www.w3.org/2000/svg"><path d="m0 18 1.223-1.905h7.091c.402 0 .664-.256.664-.647v-1.106H2.882c-1.817 0-2.62-.782-2.62-2.518v-.748C.262 9.783 1.048 9 2.288 9h.14v2.79c0 .391.262.647.664.647h5.903c1.345 0 2.149.782 2.149 2.058v.987c0 1.684-.856 2.518-2.62 2.518H0Zm42.496-1.94h5.485c.908 0 1.484-.544 1.484-1.395v-2.33c0-.851-.576-1.396-1.484-1.396h-5.485v5.122Zm-2.2 1.94V9h7.737c2.306 0 3.633 1.293 3.633 3.437v2.126c0 2.144-1.327 3.437-3.633 3.437h-7.738ZM29.63 16.06h4.628c.839 0 1.38-.51 1.38-1.31v-2.5c0-.8-.541-1.31-1.38-1.31H29.63c-.839 0-1.38.51-1.38 1.31v2.5c0 .8.541 1.31 1.38 1.31ZM34.31 18h-4.733c-2.236 0-3.528-1.259-3.528-3.352v-2.296C26.049 10.259 27.34 9 29.577 9h4.734c2.236 0 3.528 1.259 3.528 3.352v2.296c0 2.093-1.292 3.352-3.528 3.352Zm18.258 0 5.188-9h3.056L66 18h-2.515l-.891-1.548h-4.42l-1.187-1.838L55.031 18h-2.463Zm4.471-3.488h4.437l-2.218-3.828-2.219 3.828Zm-52.445-3.64L3.336 9h7.598l-1.222 1.871H4.594ZM13.566 18V9h2.2v3.505h2.918L22.474 9h2.917l-4.821 4.475L25.478 18h-3.091l-3.79-3.556h-2.83V18h-2.201Z" fill="#fff" fill-opacity=".6"/></svg>