<svg width="72" height="20" viewBox="0 0 72 20" fill="none" xmlns="http://www.w3.org/2000/svg">
<path d="M12.9051 1.67449C12.6182 0.806527 11.6139 0.339163 10.6814 0.606228C9.74888 0.873293 9.24675 1.80802 9.53368 2.67598L14.1246 15.8289C14.4474 16.6301 15.3799 17.0975 16.2766 16.8638C17.2091 16.5967 17.7829 15.6954 17.496 14.8274C17.496 14.794 12.9051 1.67449 12.9051 1.67449Z" fill="white" fill-opacity="0.6"/>
<path d="M5.80355 3.84441C5.51662 2.97645 4.51237 2.50909 3.57984 2.77615C2.64732 3.04321 2.14519 3.97794 2.43212 4.8459L7.02301 17.9988C7.34581 18.8 8.27833 19.2674 9.17499 19.0337C10.1075 18.7667 10.6814 17.8653 10.3944 16.9974C10.3944 16.964 5.80355 3.84441 5.80355 3.84441Z" fill="white" fill-opacity="0.6"/>
<path d="M18.7157 12.5919C19.6482 12.3248 20.1503 11.3901 19.8634 10.5221C19.5765 9.65418 18.5722 9.18682 17.6397 9.45388L3.47248 13.6935C2.61169 13.994 2.10956 14.8619 2.36062 15.6965C2.64755 16.5645 3.61594 17.0986 4.54847 16.8316C4.6202 16.8316 18.7157 12.5919 18.7157 12.5919Z" fill="white" fill-opacity="0.6"/>
<path d="M6.41264 16.2979C7.34516 16.0308 8.52875 15.6636 9.78407 15.263C9.49714 14.3951 9.10261 13.2934 8.67222 12.125L5.30078 13.1599L6.41264 16.2979Z" fill="white" fill-opacity="0.6"/>
<path d="M13.5503 14.126C14.8415 13.7254 16.0251 13.3916 16.9218 13.0911C16.6348 12.2232 16.2403 11.1215 15.8099 9.95312L12.4385 10.988L13.5503 14.126Z" fill="white" fill-opacity="0.6"/>
<path d="M16.3839 5.94736C17.3164 5.6803 17.8186 4.74557 17.5316 3.87761C17.2447 3.00965 16.2404 2.54229 15.3079 2.80935L1.17658 7.08239C0.315788 7.38284 -0.186341 8.2508 0.0647239 9.08538C0.351655 9.98672 1.32005 10.5208 2.25257 10.2204C2.28844 10.2204 16.3839 5.94736 16.3839 5.94736Z" fill="white" fill-opacity="0.6"/>
<path d="M4.11772 9.65336C5.05024 9.38629 6.23383 9.01908 7.48915 8.61848C7.05876 7.41669 6.70009 6.31505 6.3773 5.48047L3.00586 6.51534L4.11772 9.65336Z" fill="white" fill-opacity="0.6"/>
<path d="M11.2193 7.51664C12.5105 7.11604 13.6941 6.78221 14.5907 6.48176C14.1603 5.27997 13.8017 4.17833 13.4789 3.34375L10.1074 4.37863L11.2193 7.51664Z" fill="white" fill-opacity="0.6"/>
<path d="M33.0258 5.14726C33.6356 5.41432 33.7073 5.58124 33.2052 6.4492C32.703 7.35054 32.5954 7.38393 31.9498 7.15024C31.1608 6.8498 30.1924 6.61611 29.5468 6.61611C28.5067 6.61611 27.8252 6.94995 27.8252 7.48408C27.8252 9.22 33.8149 8.28527 33.8149 12.0242C33.8149 13.8936 32.0933 15.1288 29.5109 15.1288C28.148 15.1288 26.4623 14.6948 25.3146 14.1607C24.7407 13.8936 24.7048 13.7267 25.207 12.8254C25.6374 12.0576 25.7808 11.9574 26.3905 12.1911C27.3948 12.5917 28.6143 12.8921 29.4751 12.8921C30.4434 12.8921 31.0532 12.5249 31.0532 11.9908C31.0532 10.2883 24.9559 11.0895 24.9559 7.48408C24.9559 5.58124 26.6775 4.2793 29.224 4.2793C30.4434 4.37945 31.9857 4.71328 33.0258 5.14726Z" fill="white" fill-opacity="0.6"/>
<path d="M37.8674 0.740026V14.6274C37.8674 14.8277 37.6164 15.0614 37.2936 15.0614H35.7155C35.3568 15.0614 35.1416 14.8277 35.1416 14.6274V0.740026C35.1416 0.0389811 35.3568 0.005598 36.5045 0.005598C37.7957 -0.0277851 37.8674 0.0723642 37.8674 0.740026Z" fill="white" fill-opacity="0.6"/>
<path fill-rule="evenodd" clip-rule="evenodd" d="M48.9866 14.494V8.51841C48.9866 5.91453 47.0856 4.37891 44.0729 4.37891C42.7099 4.37891 41.2036 4.7795 40.1276 5.44717C39.5537 5.781 39.5537 5.94791 40.1276 6.78249C40.7373 7.61707 40.8449 7.65045 41.4188 7.35C42.1361 6.94941 43.0327 6.68234 43.7859 6.68234C45.3641 6.68234 46.2966 7.35 46.2966 8.45164V9.15269C45.5434 8.85224 44.6109 8.68533 43.6066 8.68533C40.9166 8.68533 39.1592 10.0207 39.1592 12.0236C39.1592 13.8931 40.7373 15.1616 43.0686 15.1616C44.2881 15.1616 45.5075 14.6943 46.3324 13.8263L46.2966 14.4606C46.2607 14.7944 46.5118 15.0281 46.8704 15.0281H48.4127C48.7355 15.0281 48.9866 14.8278 48.9866 14.494ZM43.3915 13.1584C42.4231 13.1584 41.7776 12.691 41.7776 11.99C41.7776 11.122 42.7459 10.4543 44.1806 10.4543C44.8621 10.4543 45.6511 10.5545 46.2608 10.7882V11.7229C45.6511 12.6242 44.5751 13.1584 43.3915 13.1584Z" fill="white" fill-opacity="0.6"/>
<path d="M59.6385 5.18027C60.2123 5.48071 60.2123 5.64763 59.6026 6.54897C59.0287 7.38355 58.9211 7.45032 58.2755 7.14987C57.8093 6.91619 57.0202 6.71589 56.4105 6.71589C54.4378 6.71589 53.1467 7.91768 53.1467 9.75375C53.1467 11.6566 54.4378 12.9251 56.4105 12.9251C57.092 12.9251 57.9527 12.6915 58.4907 12.391C59.0646 12.0906 59.1722 12.0906 59.7819 12.9251C60.3199 13.693 60.3199 13.8599 59.8178 14.1937C58.957 14.7612 57.5582 15.1952 56.3388 15.1952C52.7163 15.1952 50.2773 13.0253 50.2773 9.78713C50.2773 6.54897 52.7163 4.41245 56.3746 4.41245C57.5223 4.37907 58.8135 4.7129 59.6385 5.18027Z" fill="white" fill-opacity="0.6"/>
<path d="M71.5104 13.7263C71.9766 14.2604 71.7973 14.4607 70.6496 14.828C69.5018 15.2286 69.3225 15.1952 68.928 14.6944L65.6641 10.6551L64.1936 11.957V14.5943C64.1936 14.7946 63.9426 15.0283 63.6198 15.0283H62.0416C61.683 15.0283 61.4678 14.7946 61.4678 14.5943V0.740288C61.4678 0.0392425 61.683 0.00585938 62.8307 0.00585938C64.1577 0.00585938 64.1936 0.106009 64.1936 0.740288V8.6187L68.641 4.64611C69.1432 4.21213 69.3942 4.24551 70.2909 4.77964C71.2593 5.34716 71.331 5.51407 70.8648 5.94805L67.5651 8.95253L71.5104 13.7263Z" fill="white" fill-opacity="0.6"/>
</svg>
