<svg width="86" height="27" viewBox="0 0 86 27" fill="none" xmlns="http://www.w3.org/2000/svg"><g opacity=".6" clip-path="url(#a)" fill="#fff"><path d="M31.47 24.182c-.109.469-.16.55-.559.55h-2.686c-.347 0-.508-.05-.534-.234 0-.133.078-.341.104-.443l5.238-16.866c.109-.341.135-.392.585-.392h2.764c.399 0 .45.107.56.418l5.212 16.89c.026.108.109.317.109.418 0 .158-.264.21-.533.21h-2.982c-.264 0-.321-.077-.45-.551l-1.17-4.244h-4.576l-1.092 4.244h.01Zm3.908-11.103c-.238-1.019-.45-2.568-.585-3.668h-.051c-.11 1.1-.347 2.619-.611 3.668l-1.17 4.505h3.51l-1.093-4.505ZM54.024 10.069c-.078.158-.187.26-.296.26-.16 0-1.806-1.152-3.721-1.152-1.222 0-2.5.47-2.5 2.044 0 1.992 3.11 2.359 5.455 4.06 1.357.994 2.288 2.385 2.288 4.372 0 3.328-2.396 5.524-5.745 5.524-2.713 0-5.56-1.152-5.56-1.57 0-.076.078-.26.135-.418l.61-1.727c.053-.158.187-.26.296-.26.16 0 2.127 1.152 4.415 1.152 1.49 0 2.397-.785 2.397-2.41 0-2.329-2.713-2.568-5.425-4.189-1.408-.835-2.314-1.885-2.314-4.06 0-3.771 2.77-5.34 5.855-5.34 2.526 0 5.134 1.151 5.134 1.594 0 .077-.025.184-.134.393l-.88 1.727h-.01Zm-4.737-4.504L45.855 3.73c-.16-.076-.346-.158-.346-.29 0-.107.077-.26.134-.367l.585-1.1c.104-.21.135-.21.238-.21.135 0 .373.108.507.159l2.687 1.177 2.686-1.177c.135-.051.373-.158.508-.158.108 0 .134 0 .238.209l.585 1.1c.051.107.134.26.134.367 0 .132-.186.209-.346.29l-3.432 1.835c-.11.05-.239.158-.373.158-.135 0-.264-.107-.373-.158ZM67.218 10.068c-.078.158-.186.26-.295.26-.16 0-1.812-1.152-3.727-1.152-1.221 0-2.5.47-2.5 2.043 0 1.993 3.111 2.36 5.456 4.062 1.356.993 2.288 2.384 2.288 4.371 0 3.328-2.392 5.524-5.746 5.524-2.712 0-5.56-1.152-5.56-1.57 0-.076.078-.26.135-.418l.611-1.727c.052-.158.186-.26.295-.26.16 0 2.128 1.152 4.416 1.152 1.49 0 2.391-.785 2.391-2.41 0-2.329-2.712-2.568-5.425-4.189-1.408-.835-2.314-1.885-2.314-4.06 0-3.771 2.765-5.34 5.855-5.34 2.526 0 5.135 1.151 5.135 1.594 0 .077-.026.184-.135.393l-.88 1.727ZM75.516 24.182c0 .469-.109.55-.559.55h-2.474c-.45 0-.56-.076-.56-.55V7.347c0-.469.11-.55.56-.55h2.474c.45 0 .56.076.56.55v7.332h.05l5.855-7.984c.078-.133.295-.341.45-.341.135 0 .265.107.477.208l1.812.892c.16.077.346.234.346.316 0 .26-.108.316-.186.418l-5.668 7.357 6.253 7.649c.078.107.186.157.186.417 0 .077-.186.235-.346.316l-2.128 1.05c-.212.107-.347.209-.476.209-.16 0-.373-.21-.45-.342l-6.119-8.015h-.052v7.358l-.005-.005ZM10.206 11.459c-.222-.026-.435-.041-.616-.077-.17.127-.642.326-.823.408-2.003.759-5.124.102-7.293-.938.807 6.42 3.97 12.652 9.069 15.841v-.723c-2.154-2.237-4.607-7.317-4.944-11.73 1.641-.188 2.8-.692 3.826-1.564l.781-1.223v.006ZM2.281 6.857c.896.041 1.44.734 1.62 1.58.192.744-.093 1.982-1.242 2.176-.895.102-1.646-.882-1.744-1.937-.13-.957.528-1.819 1.361-1.819h.005ZM.092 27c1.516-2.038 2.619-4.902 3.054-7.398.58.86 1.056 1.717 1.698 2.537-.477 1.126-2.21 3.842-4.752 4.866V27ZM12.22 11.459c.227-.026.434-.041.615-.077.176.127.642.326.823.408 2.004.759 5.125.102 7.294-.938-.808 6.42-3.97 12.652-9.07 15.841v-.723c2.154-2.237 4.608-7.317 4.944-11.73-1.64-.188-2.8-.692-3.825-1.564l-.782-1.223v.006Zm7.924-4.602c-.89.041-1.439.734-1.62 1.58-.192.744.093 1.982 1.242 2.176.896.102 1.646-.882 1.745-1.937.13-.957-.528-1.819-1.362-1.819h-.005ZM22.334 27c-1.517-2.038-2.62-4.902-3.054-7.398-.58.86-1.056 1.717-1.698 2.537.476 1.126 2.21 3.842 4.752 4.866V27Z"/><path fill-rule="evenodd" clip-rule="evenodd" d="M11.273 0C8.245 0 5.797 2.415 5.797 5.39c0 2.976 2.453 5.392 5.476 5.392S16.75 8.366 16.75 5.39C16.75 2.415 14.296 0 11.273 0Zm.534.57a8.12 8.12 0 0 1 .74 1.952c.347-.05.688-.122 1.014-.214A5.414 5.414 0 0 0 11.832.571h-.025Zm.859 2.482c.13.668.202 1.37.222 2.074h1.527a5.885 5.885 0 0 0-.584-2.329 8.575 8.575 0 0 1-1.165.255Zm.222 2.614a11.886 11.886 0 0 1-.222 2.074 9.22 9.22 0 0 1 1.165.255 5.952 5.952 0 0 0 .584-2.329h-1.527Zm-.336 2.604a8.2 8.2 0 0 1-.74 1.951h.026a5.415 5.415 0 0 0 1.729-1.737 8.12 8.12 0 0 0-1.015-.214Zm-1.273 1.982c.326-.591.585-1.29.766-2.043a9.53 9.53 0 0 0-1.533 0c.182.754.435 1.452.767 2.043Zm.874-2.573c.12-.647.187-1.33.202-2.008h-2.153c.01.683.078 1.36.202 2.008.284-.026.58-.041.875-.041.295 0 .585.015.874.04Zm.202-2.548a12.284 12.284 0 0 0-.202-2.013c-.29.026-.58.041-.874.041a9.86 9.86 0 0 1-.875-.04c-.12.646-.187 1.33-.202 2.012h2.153Zm-.31-2.543c-.181-.754-.435-1.452-.766-2.043-.332.591-.585 1.29-.767 2.043a9.53 9.53 0 0 0 1.533 0Zm-1.3-2.012h-.025a5.363 5.363 0 0 0-1.73 1.737c.327.092.668.163 1.015.214a8.12 8.12 0 0 1 .74-1.951Zm-.859 2.481a9.22 9.22 0 0 1-1.165-.255 5.976 5.976 0 0 0-.584 2.329h1.527c.015-.703.088-1.406.217-2.074h.005ZM9.67 5.671H8.142c.036.805.228 1.6.585 2.329.372-.107.76-.194 1.164-.255a12.41 12.41 0 0 1-.217-2.074h-.005Zm.336 2.604a8.124 8.124 0 0 0-1.014.214c.419.683.999 1.279 1.729 1.737h.025a8.122 8.122 0 0 1-.74-1.951Zm2.873-7.47c.476.392.875.851 1.19 1.345.213-.076.42-.158.622-.25A5.004 5.004 0 0 0 12.878.806Zm1.47 1.824c.399.78.621 1.636.657 2.497h1.186a4.807 4.807 0 0 0-1.108-2.803 8.537 8.537 0 0 1-.735.306Zm.657 3.037a6.055 6.055 0 0 1-.657 2.497c.254.091.497.193.735.305a4.82 4.82 0 0 0 1.108-2.802h-1.185Zm-.936 2.976a5.87 5.87 0 0 1-1.19 1.345 5.004 5.004 0 0 0 1.81-1.096 6.539 6.539 0 0 0-.62-.244v-.005Zm-5.876-.48a6.062 6.062 0 0 1-.662-2.496H6.346a4.806 4.806 0 0 0 1.107 2.802 8 8 0 0 1 .74-.305Zm-.346.73a5.003 5.003 0 0 0 1.811 1.095 5.765 5.765 0 0 1-1.19-1.345c-.212.076-.42.158-.621.25ZM9.658.81c-.683.235-1.299.612-1.811 1.096.202.091.409.173.62.25A5.87 5.87 0 0 1 9.659.81Zm-1.47 1.824a7.893 7.893 0 0 1-.735-.305A4.806 4.806 0 0 0 6.346 5.13H7.53a6.056 6.056 0 0 1 .657-2.497Z"/></g><defs><clipPath id="a"><path fill="#fff" transform="translate(.092)" d="M0 0h85v27H0z"/></clipPath></defs></svg>