<svg width="81" height="16" viewBox="0 0 81 16" fill="none" xmlns="http://www.w3.org/2000/svg"><path d="M6.18 1.28c1.213 0 2.207.287 2.98.86.787.573 1.18 1.36 1.18 2.36 0 .893-.24 1.653-.72 2.28-.467.627-1.047 1.007-1.74 1.14v.1c.64.253 1.167.693 1.58 1.32.413.627.62 1.38.62 2.26 0 .733.04 1.287.12 1.66.08.373.187.633.32.78.133.147.327.26.58.34v.56c-.293.12-.607.18-.94.18-.64 0-1.14-.187-1.5-.56-.36-.387-.54-1.107-.54-2.16 0-1.08-.227-1.92-.68-2.52-.44-.613-.993-.92-1.66-.92H2.3V15H.34V1.28h5.84ZM2.3 3.06v4.12h3.9c.573 0 1.08-.193 1.52-.58.44-.387.66-.867.66-1.44v-.08c0-.587-.2-1.067-.6-1.44-.4-.387-.927-.58-1.58-.58H2.3Zm15.278 1.52c1.347 0 2.347.267 3 .8.667.533 1 1.307 1 2.32V13c0 .24.054.42.16.54.107.107.24.16.4.16.307 0 .614-.093.92-.28v1.38a2.98 2.98 0 0 1-1.54.4c-.573 0-1-.16-1.28-.48-.28-.333-.433-.787-.46-1.36-.826 1.227-2.02 1.84-3.58 1.84-1.12 0-1.96-.24-2.52-.72-.546-.493-.82-1.267-.82-2.32 0-.827.214-1.473.64-1.94.427-.48 1.134-.827 2.12-1.04.987-.213 2.347-.32 4.08-.32v-.94c0-.68-.2-1.153-.6-1.42-.4-.28-.98-.42-1.74-.42-.72 0-1.28.14-1.68.42-.4.28-.6.673-.6 1.18v.24h-1.84a4.745 4.745 0 0 1-.04-.66c0-.467.187-.907.56-1.32.374-.413.88-.74 1.52-.98a5.713 5.713 0 0 1 2.12-.38h.18Zm2.12 5.74c-1.4 0-2.46.073-3.18.22-.706.133-1.18.34-1.42.62-.24.28-.36.667-.36 1.16 0 .92.7 1.38 2.1 1.38.494 0 .96-.12 1.4-.36.44-.253.794-.607 1.06-1.06.267-.453.4-.973.4-1.56v-.4Zm13.9 4.68h-1.4c-.094-.427-.18-.893-.26-1.4-.76 1.067-1.814 1.6-3.16 1.6-1.28 0-2.294-.473-3.04-1.42-.734-.947-1.1-2.247-1.1-3.9v-.22c0-1.56.36-2.793 1.08-3.7.733-.92 1.753-1.38 3.06-1.38 1.266 0 2.246.5 2.94 1.5V.6h1.88V15Zm-4.48-8.92c-.894 0-1.554.313-1.98.94-.414.613-.62 1.573-.62 2.88s.213 2.267.64 2.88c.426.613 1.08.92 1.96.92 1.746 0 2.62-1.267 2.62-3.8 0-1.307-.22-2.267-.66-2.88-.44-.627-1.094-.94-1.96-.94ZM38.838.6v1.74h-1.96V.6h1.96Zm-.04 4.18V15h-1.88V4.78h1.88Zm7.395-.2c1.427 0 2.567.44 3.42 1.32.854.88 1.28 2.087 1.28 3.62v.74c0 1.533-.42 2.74-1.26 3.62-.84.88-1.986 1.32-3.44 1.32-1.453 0-2.6-.44-3.44-1.32-.84-.88-1.26-2.087-1.26-3.62v-.74c0-1.533.427-2.74 1.28-3.62.853-.88 1.993-1.32 3.42-1.32Zm0 1.5c-.893 0-1.587.307-2.08.92-.493.613-.74 1.513-.74 2.7v.38c0 1.16.24 2.053.72 2.68.493.627 1.193.94 2.1.94.88 0 1.567-.307 2.06-.92.507-.627.76-1.527.76-2.7V9.7c0-1.16-.246-2.053-.74-2.68-.48-.627-1.173-.94-2.08-.94Zm16.827-5c.894 0 1.687.187 2.38.56.707.373 1.254.9 1.64 1.58.4.667.6 1.44.6 2.32h-1.96c0-.827-.24-1.48-.72-1.96s-1.126-.72-1.94-.72c-.48 0-.926.12-1.34.36-.4.24-.72.567-.96.98-.24.4-.36.84-.36 1.32v2.16c.827-.88 1.86-1.32 3.1-1.32.8 0 1.534.187 2.2.56.68.373 1.214.887 1.6 1.54.4.64.6 1.347.6 2.12 0 .907-.2 1.713-.6 2.42-.4.693-.96 1.233-1.68 1.62s-1.533.58-2.44.58c-.906 0-1.72-.193-2.44-.58a4.42 4.42 0 0 1-1.7-1.66c-.4-.72-.6-1.527-.6-2.42V5.7c0-.827.207-1.593.62-2.3a4.568 4.568 0 0 1 4-2.32Zm.12 7.06c-.786 0-1.446.253-1.98.76-.533.493-.8 1.12-.8 1.88 0 .76.267 1.393.8 1.9.534.493 1.194.74 1.98.74.787 0 1.44-.24 1.96-.72.534-.493.8-1.133.8-1.92 0-.787-.266-1.42-.8-1.9-.52-.493-1.173-.74-1.96-.74Zm12.185-7.06c.893 0 1.687.187 2.38.56.707.373 1.253.9 1.64 1.58.4.667.6 1.44.6 2.32h-1.96c0-.827-.24-1.48-.72-1.96s-1.127-.72-1.94-.72c-.48 0-.927.12-1.34.36-.4.24-.72.567-.96.98-.24.4-.36.84-.36 1.32v2.16c.827-.88 1.86-1.32 3.1-1.32.8 0 1.533.187 2.2.56.68.373 1.213.887 1.6 1.54.4.64.6 1.347.6 2.12 0 .907-.2 1.713-.6 2.42-.4.693-.96 1.233-1.68 1.62s-1.533.58-2.44.58-1.72-.193-2.44-.58a4.42 4.42 0 0 1-1.7-1.66c-.4-.72-.6-1.527-.6-2.42V5.7c0-.827.207-1.593.62-2.3a4.568 4.568 0 0 1 4-2.32Zm.12 7.06c-.787 0-1.447.253-1.98.76-.533.493-.8 1.12-.8 1.88 0 .76.267 1.393.8 1.9.533.493 1.193.74 1.98.74.787 0 1.44-.24 1.96-.72.533-.493.8-1.133.8-1.92 0-.787-.267-1.42-.8-1.9-.52-.493-1.173-.74-1.96-.74Z" fill="#fff" fill-opacity=".6"/></svg>