<svg width="64" height="16" viewBox="0 0 64 16" fill="none" xmlns="http://www.w3.org/2000/svg">
<path fill-rule="evenodd" clip-rule="evenodd" d="M14.3485 5.97594C14.8799 5.97594 15.5515 5.96095 16.207 5.94632L16.2071 5.94632C16.8321 5.93236 17.4426 5.91874 17.9032 5.91874V8.32141C16.7393 8.32141 15.3551 8.32141 14.3485 8.37862V11.954C14.8387 11.9267 15.3321 11.8965 15.8277 11.8662H15.8277C16.8904 11.8012 17.9631 11.7356 19.0357 11.6966V14.0135L11.706 14.5283V0.3125H19.0357V2.71517H14.3485V5.97594ZM7.3384 14.9317H7.33839L7.33832 14.9317C6.97622 14.966 6.60861 15.0007 6.2322 15.0435L3.21223 6.9774V15.3868C2.26849 15.4726 1.41912 15.587 0.506836 15.73V0.312845H3.02348L6.45241 9.06544V0.312845H9.12634V14.7289C8.53551 14.8184 7.94468 14.8743 7.3384 14.9317ZM26.1145 2.74378H28.8514C28.8514 2.74378 28.8514 0.3125 28.8828 0.3125H20.7352V2.74378H23.472V13.8418C24.3214 13.8132 25.2337 13.8132 26.1145 13.8132V2.74378ZM33.1605 5.80432H36.7782V8.207H33.1605V13.6702H30.5495V0.3125H37.9422V2.71517H33.1605V5.80432ZM44.9953 11.6686C44.0855 11.6199 43.1688 11.5709 42.252 11.5536V0.3125H39.6095V13.8132C42.0318 13.8704 44.3912 13.9849 46.7505 14.1279V11.7538C46.1697 11.7313 45.584 11.7 44.9954 11.6686L44.9953 11.6686L44.9953 11.6686ZM48.984 14.2995C49.2783 14.3193 49.5764 14.3357 49.877 14.3522C50.4438 14.3834 51.0194 14.415 51.595 14.4711V0.3125H48.984V14.2995ZM59.8062 7.63493L63.1722 0.3125H60.2466L58.3906 4.34556L56.6604 0.3125H53.8292L56.9121 7.54912L53.5146 14.5855C53.8921 14.6313 54.2696 14.6679 54.6471 14.7045C55.2133 14.7594 55.7796 14.8143 56.3458 14.9002L58.2962 10.8099L60.1837 15.272C60.5362 15.3221 60.8849 15.3757 61.2324 15.4291C61.8773 15.5282 62.5181 15.6267 63.1722 15.701L59.8062 7.63493Z" fill="white" fill-opacity="0.6"/>
</svg>
