<svg width="113" height="33" viewBox="0 0 113 33" fill="none" xmlns="http://www.w3.org/2000/svg"><g opacity=".6" fill="#fff"><path d="M37.29 11.912a3.428 3.428 0 0 0-.914-.575 2.339 2.339 0 0 0-.885-.19c-.362 0-.657.09-.886.27a.826.826 0 0 0-.255.306.869.869 0 0 0-.088.396.718.718 0 0 0 .172.493c.128.14.281.255.45.336.202.102.412.184.628.247.234.07.465.145.693.225.914.318 1.584.744 2.007 1.277.423.533.635 1.229.636 2.086a4.225 4.225 0 0 1-.279 1.569c-.18.46-.459.872-.814 1.203-.383.35-.83.614-1.314.777a5.258 5.258 0 0 1-1.765.277c-1.362 0-2.624-.424-3.785-1.27l1.2-2.362c.369.354.788.646 1.242.866.382.184.796.28 1.215.285.457 0 .797-.11 1.021-.33.224-.219.336-.468.336-.747a1.047 1.047 0 0 0-.086-.441.95.95 0 0 0-.286-.344 2.242 2.242 0 0 0-.52-.291c-.215-.09-.475-.19-.78-.299-.361-.12-.716-.252-1.064-.397a3.302 3.302 0 0 1-.928-.575 2.661 2.661 0 0 1-.658-.904c-.166-.364-.25-.825-.25-1.383a4.15 4.15 0 0 1 .265-1.514 3.38 3.38 0 0 1 .743-1.166 3.29 3.29 0 0 1 1.17-.756 4.246 4.246 0 0 1 1.551-.27 6.5 6.5 0 0 1 1.672.232 7.183 7.183 0 0 1 1.67.68l-1.114 2.29ZM42.68 24.08h-2.627V12.424h2.627v.864c.561-.738 1.326-1.106 2.294-1.106a3.437 3.437 0 0 1 1.488.326c.45.21.857.512 1.197.886.344.382.613.83.792 1.32.19.517.286 1.067.283 1.622a4.474 4.474 0 0 1-.283 1.606c-.181.482-.447.924-.784 1.303-.34.382-.753.686-1.212.892-.458.206-.953.31-1.452.306-.93 0-1.704-.334-2.324-1l.001 4.637Zm3.307-7.745c.002-.236-.04-.47-.122-.69-.08-.213-.201-.406-.356-.568a1.782 1.782 0 0 0-.544-.384 1.649 1.649 0 0 0-1.328-.008c-.2.088-.38.217-.53.38a1.941 1.941 0 0 0-.363.567 1.758 1.758 0 0 0-.138.69c-.002.235.043.467.13.682.085.208.208.397.364.554.158.16.342.287.544.378.208.097.433.146.66.144a1.587 1.587 0 0 0 1.184-.515c.15-.164.273-.353.362-.56.093-.21.14-.439.14-.67h-.003ZM49.942 16.328a4.09 4.09 0 0 1 .324-1.629c.214-.501.52-.949.902-1.315a4.23 4.23 0 0 1 1.374-.88 4.608 4.608 0 0 1 1.74-.322c.588-.006 1.172.1 1.725.313.507.195.976.49 1.382.872.387.369.697.822.91 1.33.22.537.33 1.12.323 1.706a4.288 4.288 0 0 1-.331 1.706c-.215.507-.525.96-.91 1.33a4.002 4.002 0 0 1-1.388.864 4.93 4.93 0 0 1-1.755.306 4.714 4.714 0 0 1-1.719-.306 3.908 3.908 0 0 1-1.36-.871 4.047 4.047 0 0 1-.893-1.355 4.552 4.552 0 0 1-.324-1.75Zm2.692.03a1.914 1.914 0 0 0 .486 1.3 1.565 1.565 0 0 0 2.326 0c.148-.166.267-.36.352-.573.09-.223.136-.465.134-.71.001-.239-.044-.476-.134-.695a1.963 1.963 0 0 0-.352-.574 1.56 1.56 0 0 0-2.326 0 1.99 1.99 0 0 0-.352.566c-.09.216-.137.45-.137.687h.003ZM59.828 12.596h2.495v1.271A3.03 3.03 0 0 1 63.3 12.8c.388-.247.838-.37 1.35-.37h.215c.09.001.18.011.268.03v2.618a2.198 2.198 0 0 0-1.075-.272c-.578 0-1.012.19-1.302.568-.29.378-.434.93-.433 1.657v3.33h-2.495v-7.765ZM69.886 14.98v5.38H67.22v-5.38h-.883v-2.246h.883v-2.289h2.665v2.29h1.516v2.245h-1.516ZM72.368 16.328a4.089 4.089 0 0 1 .324-1.629c.213-.501.521-.95.903-1.315.403-.384.87-.682 1.374-.88a4.606 4.606 0 0 1 1.74-.322c.587-.006 1.171.1 1.724.313.507.194.976.49 1.382.872.387.368.697.822.909 1.33.22.537.33 1.12.324 1.706a4.289 4.289 0 0 1-.331 1.706 4.04 4.04 0 0 1-.91 1.33 4.003 4.003 0 0 1-1.387.864 4.933 4.933 0 0 1-1.755.306 4.72 4.72 0 0 1-1.72-.306 3.909 3.909 0 0 1-1.36-.871 4.046 4.046 0 0 1-.891-1.355 4.551 4.551 0 0 1-.326-1.75Zm2.691.03c-.003.25.043.498.134.727.085.213.204.407.352.573a1.564 1.564 0 0 0 2.326 0c.148-.166.267-.36.352-.573a1.87 1.87 0 0 0 .134-.71 1.829 1.829 0 0 0-.134-.695 1.964 1.964 0 0 0-.352-.574 1.555 1.555 0 0 0-1.804-.382 1.554 1.554 0 0 0-.522.382 1.99 1.99 0 0 0-.352.566c-.09.216-.135.45-.134.687ZM82.494 12.597h2.662v.984c.363-.455.731-.76 1.104-.916a3.361 3.361 0 0 1 1.308-.234c.53 0 .984.088 1.361.264.372.172.701.428.964.75.21.253.362.553.441.877.083.362.122.734.117 1.106v4.934H87.79v-3.92a4.379 4.379 0 0 0-.08-.931 1.17 1.17 0 0 0-.287-.568 1.016 1.016 0 0 0-.397-.256 1.444 1.444 0 0 0-.471-.075c-.452 0-.797.139-1.037.416-.24.278-.36.674-.36 1.188v4.146h-2.663v-7.765ZM100.098 12.636v7.094c.003.382-.021.764-.071 1.143-.04.303-.106.601-.199.892-.12.337-.3.647-.533.913a3.62 3.62 0 0 1-.874.734 4.5 4.5 0 0 1-1.157.49 5.584 5.584 0 0 1-2.963-.045 4.18 4.18 0 0 1-1.243-.615 3.507 3.507 0 0 1-.874-.92 3.123 3.123 0 0 1-.454-1.15h2.898c.18.504.587.756 1.222.756.54 0 .954-.158 1.243-.474.288-.317.433-.757.433-1.321v-.73a4.34 4.34 0 0 1-.546.468 3.06 3.06 0 0 1-.533.304c-.183.08-.373.137-.569.171a3.843 3.843 0 0 1-.653.052c-.492.006-.98-.09-1.435-.282a3.31 3.31 0 0 1-1.136-.793 3.486 3.486 0 0 1-.733-1.203c-.18-.5-.27-1.031-.262-1.565a4.547 4.547 0 0 1 .284-1.628c.179-.48.442-.921.774-1.301.328-.372.724-.67 1.165-.877a3.392 3.392 0 0 1 1.47-.32c.862 0 1.587.337 2.174 1.01v-.803h2.572Zm-5.768 3.77c-.004.465.167.912.475 1.247.15.16.328.286.526.37.21.09.433.136.66.134a1.591 1.591 0 0 0 1.172-.504c.149-.162.27-.35.355-.557a1.773 1.773 0 0 0-.36-1.907 1.643 1.643 0 0 0-1.165-.505 1.486 1.486 0 0 0-.639.141 1.75 1.75 0 0 0-1.024 1.58ZM101.305 16.328a4.001 4.001 0 0 1 1.26-2.944 4.37 4.37 0 0 1 1.413-.88 4.851 4.851 0 0 1 1.789-.322c.604-.006 1.204.1 1.772.313.521.194 1.003.49 1.42.872.398.369.716.822.935 1.33.226.537.339 1.12.333 1.706.006.588-.11 1.17-.341 1.706-.221.507-.539.96-.934 1.33a4.136 4.136 0 0 1-1.427.864 5.197 5.197 0 0 1-1.804.306 4.97 4.97 0 0 1-1.767-.306 4.04 4.04 0 0 1-1.398-.871 4.05 4.05 0 0 1-.92-1.355 4.46 4.46 0 0 1-.331-1.75Zm2.767.03c-.003.25.044.498.138.727.087.213.209.407.362.573.152.165.334.296.536.383.422.183.896.183 1.318 0 .202-.087.384-.218.536-.383a1.95 1.95 0 0 0 .362-.573 1.85 1.85 0 0 0 0-1.405 1.952 1.952 0 0 0-.362-.574 1.6 1.6 0 0 0-.536-.382 1.642 1.642 0 0 0-1.856.382 1.96 1.96 0 0 0-.361.566c-.092.216-.139.45-.137.687Z"/><path fill-rule="evenodd" clip-rule="evenodd" d="M13.98 2.125c1.343-.19 2.84.204 4.303 1.426 1.33 1.11 1.78 2.552 1.796 3.834a6.467 6.467 0 0 1-.742 3.038l-.056.103-.82 1.037a5.413 5.413 0 0 1 2.15 1.104 5.781 5.781 0 0 1 2.026 3.575 5.3 5.3 0 0 1-.008 1.706c-.088.5-.27 1.04-.61 1.47l-8 10.12-.036.04c-.536.579-1.476 1.2-2.677 1.366-1.255.174-2.682-.164-4.085-1.336-1.46-1.22-1.984-2.697-1.927-4.078a5.427 5.427 0 0 1 1.125-3.046l.737-.932c-.784-.12-1.55-.464-2.263-1.06-1.613-1.347-2.268-2.891-2.258-4.365a5.061 5.061 0 0 1 1.176-3.19l7.227-9.143a4.617 4.617 0 0 1 2.941-1.669Zm-1.55 17.067c.477-.508.872-1.025 1.165-1.472l2.809-3.554c.602-.122 1.667-.116 2.539.613a3.043 3.043 0 0 1 1.08 1.886c.047.314.038.592.001.799-.031.178-.072.252-.072.254l-7.915 10.013a1.993 1.993 0 0 1-1.085.517c-.482.067-1.187-.02-2.062-.752-.819-.683-.972-1.339-.951-1.85.024-.596.3-1.15.534-1.446l3.958-5.008Zm-1.978-1.81c-.412.427-.886.828-1.383 1.109-.473.267-.907.392-1.292.388-.36-.004-.763-.12-1.215-.498-1.076-.899-1.284-1.695-1.28-2.235a2.3 2.3 0 0 1 .523-1.419l.021-.025 7.266-9.192a1.99 1.99 0 0 1 1.248-.69c.533-.074 1.31.037 2.274.843.613.512.81 1.127.818 1.754a3.733 3.733 0 0 1-.36 1.588l-6.62 8.376Z"/></g></svg>