<svg width="79" height="63" viewBox="0 0 79 63" fill="none" xmlns="http://www.w3.org/2000/svg">
<path d="M25.7809 29.4618C28.85 30.8206 31.244 32.8588 32.9627 35.5765C34.6814 38.2941 35.5408 41.5059 35.5408 45.2118C35.5408 50.5235 33.8834 54.8471 30.5688 58.1823C27.2541 61.3941 23.0186 63 17.8625 63C12.7063 63 8.40948 61.3323 4.97203 57.9971C1.65734 54.6618 0 50.4 0 45.2118C0 42.7412 0.306915 40.2706 0.920746 37.8C1.53458 35.3294 2.885 31.6235 4.97203 26.6823L15.6527 0H33.8834L25.7809 29.4618ZM69.2401 29.4618C72.3092 30.8206 74.7032 32.8588 76.4219 35.5765C78.1406 38.2941 79 41.5059 79 45.2118C79 50.5235 77.3427 54.8471 74.028 58.1823C70.7133 61.3941 66.4779 63 61.3217 63C56.1655 63 51.8687 61.3323 48.4312 57.9971C45.1166 54.6618 43.4592 50.4 43.4592 45.2118C43.4592 42.7412 43.7661 40.2706 44.38 37.8C44.9938 35.3294 46.3442 31.6235 48.4312 26.6823L59.1119 0H77.3427L69.2401 29.4618Z" fill="#007DFF"/>
</svg>
