<svg xmlns="http://www.w3.org/2000/svg" width="24" height="24" fill="none" viewBox="0 0 24 24"><g clip-path="url(#a)"><path fill="#F0F0F0" d="M12 24c6.627 0 12-5.373 12-12S18.627 0 12 0 0 5.373 0 12s5.373 12 12 12Z"/><path fill="#D80027" d="M24 12.002a12 12 0 0 0-6.783-10.81v21.619A12 12 0 0 0 23.999 12ZM0 12a12 12 0 0 0 6.783 10.81V1.191A12 12 0 0 0 0 12.001ZM14.087 13.566l2.087-1.043L15.131 12v-1.044l-2.088 1.044 1.044-2.087h-1.043L12 8.349l-1.043 1.565H9.913L10.957 12 8.87 10.957v1.044l-1.044.522 2.087 1.043-.522 1.043h2.087v1.566h1.044v-1.566h2.087l-.522-1.043Z"/></g><defs><clipPath id="a"><path fill="#fff" d="M0 0h24v24H0z"/></clipPath></defs></svg>